<svg width="32" height="29" viewBox="0 0 32 29" fill="none" xmlns="http://www.w3.org/2000/svg">
<g id="Capa 2">
<g id="Capa 1">
<path id="Vector" d="M8.80063 15.1194C8.15446 16.7288 7.53623 18.2495 6.93986 19.7787C6.84026 20.0362 6.71637 20.109 6.45401 20.1066C4.42481 20.0953 2.3952 20.0953 0.365189 20.1066C0.113766 20.1066 -0.011339 20.0872 0.000807104 19.7762C0.0263138 19.0195 0.0214554 18.2616 0.000807104 17.5049C0.000807104 17.2353 0.0894734 17.1867 0.334824 17.1891C1.69761 17.2 3.0604 17.1818 4.4244 17.2025C4.75235 17.2025 4.8896 17.0992 5.00863 16.8004C6.17344 13.8526 7.35647 10.912 8.53099 7.96904C8.56378 7.88644 8.5735 7.79049 8.69739 7.72611C10.5885 11.9772 12.4785 16.2284 14.3988 20.5499C16.8559 13.6765 19.2803 6.88804 21.7374 0C22.488 1.87414 23.1949 3.64382 23.9043 5.41472C25.4225 9.21158 26.938 13.0101 28.4505 16.8102C28.572 17.1223 28.7287 17.2073 29.0433 17.2C29.9214 17.1794 30.7996 17.2 31.6778 17.1867C31.9401 17.1867 32.0057 17.262 31.9996 17.5146C31.9838 18.2713 31.9826 19.0292 31.9996 19.7859C32.0057 20.0507 31.9195 20.1078 31.6692 20.1066C30.0903 20.0957 28.5186 20.092 26.9444 20.1066C26.6626 20.1066 26.5958 19.9742 26.512 19.7629C25.0407 16.0753 23.5654 12.391 22.086 8.70995C22.0326 8.57755 22.0277 8.40994 21.854 8.31641L14.6927 28.3708C12.7141 23.9205 10.7732 19.5552 8.80063 15.1194Z" fill="#FB941A"/>
</g>
</g>
</svg>
