<svg width="32" height="32" viewBox="0 0 32 32" fill="none" xmlns="http://www.w3.org/2000/svg">
<g id="change 1" clip-path="url(#clip0_134_13)">
<g id="Capa 2">
<g id="Capa 1">
<path id="Vector" d="M8.99848 0C9.32645 0.131187 9.64592 0.268448 9.87064 0.564835C10.073 0.81991 10.1818 1.13665 10.179 1.46225C10.1761 1.78785 10.0617 2.10262 9.85484 2.35408C9.68357 2.5618 9.49043 2.74886 9.29487 2.93957C7.87367 4.36077 6.45126 5.77953 5.01306 7.21531C5.13453 7.30398 5.2645 7.26632 5.37747 7.26632C13.6771 7.26632 21.9775 7.26632 30.2788 7.26632C30.7367 7.26632 31.174 7.32341 31.5214 7.65988C31.9174 8.04251 32.0826 8.51017 31.9526 9.0495C31.8984 9.31122 31.7705 9.55197 31.5838 9.74332C31.3972 9.93467 31.1598 10.0686 30.8995 10.1294C30.6965 10.176 30.488 10.1944 30.28 10.184H4.98755C5.09201 10.297 5.16247 10.3772 5.23778 10.4537C6.71728 11.934 8.19678 13.4147 9.67628 14.8958C10.3808 15.604 10.3407 16.5964 9.59733 17.1564C9.34717 17.3463 9.0417 17.4492 8.7276 17.4492C8.4135 17.4492 8.10804 17.3463 7.85788 17.1564C7.73568 17.0597 7.62003 16.955 7.51169 16.843C5.2645 14.5966 3.01731 12.351 0.770118 10.1063C0.444579 9.78075 0.138476 9.45035 0 8.99848V8.43608C0.0352262 8.01701 0.280595 7.70726 0.56119 7.42909C2.84725 5.13736 5.13655 2.84806 7.42909 0.56119C7.70969 0.280595 8.017 0.0352262 8.43608 0H8.99848Z" fill="#FB941A"/>
<path id="Vector_2" d="M0 22.9977C0.289098 22.1 0.9256 21.8024 1.83784 21.8036C10.0978 21.819 18.3549 21.8222 26.6092 21.8133H26.9736C26.9276 21.7073 26.8532 21.6161 26.7586 21.5497C25.2807 20.0694 23.8016 18.5887 22.3213 17.1076C21.6241 16.4067 21.6483 15.4337 22.3638 14.8653C22.6169 14.6616 22.9315 14.5499 23.2563 14.5484C23.5811 14.5468 23.8969 14.6555 24.1518 14.8568C24.2653 14.9482 24.3736 15.0459 24.4762 15.1495L31.3902 22.0623C32.1968 22.8701 32.198 23.667 31.3902 24.4735C29.0677 26.8009 26.7428 29.1274 24.4154 31.4532C23.7668 32.1006 22.9797 32.1735 22.3504 31.656C22.0609 31.4199 21.8749 31.08 21.8323 30.7088C21.7896 30.3376 21.8936 29.9645 22.1221 29.6688C22.2203 29.5475 22.3257 29.4323 22.4379 29.3238C23.9478 27.8152 25.4589 26.3077 26.9845 24.7857C26.863 24.6885 26.7416 24.731 26.6201 24.731C18.3602 24.731 10.103 24.7331 1.84877 24.7371C0.94625 24.7383 0.30003 24.4517 0 23.5649V22.9977Z" fill="#FB941A"/>
</g>
</g>
</g>
<defs>
<clipPath id="clip0_134_13">
<rect width="32" height="31.9976" fill="white"/>
</clipPath>
</defs>
</svg>
