<svg width="26" height="48" viewBox="0 0 26 48" fill="none" xmlns="http://www.w3.org/2000/svg">
<path id="Vector" d="M25.1404 20.2014C24.8617 22.2067 24.6581 24.2209 24.3901 26.2279C24.2686 27.1386 23.8059 27.5047 22.8877 27.5065C20.6475 27.5065 18.4092 27.5065 16.169 27.5065C16.1084 27.5161 16.0487 27.5304 15.9903 27.5493C15.9796 27.7279 15.9546 27.9243 15.9546 28.1225C15.9403 34.6115 15.9254 41.0994 15.9099 47.5861C15.903 47.7226 15.9205 47.8593 15.9618 47.9896H6.67234C6.67234 47.8771 6.6902 47.7664 6.6902 47.6575C6.70449 41.1684 6.72177 34.6806 6.74201 28.1939C6.74201 27.6582 6.6116 27.4797 6.04888 27.4797C4.55007 27.5172 3.04947 27.4975 1.55066 27.4904C0.585994 27.4904 0.0804307 26.9779 0.0714986 26.0172C0.0500615 24.0066 0.0333939 21.9954 0.0214844 19.9835C0.0214844 18.5907 0.49667 18.1157 1.90437 18.1122C3.31208 18.1086 4.71264 18.0979 6.11677 18.1122C6.55623 18.1122 6.70629 17.9925 6.70093 17.5354C6.67771 15.639 6.67235 13.7409 6.70093 11.8445C6.7313 9.46963 7.08858 7.16436 8.30871 5.0698C9.83611 2.44846 12.1424 0.86638 15.0846 0.359256C16.846 0.0556959 18.6575 0.0842663 20.46 0.00212647C21.3889 -0.0407291 22.3196 -0.0121587 23.2504 0.00212647C24.3972 0.0128404 24.9403 0.537817 24.9493 1.66099C24.9635 3.35021 24.9635 5.03884 24.9493 6.72687C24.9493 7.82862 24.3955 8.33396 23.2843 8.35896C21.8552 8.38395 20.426 8.33038 19.0219 8.46966C17.005 8.66787 16.0153 9.80176 15.9707 11.8195C15.9278 13.7338 15.9493 15.6515 15.9225 17.5658C15.9225 17.9907 16.0725 18.1211 16.487 18.1175C18.7843 18.1032 21.0799 18.1175 23.3772 18.1175C24.7956 18.13 25.319 18.7889 25.1404 20.2014Z" fill="url(#paint0_linear_48_23)"/>
<defs>
<linearGradient id="paint0_linear_48_23" x1="-3.48537" y1="47.9896" x2="30.253" y2="47.9896" gradientUnits="userSpaceOnUse">
<stop stop-color="#FFAF10"/>
<stop offset="1" stop-color="#F97919"/>
</linearGradient>
</defs>
</svg>
