<svg width="1453" height="576" viewBox="0 0 1453 576" fill="none" xmlns="http://www.w3.org/2000/svg">
<g id="Frame 1">
<path id="Vector 9" d="M1241.5 24C1374.5 23.9995 1409.17 58.8333 1452.5 79.5V575.5H0V163.5C77.8333 142 113.5 79.5 327.5 79.5C473.5 79.5 668.219 164.792 810.5 180C1021 202.5 1108.5 24.0005 1241.5 24Z" fill="url(#paint0_linear_6_35)"/>
<g id="Vector 8" style="mix-blend-mode:multiply">
<path d="M1210.24 226.356C1271.61 261.092 1397.65 278.155 1453 282.345V576H0V198.933C229.634 257.778 450.687 142.944 671.741 96.668C892.795 50.3916 1133.53 182.936 1210.24 226.356Z" fill="url(#paint1_linear_6_35)"/>
</g>
</g>
<defs>
<linearGradient id="paint0_linear_6_35" x1="726.25" y1="24" x2="726.25" y2="575.5" gradientUnits="userSpaceOnUse">
<stop stop-color="#0F6DA3"/>
<stop offset="1" stop-color="#133295"/>
</linearGradient>
<linearGradient id="paint1_linear_6_35" x1="726.5" y1="87" x2="726.5" y2="576" gradientUnits="userSpaceOnUse">
<stop stop-color="#133295"/>
<stop offset="1" stop-color="#03185B"/>
</linearGradient>
</defs>
</svg>
