<svg width="314" height="406" viewBox="0 0 314 406" fill="none" xmlns="http://www.w3.org/2000/svg">
<g id="OURCOINILUSTR 1" clip-path="url(#clip0_149_551)">
<path id="Vector" d="M314 162.517L157.34 253.726L156.785 253.395L0 162.117L156.653 71.6523L314 162.517Z" fill="url(#paint0_linear_149_551)"/>
<path id="Vector_2" d="M314 162.518L156.997 404.92L156.785 253.395L157.34 253.726L314 162.518Z" fill="url(#paint1_linear_149_551)"/>
<path id="Vector_3" d="M156.997 404.919L156.984 404.951L0 162.118L156.785 253.395L156.997 404.919Z" fill="url(#paint2_linear_149_551)"/>
<path id="Vector_4" d="M156.997 404.919V404.969L156.984 404.951" stroke="#C45233" stroke-miterlimit="10"/>
<g id="Vector_5" filter="url(#filter0_d_149_551)">
<path d="M261.553 124.449V157.439L157.228 218.174L156.859 217.956V184.965L157.228 185.184L233.104 141.019L261.553 124.449Z" fill="url(#paint3_linear_149_551)"/>
</g>
<path id="Vector_6" d="M261.553 124.449L233.104 141.019L157.228 185.184L156.859 184.965L80.9025 140.744L52.4468 124.18L156.772 63.9453L261.553 124.449Z" fill="url(#paint4_linear_149_551)"/>
<path id="Vector_7" d="M167.388 117.397L173.164 114.087C185.682 106.926 196.087 96.5845 203.324 84.1083C210.562 71.632 214.374 57.4644 214.377 43.0402V42.5592C214.377 9.85588 178.983 -10.5806 150.684 5.77109C138.34 12.9006 128.094 23.1584 120.977 35.5109C113.86 47.8633 110.124 61.8739 110.145 76.1308V84.2504C110.17 113.612 141.904 131.988 167.388 117.397Z" fill="#DD920E"/>
<g id="Vector_8" filter="url(#filter1_d_149_551)">
<path d="M176.792 123.775L182.574 120.465C195.092 113.303 205.497 102.96 212.734 90.4823C219.972 78.0051 223.784 63.8367 223.787 49.4116V48.9245C223.787 16.2211 188.394 -4.21535 160.094 12.1363C147.751 19.2658 137.504 29.5237 130.387 41.8761C123.27 54.2286 119.534 68.2391 119.555 82.496V90.6156C119.574 119.99 151.308 138.365 176.792 123.775Z" fill="#FFAF10"/>
</g>
<g id="Vector_9" filter="url(#filter2_d_149_551)">
<path d="M156.859 184.965V217.956L52.4468 157.183V124.18L80.9025 140.744L156.859 184.965Z" fill="url(#paint5_linear_149_551)"/>
</g>
<g id="Vector_10" filter="url(#filter3_d_149_551)">
<path d="M197.249 36.4761C197.249 36.4761 198.31 26.3015 193.252 26.0829C188.194 25.8643 185.172 24.128 180.588 26.5389C176.005 28.9498 171.984 35.1457 171.984 35.1457C171.984 35.1457 167.769 34.0027 163.204 37.2131C158.639 40.4234 155.817 45.7449 150.928 52.0657C146.038 58.3866 147.605 66.9496 147.605 66.9496C139.226 76.2685 140.181 82.6955 140.181 82.6955L140.487 94.0942C140.674 101.096 148.448 99.7841 148.448 99.7841C148.48 105.811 149.866 107.716 149.866 107.716C152.926 113.45 163.547 110.54 167.094 108.341C170.641 106.142 173.751 100.846 173.751 100.846C174.879 101.23 176.078 101.357 177.262 101.216C178.445 101.076 179.582 100.672 180.588 100.034C184.135 97.8604 194.563 87.8483 197.224 78.5982C197.224 78.5982 198.472 75.0818 198.173 69.2294C198.173 69.2294 205.76 61.1097 205.572 54.1144L205.266 42.7094C205.266 42.7094 205.841 35.3643 197.249 36.4761Z" fill="url(#paint6_linear_149_551)"/>
</g>
<path id="Vector_11" d="M195.287 49.6046C194.713 47.9244 194.245 47.7308 193.146 47.9994C192.046 48.268 188.15 50.4603 188.038 46.0569C187.925 41.6536 188.718 38.793 187.644 37.8936C186.57 36.9942 182.755 35.4702 178.078 38.818C178.078 38.818 175.012 42.2594 174.956 44.3206C174.956 45.0139 174.956 45.9445 174.956 46.8876C175.006 48.7614 175.105 50.6851 175.105 50.6851C181.406 48.3242 186.283 51.8781 186.495 59.6042C186.483 63.8038 185.502 67.944 183.629 71.7024C181.804 75.6252 179.189 79.1293 175.948 81.9956L176.111 87.9292C176.156 88.1938 176.256 88.4461 176.403 88.6707C176.55 88.8952 176.742 89.0872 176.966 89.2346C177.672 89.6156 178.627 90.5212 180.576 89.3283C182.524 88.1353 184.897 85.7244 187.95 80.4591C187.95 80.4591 189.286 78.2106 188.712 74.1633C188.138 70.116 188.906 68.4858 189.574 67.2616C190.242 66.0374 195.244 61.8839 195.543 60.2725C195.843 58.6611 195.856 51.3034 195.287 49.6046Z" fill="white"/>
<path id="Vector_12" d="M150.159 77.3051C150.621 74.9941 151.065 74.2446 152.139 73.1766C153.213 72.1085 157.103 69.5228 156.985 65.1194C156.866 60.7161 155.942 58.911 156.935 56.75C157.927 54.5889 161.537 48.4992 166.239 46.0883C166.239 46.0883 169.361 45.7135 169.542 47.6497C169.598 48.2743 169.636 49.2174 169.661 50.1481C169.711 52.0218 169.717 53.9955 169.717 53.9955C163.472 59.317 158.964 68.6546 159.17 76.3807C159.276 80.2532 160.55 83.07 162.58 84.6315C164.609 86.193 167.406 86.5053 170.56 85.3123L170.716 91.2459C170.608 92.053 170.35 92.8327 169.954 93.5444C169.292 94.7935 168.418 96.7922 166.47 97.9852C164.522 99.1781 162.099 99.7215 158.864 98.3162C158.864 98.3162 157.453 97.7541 157.796 93.1446C158.14 88.5352 157.303 87.8856 156.597 87.5233C155.892 87.1611 150.828 89.166 150.447 87.9793C150.066 86.7926 149.697 79.6286 150.159 77.3051Z" fill="white"/>
<path id="Vector_13" d="M197.561 36.5631C197.561 36.5631 198.622 26.3886 193.558 26.1762C188.494 25.9639 185.484 24.2213 180.894 26.626C176.305 29.0306 172.271 35.2327 172.271 35.2327C172.271 35.2327 168.056 34.096 163.491 37.3001C158.926 40.5043 156.104 45.8382 151.221 52.159C146.338 58.4799 147.918 67.043 147.918 67.043C139.531 76.3555 140.493 82.7825 140.493 82.7825L140.799 94.1875C140.986 101.189 148.754 99.8712 148.754 99.8712C148.786 105.905 150.172 107.803 150.172 107.803C153.238 113.543 163.853 110.633 167.4 108.428C170.947 106.223 174.057 100.933 174.057 100.933C175.189 101.321 176.394 101.45 177.583 101.311C178.771 101.172 179.914 100.767 180.925 100.127C184.466 97.9475 194.894 87.9354 197.554 78.6915C197.554 78.6915 198.803 75.1751 198.51 69.3227C198.51 69.3227 206.097 61.2031 205.909 54.2077L205.603 42.809C205.603 42.809 206.159 35.4514 197.561 36.5631Z" fill="url(#paint7_linear_149_551)"/>
<path id="Vector_14" d="M195.606 49.6984C195.038 48.012 194.57 47.8247 193.471 48.0932C192.372 48.3618 188.475 50.5479 188.363 46.1445C188.25 41.7412 189.037 38.8868 187.969 37.9812C186.902 37.0755 183.074 35.564 178.397 38.9118C178.397 38.9118 175.337 42.347 175.274 44.4144C175.274 45.1015 175.274 46.0383 175.274 46.9815C175.324 48.8552 175.424 50.7727 175.424 50.7727C181.719 48.4118 186.602 51.9657 186.808 59.6981C186.8 63.8975 185.821 68.0382 183.948 71.7963C182.119 75.7169 179.505 79.2202 176.267 82.0895L176.423 88.0231C176.47 88.2874 176.57 88.5395 176.717 88.7639C176.864 88.9884 177.055 89.1805 177.279 89.3284C177.991 89.7094 178.946 90.6088 180.888 89.4159C182.83 88.2229 185.209 85.812 188.269 80.553C188.269 80.553 189.599 78.3045 189.025 74.2509C188.45 70.1973 189.224 68.5734 189.886 67.3805C190.548 66.1875 195.556 62.0028 195.862 60.3913C196.168 58.7799 196.174 51.3786 195.606 49.6984Z" fill="white"/>
<path id="Vector_15" d="M150.484 77.3987C150.946 75.0815 151.389 74.3382 152.463 73.2639C153.537 72.1896 157.421 69.6101 157.309 65.213C157.196 60.8159 156.266 59.0046 157.253 56.8373C158.239 54.67 161.855 48.5865 166.557 46.1756C166.557 46.1756 169.679 45.8071 169.866 47.7371C169.923 48.3617 169.954 49.3048 169.979 50.2354C170.029 52.1092 170.035 54.0829 170.035 54.0829C163.822 59.4043 159.282 68.7419 159.494 76.4743C159.594 80.3405 160.868 83.1636 162.904 84.7188C164.939 86.2741 167.731 86.5926 170.878 85.3996L171.04 91.3332C170.93 92.1397 170.672 92.9189 170.278 93.6317C169.617 94.8809 168.736 96.8858 166.794 98.0788C164.852 99.2717 162.423 99.8089 159.188 98.4098C159.188 98.4098 157.777 97.8476 158.121 93.232C158.464 88.6163 157.627 87.9792 156.922 87.6107C156.216 87.2422 151.146 89.2596 150.771 88.0666C150.396 86.8737 150.022 79.7159 150.484 77.3987Z" fill="white"/>
<path id="Vector_16" d="M197.873 36.6569C197.873 36.6569 198.94 26.4761 193.876 26.2638C188.812 26.0514 185.796 24.3088 181.212 26.7197C176.629 29.1306 172.608 35.3265 172.608 35.3265C172.608 35.3265 168.393 34.1835 163.828 37.3939C159.263 40.6043 156.441 45.9257 151.552 52.2466C146.662 58.5674 148.23 67.1304 148.23 67.1304C139.85 76.4493 140.805 82.8763 140.805 82.8763L141.111 94.275C141.298 101.277 149.073 99.965 149.073 99.965C149.104 105.992 150.49 107.897 150.49 107.897C153.55 113.631 164.171 110.72 167.718 108.522C171.265 106.323 174.375 101.027 174.375 101.027C175.507 101.416 176.713 101.545 177.902 101.404C179.091 101.264 180.233 100.857 181.244 100.215C184.791 98.0412 195.219 88.0291 197.879 78.779C197.879 78.779 199.128 75.2626 198.828 69.4102C198.828 69.4102 206.415 61.2906 206.228 54.2952L205.922 42.8903C205.922 42.8903 206.484 35.5389 197.873 36.6569Z" fill="url(#paint8_linear_149_551)"/>
<path id="Vector_17" d="M195.931 49.7857C195.363 48.1056 194.888 47.912 193.795 48.1805C192.703 48.4491 188.8 50.6414 188.681 46.2381C188.563 41.8348 189.362 38.9741 188.288 38.0747C187.214 37.1753 183.398 35.6513 178.721 38.9991C178.721 38.9991 175.655 42.4406 175.599 44.5017C175.599 45.195 175.599 46.1257 175.599 47.0688C175.655 48.9425 175.749 50.8663 175.749 50.8663C182.05 48.5053 186.933 52.0592 187.139 59.7854C187.245 63.6515 186.158 67.905 184.273 71.8836C182.46 75.801 179.863 79.3044 176.642 82.1768L176.804 88.1104C176.85 88.3749 176.949 88.6273 177.097 88.8518C177.244 89.0764 177.435 89.2683 177.66 89.4157C178.365 89.7967 179.321 90.7024 181.269 89.5094C183.217 88.3165 185.59 85.9056 188.644 80.6403C188.644 80.6403 189.98 78.3918 189.406 74.3445C188.831 70.2972 189.599 68.667 190.267 67.4428C190.935 66.2186 195.937 62.0651 196.243 60.4537C196.549 58.8422 196.499 51.4721 195.931 49.7857Z" fill="white"/>
<path id="Vector_18" d="M150.802 77.4863C151.265 75.1753 151.708 74.4258 152.788 73.3577C153.868 72.2897 157.746 69.7039 157.628 65.3006C157.509 60.8972 156.585 59.0922 157.578 56.9311C158.57 54.77 162.18 48.6803 166.882 46.2694C166.882 46.2694 170.004 45.8947 170.191 47.8309C170.241 48.4555 170.279 49.3986 170.304 50.3292C170.354 52.203 170.36 54.1767 170.36 54.1767C164.116 59.4982 159.607 68.8357 159.813 76.5619C159.919 80.4343 161.193 83.2512 163.223 84.8127C165.252 86.3741 168.056 86.6864 171.203 85.4935L171.359 91.427C171.252 92.2335 170.996 93.0129 170.603 93.7255C169.935 94.9435 169.061 96.9734 167.113 98.1663C165.165 99.3593 162.742 99.9027 159.507 98.4973C159.507 98.4973 158.096 97.9352 158.439 93.3258C158.783 88.7163 157.946 88.0668 157.24 87.7045C156.535 87.3422 151.471 89.3472 151.09 88.1604C150.709 86.9737 150.34 79.8035 150.802 77.4863Z" fill="white"/>
<path id="Vector_19" d="M198.204 36.7443C198.204 36.7443 199.265 26.5698 194.201 26.3574C189.137 26.145 186.127 24.4024 181.544 26.8071C176.96 29.2118 172.939 35.4139 172.939 35.4139C172.939 35.4139 168.718 34.2772 164.153 37.4813C159.588 40.6854 156.766 46.0194 151.883 52.3402C147 58.661 148.542 67.2241 148.542 67.2241C140.156 76.5367 141.117 82.9637 141.117 82.9637L141.423 94.3686C141.611 101.37 149.379 100.052 149.379 100.052C149.41 106.086 150.803 107.985 150.803 107.985C153.862 113.725 164.478 110.814 168.025 108.609C171.571 106.404 174.687 101.114 174.687 101.114C175.819 101.503 177.025 101.633 178.214 101.494C179.402 101.354 180.545 100.949 181.556 100.308C185.103 98.1286 195.531 88.1165 198.185 78.8726C198.185 78.8726 199.434 75.3562 199.141 69.5038C199.141 69.5038 206.727 61.3842 206.54 54.3888L206.234 42.9901C206.234 42.9901 206.809 35.6325 198.204 36.7443Z" fill="url(#paint9_linear_149_551)"/>
<path id="Vector_20" d="M196.249 49.8796C195.681 48.1932 195.213 48.0058 194.114 48.2744C193.015 48.543 189.118 50.729 189.006 46.3257C188.893 41.9224 189.68 39.068 188.612 38.1623C187.545 37.2567 183.723 35.7452 179.046 39.093C179.046 39.093 175.98 42.5282 175.924 44.5956C175.924 45.2826 175.924 46.2195 175.924 47.1626C175.974 49.0364 176.074 50.9539 176.074 50.9539C182.368 48.5929 187.251 52.1468 187.457 59.8792C187.45 64.0786 186.471 68.2194 184.597 71.9775C182.768 75.898 180.154 79.4013 176.917 82.2706L177.073 88.2042C177.12 88.4692 177.22 88.7217 177.368 88.9462C177.517 89.1708 177.709 89.3625 177.935 89.5096C178.64 89.8906 179.596 90.79 181.538 89.597C183.48 88.4041 185.859 85.9932 188.918 80.7279C188.918 80.7279 190.249 78.4794 189.674 74.4321C189.1 70.3848 189.874 68.7546 190.536 67.5616C191.198 66.3687 196.206 62.1839 196.512 60.5725C196.818 58.9611 196.818 51.5597 196.249 49.8796Z" fill="white"/>
<path id="Vector_21" d="M151.127 77.5799C151.589 75.2626 152.033 74.5194 153.107 73.4451C154.181 72.3708 158.071 69.7913 157.952 65.3942C157.834 60.9971 156.909 59.1858 157.896 57.0185C158.883 54.8511 162.504 48.7677 167.206 46.3568C167.206 46.3568 170.329 45.9882 170.51 47.9182C170.566 48.5428 170.597 49.4859 170.622 50.4166C170.678 52.2903 170.685 54.264 170.685 54.264C164.44 59.5855 159.926 68.9231 160.138 76.6555C160.238 80.5216 161.512 83.3448 163.547 84.9C165.583 86.4552 168.374 86.7738 171.521 85.5808L171.684 91.5144C171.577 92.3217 171.318 93.1016 170.922 93.8129C170.26 95.062 169.38 97.0669 167.438 98.2599C165.496 99.4529 163.066 99.99 159.832 98.5909C159.832 98.5909 158.421 98.0288 158.764 93.4131C159.107 88.7974 158.271 88.1604 157.565 87.7918C156.86 87.4233 151.795 89.4407 151.414 88.2478C151.033 87.0548 150.665 79.8971 151.127 77.5799Z" fill="white"/>
<path id="Vector_22" d="M198.497 36.838C198.497 36.838 199.565 26.6573 194.501 26.4449C189.436 26.2326 186.427 24.49 181.837 26.9009C177.247 29.3118 173.232 35.5014 173.232 35.5014C173.232 35.5014 169.017 34.3647 164.453 37.575C159.888 40.7854 157.065 46.1069 152.176 52.4277C147.287 58.7485 148.854 67.3116 148.854 67.3116C140.474 76.6242 141.429 83.0574 141.429 83.0574L141.735 94.4561C141.929 101.458 149.697 100.146 149.697 100.146C149.728 106.173 151.115 108.078 151.115 108.078C154.174 113.812 164.796 110.902 168.343 108.703C171.89 106.504 174.999 101.208 174.999 101.208C176.127 101.592 177.327 101.719 178.51 101.578C179.694 101.438 180.83 101.034 181.837 100.396C185.384 98.2224 195.812 88.2103 198.472 78.9601C198.472 78.9601 199.721 75.4437 199.427 69.5914C199.427 69.5914 207.008 61.4717 206.821 54.4764L206.515 43.0714C206.515 43.0714 207.127 35.72 198.497 36.838Z" fill="url(#paint10_linear_149_551)"/>
<path id="Vector_23" d="M196.574 49.9669C196.006 48.2867 195.537 48.0931 194.438 48.3617C193.339 48.6303 189.443 50.8226 189.324 46.4192C189.206 42.0159 190.005 39.1553 188.931 38.2559C187.857 37.3565 184.041 35.8325 179.364 39.1803C179.364 39.1803 176.305 42.6217 176.242 44.6829C176.242 45.3762 176.242 46.3068 176.242 47.2499C176.292 49.1237 176.386 51.0474 176.386 51.0474C182.686 48.6865 187.57 52.2404 187.776 59.9665C187.882 63.8327 186.795 68.0861 184.909 72.0648C183.093 75.9832 180.492 79.4867 177.266 82.358L177.429 88.2915C177.474 88.5561 177.574 88.8085 177.721 89.033C177.868 89.2576 178.06 89.4495 178.284 89.5969C178.99 89.9779 179.951 90.8836 181.893 89.6906C183.835 88.4976 186.214 86.0867 189.268 80.8215C189.268 80.8215 190.604 78.573 190.03 74.5256C189.455 70.4783 190.23 68.8482 190.892 67.624C191.553 66.3998 196.561 62.2463 196.867 60.6348C197.173 59.0234 197.142 51.6533 196.574 49.9669Z" fill="white"/>
<path id="Vector_24" d="M151.446 77.6674C151.908 75.3564 152.351 74.6069 153.431 73.5389C154.512 72.4708 158.389 69.8851 158.271 65.4817C158.152 61.0784 157.234 59.2733 158.221 57.1123C159.207 54.9512 162.823 48.8615 167.525 46.4506C167.525 46.4506 170.647 46.0758 170.835 48.012C170.885 48.6366 170.922 49.5798 170.947 50.5104C170.997 52.3841 171.003 54.3578 171.003 54.3578C164.759 59.6793 160.25 69.0169 160.456 76.743C160.563 80.6155 161.836 83.4323 163.872 84.9938C165.908 86.5553 168.699 86.8676 171.846 85.6684L172.002 91.6082C171.895 92.4146 171.639 93.1941 171.247 93.9067C170.579 95.1246 169.704 97.1545 167.756 98.3475C165.808 99.5404 163.385 100.084 160.15 98.6785C160.15 98.6785 158.739 98.1164 159.083 93.5069C159.426 88.8975 158.596 88.2479 157.884 87.8856C157.172 87.5234 152.114 89.5283 151.733 88.3416C151.352 87.1549 150.99 79.9846 151.446 77.6674Z" fill="white"/>
<path id="Vector_25" d="M198.847 36.9381C198.847 36.9381 199.908 26.7636 194.844 26.5512C189.78 26.3389 186.77 24.5963 182.187 27.001C177.603 29.4056 173.582 35.6078 173.582 35.6078C173.582 35.6078 169.361 34.4398 164.777 37.6626C160.194 40.8855 157.415 46.2007 152.526 52.5528C147.636 58.9048 149.204 67.4367 149.204 67.4367C140.824 76.7493 141.779 83.1763 141.779 83.1763L142.085 94.5812C142.272 101.583 150.04 100.265 150.04 100.265C150.072 106.298 151.464 108.197 151.464 108.197C154.524 113.937 165.139 111.027 168.686 108.822C172.233 106.617 175.349 101.327 175.349 101.327C176.477 101.711 177.676 101.838 178.859 101.699C180.042 101.559 181.179 101.157 182.187 100.521C185.733 98.3412 196.162 88.3291 198.815 79.079C198.815 79.079 200.064 75.5688 199.771 69.7102C199.771 69.7102 207.358 61.5905 207.17 54.5952L206.864 43.184C206.864 43.184 207.451 35.8139 198.847 36.9381Z" fill="url(#paint11_linear_149_551)"/>
<path id="Vector_26" d="M196.892 50.0544C196.324 48.368 195.856 48.1806 194.757 48.4492C193.658 48.7178 189.761 50.9038 189.649 46.5005C189.537 42.0972 190.323 39.2428 189.256 38.3371C188.188 37.4315 184.366 35.92 179.689 39.2678C179.689 39.2678 176.623 42.703 176.567 44.7704C176.567 45.4574 176.567 46.3943 176.567 47.3374C176.617 49.2112 176.717 51.1287 176.717 51.1287C183.011 48.7677 187.894 52.3216 188.107 60.054C188.094 64.2535 187.113 68.3935 185.24 72.1523C183.413 76.0741 180.799 79.5778 177.56 82.4454L177.716 88.379C177.763 88.644 177.863 88.8965 178.011 89.121C178.16 89.3456 178.352 89.5373 178.578 89.6844C179.283 90.0654 180.239 90.9648 182.181 89.7718C184.123 88.5789 186.502 86.168 189.562 80.9027C189.562 80.9027 190.898 78.6542 190.323 74.6069C189.749 70.5596 190.517 68.9294 191.185 67.7364C191.853 66.5435 196.855 62.3587 197.155 60.7473C197.454 59.1359 197.461 51.7408 196.892 50.0544Z" fill="white"/>
<path id="Vector_27" d="M151.77 77.761C152.232 75.4438 152.676 74.6943 153.75 73.6262C154.824 72.5582 158.745 69.9724 158.595 65.5753C158.446 61.1782 157.553 59.3669 158.545 57.1996C159.538 55.0323 163.148 48.9488 167.85 46.5379C167.85 46.5379 170.972 46.1694 171.153 48.0994C171.209 48.724 171.247 49.6671 171.272 50.5977C171.321 52.4715 171.328 54.4452 171.328 54.4452C165.083 59.7667 160.575 69.1042 160.781 76.8366C160.887 80.7028 162.155 83.5259 164.19 85.0811C166.226 86.6363 169.017 86.9549 172.164 85.7619L172.327 91.6955C172.22 92.5029 171.962 93.2827 171.565 93.994C170.903 95.2432 170.023 97.2481 168.081 98.441C166.139 99.634 163.71 100.171 160.475 98.7721C160.475 98.7721 159.064 98.2099 159.407 93.5942C159.751 88.9786 158.914 88.3415 158.208 87.973C157.503 87.6045 152.438 89.6219 152.057 88.4289C151.677 87.236 151.308 80.0782 151.77 77.761Z" fill="white"/>
<path id="Vector_28" d="M199.172 37.0192C199.172 37.0192 200.233 26.8384 195.169 26.6261C190.105 26.4137 187.095 24.6711 182.505 27.082C177.916 29.4929 173.901 35.6888 173.901 35.6888C173.901 35.6888 169.686 34.5521 165.121 37.7624C160.556 40.9728 157.734 46.3068 152.844 52.6089C147.955 58.9109 149.529 67.4928 149.529 67.4928C141.142 76.8053 142.098 83.2386 142.098 83.2386L142.41 94.6373C142.597 101.639 150.365 100.327 150.365 100.327C150.397 106.355 151.783 108.26 151.783 108.26C154.843 113.993 165.464 111.083 169.011 108.884C172.558 106.686 175.668 101.389 175.668 101.389C176.796 101.773 177.995 101.9 179.179 101.759C180.362 101.619 181.499 101.215 182.505 100.577C186.052 98.4035 196.48 88.3914 199.141 79.1413C199.141 79.1413 200.389 75.6249 200.096 69.7725C200.096 69.7725 207.683 61.6529 207.489 54.6575L207.183 43.2525C207.183 43.2525 207.77 35.9012 199.172 37.0192Z" fill="url(#paint12_linear_149_551)"/>
<path id="Vector_29" d="M197.248 50.148C196.68 48.4679 196.212 48.2743 195.113 48.5428C194.014 48.8114 190.117 51.0037 189.999 46.6004C189.88 42.1971 190.679 39.3364 189.605 38.437C188.531 37.5376 184.716 36.0136 180.039 39.3614C180.039 39.3614 176.979 42.8029 176.917 44.864C176.917 45.5573 176.917 46.488 176.917 47.4311C176.966 49.3048 177.066 51.2286 177.066 51.2286C183.361 48.8614 188.244 52.4215 188.45 60.1477C188.556 64.0139 187.47 68.2673 185.584 72.2459C183.755 76.1679 181.135 79.67 177.891 82.5328L178.053 88.4664C178.099 88.731 178.198 88.9834 178.345 89.2079C178.492 89.4325 178.684 89.6244 178.908 89.7718C179.62 90.1528 180.576 91.0585 182.518 89.8655C184.46 88.6725 186.839 86.2616 189.892 80.9964C189.892 80.9964 191.229 78.7479 190.654 74.7005C190.08 70.6532 190.854 69.023 191.516 67.7989C192.178 66.5747 197.186 62.4212 197.492 60.8097C197.798 59.1983 197.785 51.8344 197.248 50.148Z" fill="white"/>
<path id="Vector_30" d="M152.095 77.8486C152.551 75.5376 152.994 74.7881 154.074 73.7201C155.155 72.652 159.032 70.0662 158.914 65.6629C158.795 61.2595 157.877 59.4545 158.864 57.2934C159.85 55.1324 163.466 49.0426 168.168 46.6317C168.168 46.6317 171.29 46.257 171.478 48.1932C171.528 48.8178 171.565 49.7609 171.59 50.6915C171.64 52.5653 171.646 54.539 171.646 54.539C165.433 59.8605 160.893 69.198 161.099 76.9242C161.205 80.7966 162.479 83.6135 164.515 85.175C166.551 86.7364 169.342 87.0487 172.489 85.8495L172.651 91.7893C172.54 92.5957 172.282 93.3747 171.89 94.0878C171.222 95.337 170.347 97.3357 168.399 98.5286C166.451 99.7216 164.028 100.265 160.793 98.8597C160.793 98.8597 159.388 98.2975 159.726 93.6881C160.063 89.0786 159.238 88.4291 158.527 88.0668C157.815 87.7045 152.757 89.7095 152.376 88.5165C151.995 87.3235 151.664 80.1658 152.095 77.8486Z" fill="white"/>
<path id="Vector_31" d="M199.49 37.1066C199.49 37.1066 200.552 26.9321 195.494 26.7197C190.436 26.5073 187.414 24.7648 182.83 27.1694C178.247 29.5741 174.225 35.7762 174.225 35.7762C174.225 35.7762 170.01 34.6395 165.446 37.8436C160.881 41.0477 158.059 46.3817 153.169 52.7025C148.28 59.0233 149.847 67.5864 149.847 67.5864C141.467 76.899 142.423 83.326 142.423 83.326L142.729 94.7309C142.916 101.726 150.69 100.415 150.69 100.415C150.721 106.448 152.108 108.347 152.108 108.347C155.167 114.087 165.789 111.176 169.33 108.972C172.87 106.767 175.993 101.476 175.993 101.476C177.12 101.861 178.319 101.988 179.503 101.848C180.686 101.709 181.823 101.307 182.83 100.671C186.377 98.491 196.805 88.4788 199.459 79.2287C199.459 79.2287 200.708 75.7185 200.414 69.8599C200.414 69.8599 208.001 61.7403 207.814 54.7449L207.508 43.3462C207.508 43.3462 208.095 35.9948 199.49 37.1066Z" fill="url(#paint13_linear_149_551)"/>
<path id="Vector_32" d="M197.536 50.2356C196.967 48.5555 196.499 48.3619 195.4 48.6367C194.301 48.9115 190.404 51.0913 190.292 46.688C190.18 42.2846 190.973 39.4303 189.899 38.5247C188.825 37.619 185.009 36.1075 180.332 39.4553C180.332 39.4553 177.266 42.8905 177.21 44.9579C177.21 45.6449 177.21 46.5818 177.21 47.5249C177.26 49.3987 177.36 51.3162 177.36 51.3162C183.654 48.9552 188.537 52.5091 188.75 60.2415C188.737 64.441 187.756 68.581 185.883 72.3398C184.056 76.2616 181.442 79.7654 178.203 82.6329L178.359 88.5665C178.406 88.8315 178.506 89.084 178.655 89.3086C178.803 89.5331 178.995 89.7248 179.221 89.8719C179.926 90.2467 180.882 91.1523 182.83 89.9594C184.778 88.7664 187.145 86.3555 190.205 81.0902C190.205 81.0902 191.541 78.8417 190.966 74.7944C190.392 70.7471 191.16 69.1169 191.828 67.8927C192.496 66.6685 197.498 62.5213 197.798 60.9098C198.098 59.2984 198.11 51.9283 197.536 50.2356Z" fill="white"/>
<path id="Vector_33" d="M152.413 77.9421C152.875 75.6249 153.319 74.8754 154.393 73.8074C155.467 72.7393 159.357 70.1536 159.238 65.7565C159.12 61.3594 158.196 59.5481 159.188 57.3808C160.181 55.2134 163.791 49.13 168.493 46.7191C168.493 46.7191 171.615 46.3506 171.796 48.2805C171.852 48.9051 171.89 49.8482 171.915 50.7789C171.965 52.6526 171.971 54.6263 171.971 54.6263C165.726 59.9478 161.218 69.2854 161.424 77.0178C161.53 80.8839 162.798 83.7008 164.833 85.2623C166.869 86.8238 169.66 87.136 172.814 85.9431L172.97 91.8767C172.863 92.684 172.605 93.4639 172.208 94.1752C171.546 95.4243 170.666 97.4292 168.724 98.6222C166.782 99.8152 164.353 100.352 161.118 98.9532C161.118 98.9532 159.707 98.3911 160.05 93.7754C160.394 89.1597 159.557 88.5226 158.851 88.1541C158.146 87.7856 153.081 89.803 152.701 88.6101C152.32 87.4171 151.951 80.2594 152.413 77.9421Z" fill="white"/>
<path id="Vector_34" d="M199.815 37.2003C199.815 37.2003 200.877 27.0196 195.812 26.8072C190.748 26.5949 187.738 24.8523 183.149 27.2632C178.559 29.6741 174.544 35.8637 174.544 35.8637C174.544 35.8637 170.329 34.727 165.764 37.9374C161.2 41.1477 158.377 46.4692 153.488 52.79C148.598 59.1108 150.172 67.6739 150.172 67.6739C141.786 76.9865 142.747 83.4135 142.747 83.4135L143.053 94.8185C143.241 101.82 151.009 100.508 151.009 100.508C151.04 106.536 152.426 108.441 152.426 108.441C155.492 114.174 166.108 111.264 169.654 109.065C173.201 106.867 176.311 101.57 176.311 101.57C177.444 101.959 178.649 102.087 179.838 101.947C181.027 101.806 182.169 101.4 183.18 100.758C186.72 98.5847 197.149 88.5726 199.809 79.3224C199.809 79.3224 201.058 75.806 200.764 69.9537C200.764 69.9537 208.351 61.834 208.164 54.8387L207.852 43.4337C207.852 43.4337 208.414 36.0823 199.815 37.2003Z" fill="url(#paint14_linear_149_551)"/>
<path id="Vector_35" d="M197.873 50.3292C197.305 48.649 196.836 48.4554 195.737 48.724C194.638 48.9926 190.742 51.1849 190.623 46.7815C190.504 42.3782 191.304 39.5176 190.23 38.6182C189.156 37.7188 185.34 36.1948 180.663 39.5426C180.663 39.5426 177.603 42.9841 177.541 45.0452C177.541 45.7385 177.541 46.6691 177.541 47.6122C177.591 49.486 177.691 51.4097 177.691 51.4097C183.985 49.0425 188.868 52.6027 189.074 60.3288C189.067 64.5282 188.088 68.669 186.215 72.4271C184.385 76.3492 181.769 79.8529 178.528 82.7202L178.69 88.6538C178.736 88.9184 178.835 89.1708 178.982 89.3953C179.129 89.6198 179.321 89.8118 179.545 89.9592C180.257 90.3402 181.213 91.2459 183.155 90.0529C185.097 88.8599 187.476 86.449 190.529 81.1838C190.529 81.1838 191.866 78.9353 191.291 74.8879C190.717 70.8406 191.491 69.2042 192.153 67.9862C192.815 66.7683 197.823 62.6086 198.129 60.9971C198.435 59.3857 198.429 52.0156 197.873 50.3292Z" fill="white"/>
<path id="Vector_36" d="M152.738 78.0297C153.2 75.7187 153.644 74.9692 154.718 73.9012C155.792 72.8331 159.676 70.2474 159.557 65.844C159.439 61.4407 158.521 59.6356 159.507 57.4683C160.494 55.301 164.109 49.2238 168.812 46.8129C168.812 46.8129 171.934 46.4381 172.121 48.3743C172.171 48.9989 172.208 49.9421 172.233 50.8727C172.283 52.7464 172.29 54.7201 172.29 54.7201C166.076 60.0416 161.537 69.3792 161.749 77.1053C161.849 80.9715 163.123 83.7946 165.159 85.3561C167.194 86.9176 169.985 87.2299 173.133 86.0307L173.295 91.9705C173.184 92.7768 172.926 93.5559 172.533 94.269C171.865 95.4869 170.991 97.5168 169.049 98.7098C167.107 99.9027 164.678 100.446 161.443 99.0408C161.443 99.0408 160.032 98.4787 160.369 93.8692C160.706 89.2598 159.882 88.6102 159.17 88.2479C158.458 87.8857 153.4 89.8906 153.026 88.6976C152.651 87.5047 152.289 80.3469 152.738 78.0297Z" fill="white"/>
<path id="Vector_37" d="M200.133 37.2877C200.133 37.2877 201.201 27.1132 196.137 26.9009C191.073 26.6885 188.057 24.9459 183.473 27.3506C178.89 29.7552 174.868 35.9574 174.868 35.9574C174.868 35.9574 170.653 34.8144 166.089 38.0247C161.524 41.2351 158.702 46.5628 153.812 52.8837C148.923 59.2045 150.49 67.7675 150.49 67.7675C142.11 77.0801 143.066 83.5071 143.066 83.5071L143.372 94.9121C143.559 101.907 151.333 100.596 151.333 100.596C151.333 106.629 152.751 108.528 152.751 108.528C155.81 114.268 166.432 111.357 169.979 109.153C173.526 106.948 176.636 101.658 176.636 101.658C177.768 102.047 178.973 102.176 180.162 102.037C181.351 101.898 182.493 101.493 183.504 100.852C187.051 98.6721 197.479 88.66 200.14 79.4099C200.14 79.4099 201.388 75.8934 201.089 70.0411C201.089 70.0411 208.676 61.9214 208.488 54.9261L208.182 43.5273C208.182 43.5273 208.738 36.176 200.133 37.2877Z" fill="url(#paint15_linear_149_551)"/>
<path id="Vector_38" d="M198.185 50.4168C197.61 48.7367 197.142 48.543 196.049 48.8178C194.956 49.0927 191.054 51.2725 190.935 46.8691C190.816 42.4658 191.616 39.6114 190.542 38.7058C189.468 37.8001 185.652 36.2887 180.975 39.6364C180.975 39.6364 177.909 43.0717 177.853 45.139C177.853 45.8261 177.853 46.763 177.853 47.7061C177.903 49.5798 178.003 51.4973 178.003 51.4973C184.303 49.1364 189.187 52.6903 189.393 60.4227C189.391 64.6265 188.418 68.7732 186.551 72.5396C184.724 76.4615 182.11 79.9652 178.871 82.8328L179.033 88.7664C179.085 89.0229 179.187 89.2666 179.334 89.4832C179.481 89.6998 179.67 89.885 179.889 90.0281C180.594 90.4028 181.55 91.2772 183.498 90.1155C185.446 88.9538 187.819 86.5117 190.873 81.2464C190.873 81.2464 192.209 78.9979 191.634 74.9505C191.06 70.9032 191.828 69.2731 192.496 68.0801C193.164 66.8871 198.166 62.7024 198.466 61.0972C198.766 59.492 198.753 52.1032 198.185 50.4168Z" fill="white"/>
<path id="Vector_39" d="M153.057 78.1233C153.519 75.8061 153.962 75.0566 155.042 73.9886C156.123 72.9205 160 70.3347 159.882 65.9376C159.763 61.5405 158.839 59.7292 159.832 57.5619C160.825 55.3946 164.434 49.3111 169.148 46.9315C169.148 46.9315 172.271 46.563 172.458 48.4929C172.508 49.1175 172.545 50.0606 172.57 50.9913C172.62 52.865 172.627 54.8387 172.627 54.8387C166.382 60.1602 161.874 69.4978 162.08 77.2302C162.186 81.0964 163.46 83.9132 165.489 85.4747C167.519 87.0362 170.322 87.3484 173.47 86.1555L173.626 92.0891C173.519 92.8964 173.26 93.6763 172.864 94.3876C172.202 95.6367 171.328 97.6417 169.379 98.8346C167.431 100.028 165.008 100.565 161.774 99.1656C161.774 99.1656 160.363 98.6035 160.706 93.9878C161.049 89.3721 160.213 88.735 159.507 88.3665C158.801 87.998 153.737 90.0154 153.356 88.8225C152.975 87.6295 152.595 80.4405 153.057 78.1233Z" fill="white"/>
<path id="Vector_40" d="M200.458 37.3815C200.458 37.3815 201.52 27.2007 196.455 26.9884C191.391 26.776 188.381 25.0334 183.798 27.4443C179.215 29.8552 175.187 36.0449 175.187 36.0449C175.187 36.0449 170.972 34.9081 166.407 38.1185C161.843 41.3289 159.02 46.6504 154.162 52.9712C149.304 59.292 150.84 67.8551 150.84 67.8551C142.454 77.1676 143.415 83.5947 143.415 83.5947L143.721 94.9996C143.909 102.001 151.677 100.69 151.677 100.69C151.677 106.717 153.1 108.622 153.1 108.622C156.16 114.356 166.776 111.445 170.322 109.246C173.869 107.048 176.985 101.751 176.985 101.751C178.118 102.141 179.323 102.27 180.512 102.129C181.701 101.989 182.844 101.582 183.854 100.939C187.395 98.7658 197.823 88.7537 200.483 79.5036C200.483 79.5036 201.732 75.9872 201.438 70.1348C201.438 70.1348 209.025 62.0152 208.838 55.0198L208.488 43.6399C208.488 43.6399 209.063 36.2635 200.458 37.3815Z" fill="url(#paint16_linear_149_551)"/>
<path id="Vector_41" d="M198.497 50.5103C197.929 48.8302 197.461 48.6366 196.362 48.9052C195.263 49.1737 191.366 51.366 191.254 46.9627C191.142 42.5593 191.928 39.6988 190.861 38.7994C189.793 37.8999 185.971 36.3759 181.294 39.7237C181.294 39.7237 178.228 43.1652 178.172 45.2263C178.172 45.9196 178.172 46.8503 178.172 47.7934C178.222 49.6672 178.322 51.5846 178.322 51.5846C184.616 49.2237 189.499 52.7838 189.705 60.51C189.698 64.7094 188.719 68.8501 186.845 72.6082C185.016 76.5288 182.402 80.0321 179.165 82.9014L179.321 88.835C179.367 89.0995 179.466 89.3519 179.613 89.5765C179.76 89.801 179.952 89.9929 180.176 90.1403C180.888 90.5213 181.844 91.427 183.786 90.234C185.728 89.0411 188.107 86.6302 191.166 81.3649C191.166 81.3649 192.497 79.1164 191.922 75.0691C191.348 71.0218 192.122 69.3853 192.784 68.1674C193.446 66.9495 198.454 62.7897 198.76 61.1783C199.066 59.5668 199.072 52.1967 198.497 50.5103Z" fill="white"/>
<path id="Vector_42" d="M153.381 78.2109C153.843 75.8999 154.287 75.1504 155.361 74.0823C156.435 73.0143 160.325 70.4285 160.207 66.0252C160.088 61.6218 159.164 59.8168 160.15 57.6495C161.137 55.4822 164.777 49.4299 169.461 46.994C169.461 46.994 172.583 46.6193 172.764 48.5555C172.82 49.1801 172.851 50.117 172.876 51.0538C172.926 52.9276 172.933 54.9075 172.933 54.9075C166.719 60.229 162.18 69.5666 162.392 77.2927C162.492 81.1589 163.766 83.982 165.802 85.5435C167.837 87.105 170.628 87.4173 173.776 86.2181L173.938 92.1579C173.827 92.9642 173.569 93.7433 173.176 94.4564C172.514 95.6743 171.634 97.7042 169.692 98.8972C167.75 100.09 165.321 100.634 162.086 99.2282C162.086 99.2282 160.675 98.6661 161.018 94.0566C161.362 89.4472 160.525 88.7976 159.819 88.4354C159.114 88.0731 154.05 90.078 153.669 88.8851C153.288 87.6921 152.913 80.5281 153.381 78.2109Z" fill="white"/>
<path id="Vector_43" d="M200.776 37.4689C200.776 37.4689 201.844 27.2944 196.78 27.082C191.716 26.8697 188.706 25.1271 184.116 27.5317C179.527 29.9364 175.511 36.1385 175.511 36.1385C175.511 36.1385 171.297 34.9955 166.732 38.2059C162.167 41.4163 159.345 46.7378 154.455 53.0648C149.566 59.3919 151.133 67.9487 151.133 67.9487C142.753 77.2613 143.709 83.6883 143.709 83.6883L144.015 95.087C144.208 102.089 151.976 100.777 151.976 100.777C152.008 106.81 153.394 108.709 153.394 108.709C156.454 114.449 167.075 111.539 170.622 109.334C174.169 107.129 177.266 101.895 177.266 101.895C178.398 102.284 179.603 102.414 180.792 102.274C181.981 102.135 183.124 101.73 184.135 101.089C187.682 98.9094 198.11 88.8973 200.77 79.6472C200.77 79.6472 202.019 76.1308 201.719 70.2784C201.719 70.2784 209.306 62.1588 209.119 55.1634L208.813 43.7647C208.813 43.7647 209.381 36.3571 200.776 37.4689Z" fill="url(#paint17_linear_149_551)"/>
<path id="Vector_44" d="M198.828 50.5977C198.26 48.9176 197.792 48.724 196.693 48.9988C195.594 49.2736 191.697 51.4534 191.579 47.0501C191.46 42.6467 192.259 39.7861 191.185 38.8867C190.111 37.9873 186.296 36.4696 181.619 39.8174C181.619 39.8174 178.559 43.2526 178.497 45.32C178.497 46.007 178.497 46.9439 178.497 47.887C178.547 49.7608 178.64 51.6783 178.64 51.6783C184.941 49.3173 189.824 52.8712 190.03 60.6036C190.136 64.4698 189.05 68.7232 187.164 72.7019C185.337 76.6237 182.722 80.1274 179.483 82.995L179.646 88.9286C179.692 89.1929 179.792 89.445 179.939 89.6695C180.086 89.8939 180.277 90.086 180.501 90.234C181.207 90.6087 182.162 91.5144 184.11 90.3214C186.059 89.1285 188.431 86.7176 191.485 81.4523C191.485 81.4523 192.821 79.2038 192.247 75.1565C191.672 71.1092 192.44 69.479 193.108 68.2548C193.777 67.0306 198.81 62.8771 199.122 61.2969C199.434 59.7167 199.397 52.2841 198.828 50.5977Z" fill="white"/>
<path id="Vector_45" d="M153.7 78.3045C154.162 75.9872 154.605 75.2377 155.686 74.1697C156.766 73.1016 160.644 70.5159 160.525 66.1188C160.406 61.7217 159.488 59.9104 160.475 57.7431C161.462 55.5757 165.077 49.4923 169.779 47.0814C169.779 47.0814 172.901 46.7129 173.089 48.6428C173.139 49.2674 173.176 50.2105 173.201 51.1412C173.251 53.0149 173.257 54.9886 173.257 54.9886C167.013 60.3101 162.505 69.6477 162.711 77.3801C162.817 81.2462 164.091 84.0631 166.12 85.6246C168.149 87.1861 170.953 87.4984 174.1 86.3054L174.256 92.239C174.15 93.0456 173.894 93.8252 173.501 94.5374C172.833 95.7866 171.959 97.7915 170.01 98.9845C168.062 100.177 165.639 100.715 162.405 99.3155C162.405 99.3155 160.993 98.7534 161.337 94.1377C161.68 89.522 160.844 88.8849 160.138 88.5164C159.432 88.1479 154.368 90.1653 153.987 88.9724C153.606 87.7794 153.238 80.6217 153.7 78.3045Z" fill="white"/>
<path id="Vector_46" d="M201.101 37.5626C201.101 37.5626 202.163 27.3819 197.098 27.1695C192.034 26.9572 189.024 25.2146 184.441 27.6255C179.858 30.0364 175.836 36.226 175.836 36.226C175.836 36.226 171.646 35.0643 167.05 38.2996C162.454 41.535 159.663 46.8315 154.786 53.1773C149.909 59.5231 151.464 68.0612 151.464 68.0612C143.072 77.3488 144.033 83.782 144.033 83.782L144.339 95.187C144.527 102.189 152.295 100.877 152.295 100.877C152.326 106.904 153.719 108.803 153.719 108.803C156.778 114.543 167.394 111.632 170.941 109.459C174.487 107.285 177.603 101.964 177.603 101.964C178.731 102.348 179.931 102.475 181.114 102.334C182.298 102.193 183.434 101.79 184.441 101.152C187.988 98.9782 198.416 88.9661 201.07 79.716C201.07 79.716 202.319 76.1996 202.025 70.3472C202.025 70.3472 209.612 62.2276 209.425 55.2322L209.113 43.8085C209.113 43.8085 209.737 36.4446 201.101 37.5626Z" fill="url(#paint18_linear_149_551)"/>
<path id="Vector_47" d="M199.121 50.6788C198.553 48.9987 198.085 48.805 196.986 49.0736C195.887 49.3422 191.99 51.5282 191.878 47.1311C191.766 42.7341 192.552 39.8672 191.485 38.9678C190.417 38.0684 186.595 36.5444 181.918 39.8922C181.918 39.8922 178.852 43.3337 178.796 45.3948C178.796 46.0881 178.796 47.0187 178.796 47.9618C178.846 49.8356 178.946 51.7531 178.946 51.7531C185.29 49.4296 190.173 52.9648 190.379 60.6722C190.372 64.8716 189.393 69.0123 187.519 72.7704C185.692 76.6922 183.078 80.196 179.839 83.0636L179.995 88.9972C180.041 89.2624 180.141 89.5152 180.289 89.7398C180.438 89.9644 180.631 90.156 180.857 90.3026C181.562 90.6836 182.518 91.5892 184.46 90.3962C186.402 89.2033 188.781 86.7924 191.84 81.5271C191.84 81.5271 193.17 79.2786 192.596 75.2313C192.022 71.184 192.796 69.5475 193.458 68.3608C194.12 67.1741 199.128 62.9831 199.434 61.3717C199.74 59.7603 199.746 52.3777 199.121 50.6788Z" fill="white"/>
<path id="Vector_48" d="M154.025 78.392C154.487 76.081 154.93 75.3315 156.004 74.2635C157.078 73.1955 160.968 70.6096 160.85 66.2063C160.731 61.803 159.807 59.9979 160.793 57.8306C161.78 55.6633 165.402 49.5861 170.104 47.1752C170.104 47.1752 173.226 46.8004 173.407 48.7366C173.463 49.3612 173.495 50.2981 173.52 51.235C173.576 53.1088 173.582 55.0887 173.582 55.0887C167.338 60.4102 162.829 69.7477 163.035 77.4739C163.135 81.34 164.409 84.1632 166.445 85.7246C168.48 87.2861 171.272 87.5984 174.419 86.3992L174.581 92.339C174.473 93.1462 174.215 93.9259 173.819 94.6375C173.157 95.8554 172.277 97.8853 170.335 99.0783C168.393 100.271 165.964 100.815 162.729 99.4093C162.729 99.4093 161.318 98.8472 161.661 94.2378C162.005 89.6283 161.168 88.9787 160.462 88.6165C159.757 88.2542 154.693 90.2591 154.312 89.0662C153.931 87.8732 153.537 80.7092 154.025 78.392Z" fill="white"/>
<path id="Vector_49" d="M201.419 37.65C201.419 37.65 202.487 27.4755 197.423 27.2632C192.359 27.0508 189.349 25.3082 184.759 27.7129C180.17 30.1175 176.155 36.3134 176.155 36.3134C176.155 36.3134 171.94 35.1704 167.375 38.3808C162.81 41.5912 159.988 46.9314 155.098 53.246C150.209 59.5605 151.776 68.1236 151.776 68.1236C143.396 77.4424 144.352 83.8694 144.352 83.8694L144.658 95.2682C144.851 102.27 152.619 100.958 152.619 100.958C152.651 106.992 154.037 108.89 154.037 108.89C157.097 114.63 167.718 111.72 171.265 109.515C174.812 107.31 177.922 102.02 177.922 102.02C179.045 102.412 180.242 102.549 181.425 102.419C182.608 102.29 183.747 101.897 184.759 101.27C188.306 99.0906 198.734 89.0785 201.394 79.8284C201.394 79.8284 202.643 76.3119 202.35 70.4596C202.35 70.4596 209.937 62.3399 209.743 55.3446L209.437 43.9459C209.437 43.9459 210.024 36.5383 201.419 37.65Z" fill="url(#paint19_linear_149_551)"/>
<path id="Vector_50" d="M199.471 50.7788C198.903 49.0987 198.435 48.9051 197.336 49.1799C196.237 49.4547 192.34 51.6345 192.222 47.2312C192.103 42.8279 192.902 39.9673 191.828 39.0678C190.754 38.1684 186.939 36.6507 182.262 39.9922C182.262 39.9922 179.202 43.4337 179.14 45.5011C179.14 46.1881 179.14 47.125 179.14 48.0681C179.19 49.9419 179.283 51.8594 179.283 51.8594C185.584 49.4985 190.467 53.0523 190.673 60.7847C190.779 64.6509 189.693 68.9043 187.807 72.883C185.989 76.7965 183.385 80.2939 180.157 83.1574L180.32 89.0972C180.366 89.3616 180.466 89.6136 180.613 89.8381C180.76 90.0625 180.951 90.2546 181.175 90.4026C181.881 90.7774 182.843 91.683 184.785 90.4901C186.727 89.2971 189.106 86.8862 192.159 81.6209C192.159 81.6209 193.496 79.3724 192.921 75.3251C192.347 71.2778 193.121 69.6476 193.783 68.4234C194.445 67.1992 199.453 63.0457 199.759 61.4405C200.065 59.8354 200.04 52.4652 199.471 50.7788Z" fill="white"/>
<path id="Vector_51" d="M154.343 78.4856C154.805 76.1684 155.249 75.4189 156.329 74.3508C157.409 73.2828 161.287 70.697 161.168 66.2999C161.05 61.9028 160.132 60.0915 161.118 57.9242C162.105 55.7569 165.72 49.6734 170.422 47.2625C170.422 47.2625 173.545 46.894 173.732 48.824C173.782 49.4486 173.819 50.3917 173.844 51.3223C173.894 53.1961 173.901 55.1698 173.901 55.1698C167.656 60.4913 163.148 69.8288 163.354 77.5612C163.46 81.4274 164.734 84.2443 166.77 85.8057C168.805 87.3672 171.596 87.6795 174.744 86.4865L174.906 92.4201C174.796 93.2266 174.537 94.0059 174.144 94.7186C173.476 95.9678 172.602 97.9727 170.654 99.1657C168.705 100.359 166.282 100.896 163.048 99.4967C163.048 99.4967 161.643 98.9283 161.98 94.3189C162.317 89.7094 161.493 89.0661 160.781 88.6976C160.069 88.3291 155.011 90.3403 154.63 89.1535C154.249 87.9668 153.887 80.8028 154.343 78.4856Z" fill="white"/>
<path id="Vector_52" d="M201.744 37.7375C201.744 37.7375 202.806 27.563 197.742 27.3507C192.678 27.1383 189.668 25.3957 185.084 27.8066C180.501 30.2175 176.48 36.4072 176.48 36.4072C176.48 36.4072 172.258 35.2704 167.694 38.4808C163.129 41.6912 160.313 47.0127 155.411 53.3335C150.509 59.6543 152.089 68.2174 152.089 68.2174C143.709 77.53 144.664 83.957 144.664 83.957L144.97 95.3619C145.158 102.364 152.926 101.052 152.926 101.052C152.926 107.079 154.349 108.978 154.349 108.978C157.409 114.718 168.031 111.807 171.571 109.634C175.112 107.46 178.234 102.139 178.234 102.139C179.362 102.523 180.562 102.649 181.745 102.509C182.928 102.368 184.065 101.964 185.072 101.327C188.619 99.1469 199.047 89.141 201.701 79.8909C201.701 79.8909 202.95 76.3745 202.656 70.5221C202.656 70.5221 210.243 62.4025 210.056 55.4071L209.737 44.0022C209.737 44.0022 210.362 36.6258 201.744 37.7375Z" fill="url(#paint20_linear_149_551)"/>
<path id="Vector_53" d="M199.79 50.8726C199.222 49.1862 198.753 48.9988 197.654 49.2674C196.555 49.5359 192.659 51.722 192.546 47.3249C192.434 42.9278 193.221 40.061 192.153 39.1616C191.085 38.2622 187.257 36.7382 182.587 40.061C182.587 40.061 179.521 43.5024 179.464 45.5636C179.464 46.2506 179.464 47.1875 179.464 48.1306C179.514 50.0044 179.614 51.9219 179.614 51.9219C185.909 49.5609 190.792 53.1211 191.004 60.8472C190.991 65.0467 190.01 69.1867 188.138 72.9454C186.311 76.8673 183.696 80.371 180.457 83.2386L180.613 89.1722C180.659 89.4374 180.76 89.6902 180.908 89.9149C181.056 90.1395 181.249 90.3311 181.475 90.4776C182.181 90.8586 183.136 91.7642 185.084 90.5713C187.033 89.3783 189.399 86.9674 192.459 81.7022C192.459 81.7022 193.795 79.4536 193.221 75.4063C192.646 71.359 193.414 69.7226 194.083 68.5046C194.751 67.2867 199.752 63.1269 200.052 61.5155C200.352 59.9041 200.371 52.5527 199.79 50.8726Z" fill="white"/>
<path id="Vector_54" d="M154.668 78.5732C155.13 76.2622 155.573 75.5127 156.647 74.4446C157.721 73.3766 161.611 70.7908 161.493 66.3875C161.374 61.9842 160.45 60.1791 161.443 58.0118C162.436 55.8445 166.045 49.7672 170.747 47.3563C170.747 47.3563 173.869 46.9816 174.05 48.9178C174.107 49.5424 174.144 50.4793 174.169 51.4161C174.219 53.2899 174.225 55.2699 174.225 55.2699C167.981 60.5913 163.472 69.9289 163.678 77.655C163.785 81.5212 165.052 84.3443 167.088 85.9058C169.124 87.4673 171.915 87.7796 175.068 86.5804L175.224 92.5202C175.117 93.3273 174.858 94.1071 174.462 94.8187C173.801 96.0366 172.92 98.0665 170.978 99.2595C169.036 100.452 166.607 100.996 163.372 99.5905C163.372 99.5905 161.961 99.0284 162.305 94.4189C162.648 89.8095 161.811 89.1599 161.106 88.7977C160.4 88.4354 155.336 90.4403 154.955 89.2474C154.574 88.0544 154.206 80.8904 154.668 78.5732Z" fill="white"/>
<path id="Vector_55" d="M202.069 37.8312C202.069 37.8312 203.13 27.6567 198.066 27.4443C193.002 27.232 189.992 25.4894 185.403 27.894C180.813 30.2987 176.798 36.5008 176.798 36.5008C176.798 36.5008 172.583 35.3578 168.018 38.5682C163.453 41.7786 160.631 47.1 155.742 53.4271C150.852 59.7542 152.426 68.3048 152.426 68.3048C144.04 77.6236 145.001 84.0506 145.001 84.0506L145.307 95.4493C145.495 102.451 153.263 101.139 153.263 101.139C153.294 107.173 154.68 109.072 154.68 109.072C157.746 114.805 168.362 111.901 171.908 109.696C175.455 107.491 178.565 102.201 178.565 102.201C179.693 102.585 180.893 102.712 182.076 102.571C183.259 102.431 184.396 102.027 185.403 101.389C188.949 99.2155 199.378 89.2034 202.038 79.9533C202.038 79.9533 203.287 76.4369 202.993 70.5845C202.993 70.5845 210.58 62.4649 210.393 55.4695L210.08 44.0708C210.08 44.0708 210.667 36.7194 202.069 37.8312Z" fill="url(#paint21_linear_149_551)"/>
<path id="Vector_56" d="M200.115 50.96C199.546 49.2799 199.078 49.0862 197.979 49.3611C196.88 49.6359 192.983 51.8157 192.865 47.4123C192.746 43.009 193.545 40.1484 192.471 39.249C191.397 38.3496 187.582 36.8318 182.905 40.1734C182.905 40.1734 179.845 43.6149 179.783 45.6822C179.783 46.3693 179.783 47.3062 179.783 48.2493C179.833 50.123 179.933 52.0405 179.933 52.0405C186.227 49.6796 191.11 53.2335 191.316 60.9659C191.324 65.1613 190.362 69.3019 188.506 73.0641C186.678 76.9854 184.062 80.4873 180.819 83.351L180.982 89.2909C181.028 89.5552 181.128 89.8073 181.275 90.0317C181.422 90.2562 181.613 90.4483 181.837 90.5963C182.549 90.971 183.504 91.8454 185.446 90.6837C187.388 89.522 189.767 87.0798 192.821 81.8146C192.821 81.8146 194.157 79.566 193.583 75.5187C193.008 71.4714 193.783 69.8412 194.445 68.6483C195.106 67.4553 200.114 63.2706 200.42 61.6592C200.726 60.0477 200.683 52.6464 200.115 50.96Z" fill="white"/>
<path id="Vector_57" d="M154.992 78.6667C155.448 76.3495 155.898 75.6 156.972 74.532C158.046 73.4639 161.93 70.8781 161.811 66.4811C161.693 62.084 160.775 60.2727 161.761 58.1054C162.748 55.9381 166.364 49.8546 171.066 47.4437C171.066 47.4437 174.188 47.0752 174.375 49.0051C174.425 49.6297 174.463 50.5728 174.488 51.5035C174.537 53.3772 174.544 55.3509 174.544 55.3509C168.331 60.6724 163.791 70.01 163.997 77.7423C164.103 81.6085 165.377 84.4254 167.413 85.9869C169.448 87.5484 172.24 87.8606 175.387 86.6677L175.549 92.6013C175.439 93.4078 175.18 94.187 174.787 94.8997C174.119 96.1489 173.245 98.1539 171.303 99.3468C169.361 100.54 166.932 101.077 163.691 99.6778C163.691 99.6778 162.286 99.1095 162.623 94.5C162.96 89.8906 162.136 89.2472 161.424 88.8787C160.712 88.5102 155.654 90.5214 155.28 89.3347C154.905 88.148 154.53 80.984 154.992 78.6667Z" fill="white"/>
<path id="Vector_58" d="M202.388 37.9187C202.388 37.9187 203.449 27.7442 198.391 27.5318C193.333 27.3195 190.311 25.5769 185.728 27.9878C181.144 30.3987 177.123 36.5883 177.123 36.5883C177.123 36.5883 172.908 35.4516 168.343 38.662C163.779 41.8723 160.956 47.1938 156.067 53.5146C151.177 59.8354 152.745 68.3985 152.745 68.3985C144.365 77.7111 145.32 84.1381 145.32 84.1381L145.626 95.543C145.813 102.545 153.588 101.233 153.588 101.233C153.619 107.26 155.005 109.159 155.005 109.159C158.065 114.899 168.687 111.988 172.227 109.815C175.768 107.641 178.89 102.32 178.89 102.32C180.018 102.704 181.218 102.831 182.401 102.69C183.584 102.55 184.721 102.146 185.728 101.508C189.274 99.328 199.703 89.3159 202.363 80.072C202.363 80.072 203.612 76.5556 203.312 70.7032C203.312 70.7032 210.899 62.5836 210.711 55.5882L210.406 44.1833C210.406 44.1833 210.986 36.8069 202.388 37.9187Z" fill="url(#paint22_linear_149_551)"/>
<path id="Vector_59" d="M200.433 51.0537C199.865 49.3673 199.396 49.1799 198.297 49.4485C197.198 49.717 193.302 51.9031 193.189 47.506C193.077 43.1089 193.87 40.2421 192.796 39.3427C191.722 38.4433 187.882 36.938 183.23 40.267C183.23 40.267 180.164 43.7085 180.107 45.7697C180.107 46.4567 180.107 47.3936 180.107 48.3367C180.157 50.2105 180.257 52.128 180.257 52.128C186.558 49.767 191.435 53.3271 191.647 61.0533C191.644 65.255 190.672 69.3994 188.806 73.164C186.979 77.0859 184.364 80.5896 181.125 83.4572L181.288 89.3908C181.332 89.6558 181.431 89.9088 181.578 90.1335C181.725 90.3582 181.918 90.5499 182.143 90.6962C182.849 91.0772 183.804 91.9828 185.752 90.7836C187.701 89.5844 190.074 87.186 193.127 81.9207C193.127 81.9207 194.463 79.6722 193.889 75.6249C193.314 71.5776 194.082 69.9412 194.751 68.7232C195.419 67.5053 200.42 63.3455 200.72 61.7341C201.02 60.1227 200.995 52.74 200.433 51.0537Z" fill="white"/>
<path id="Vector_60" d="M155.311 78.7856C155.773 76.4684 156.216 75.7251 157.29 74.6571C158.364 73.589 162.255 71.0032 162.136 66.5999C162.017 62.1966 161.093 60.3915 162.086 58.2242C163.079 56.0569 166.688 49.9796 171.39 47.5687C171.39 47.5687 174.512 47.194 174.693 49.1302C174.75 49.7548 174.787 50.6917 174.812 51.6285C174.862 53.5023 174.868 55.4823 174.868 55.4823C168.624 60.8037 164.115 70.1413 164.321 77.8674C164.428 81.7336 165.695 84.5568 167.731 86.1182C169.767 87.6797 172.558 87.992 175.711 86.7928L175.867 92.7326C175.76 93.5397 175.501 94.3195 175.106 95.0311C174.444 96.249 173.569 98.2789 171.621 99.4719C169.673 100.665 167.25 101.208 164.015 99.8029C164.015 99.8029 162.604 99.2408 162.948 94.6313C163.291 90.0219 162.454 89.3723 161.749 89.0101C161.043 88.6478 155.979 90.659 155.598 89.466C155.217 88.2731 154.849 81.0716 155.311 78.7856Z" fill="white"/>
<path id="Vector_61" d="M202.712 38.0121C202.712 38.0121 203.774 27.8376 198.709 27.6252C193.645 27.4129 190.635 25.664 186.046 28.0749C181.456 30.4858 177.441 36.6817 177.441 36.6817C177.441 36.6817 173.226 35.5387 168.661 38.7491C164.097 41.9595 161.274 47.281 156.391 53.608C151.508 59.9351 153.069 68.4857 153.069 68.4857C144.683 77.8045 145.644 84.2315 145.644 84.2315L145.95 95.6302C146.138 102.632 153.906 101.32 153.906 101.32C153.937 107.354 155.323 109.252 155.323 109.252C158.389 114.986 169.005 112.082 172.551 109.877C176.098 107.672 179.208 102.382 179.208 102.382C180.341 102.77 181.546 102.899 182.735 102.758C183.924 102.618 185.066 102.212 186.077 101.57C189.617 99.3965 200.046 89.3844 202.706 80.1342C202.706 80.1342 203.955 76.6178 203.661 70.7654C203.661 70.7654 211.248 62.6458 211.061 55.6504L210.755 44.2517C210.755 44.2517 211.311 36.9004 202.712 38.0121Z" fill="url(#paint23_linear_149_551)"/>
<path id="Vector_62" d="M200.758 51.1411C200.189 49.461 199.721 49.2674 198.622 49.536C197.523 49.8045 193.626 51.9968 193.514 47.5935C193.402 43.1902 194.188 40.3296 193.121 39.4302C192.053 38.5307 188.225 37.013 183.548 40.3545C183.548 40.3545 180.488 43.796 180.426 45.8634C180.426 46.5504 180.426 47.4873 180.426 48.4304C180.476 50.3042 180.576 52.2217 180.576 52.2217C186.87 49.8608 191.753 53.4147 191.959 61.147C191.961 65.344 190.993 69.4846 189.13 73.2453C187.303 77.1649 184.688 80.6664 181.45 83.5322L181.606 89.472C181.652 89.7363 181.752 89.9884 181.899 90.2129C182.046 90.4373 182.238 90.6294 182.461 90.7774C183.173 91.1522 184.129 92.0578 186.071 90.8648C188.013 89.6719 190.392 87.261 193.452 81.9957C193.452 81.9957 194.782 79.7472 194.207 75.6999C193.633 71.6526 194.407 70.0224 195.069 68.7982C195.731 67.574 200.739 63.4205 201.045 61.8091C201.351 60.1977 201.326 52.8275 200.758 51.1411Z" fill="white"/>
<path id="Vector_63" d="M155.636 78.8479C156.098 76.5307 156.541 75.7812 157.615 74.7131C158.689 73.6451 162.573 71.0593 162.461 66.656C162.348 62.2526 161.418 60.4538 162.405 58.2865C163.391 56.1192 167.007 50.0357 171.709 47.6248C171.709 47.6248 174.831 47.2563 175.018 49.1863C175.068 49.8109 175.106 50.754 175.131 51.6846C175.181 53.5584 175.187 55.5321 175.187 55.5321C168.974 60.8536 164.434 70.1911 164.646 77.9235C164.746 81.7897 166.02 84.6066 168.056 86.1681C170.091 87.7295 172.883 88.0418 176.03 86.8489L176.192 92.7824C176.081 93.5888 175.823 94.3678 175.43 95.0809C174.768 96.3301 173.888 98.335 171.946 99.528C170.004 100.721 167.575 101.258 164.34 99.859C164.34 99.859 162.929 99.2906 163.266 94.6812C163.603 90.0717 162.779 89.4284 162.067 89.0599C161.355 88.6914 156.297 90.7026 155.923 89.5158C155.548 88.3291 155.173 81.1651 155.636 78.8479Z" fill="white"/>
</g>
<defs>
<filter id="filter0_d_149_551" x="139.859" y="124.449" width="138.694" height="128.726" filterUnits="userSpaceOnUse" color-interpolation-filters="sRGB">
<feFlood flood-opacity="0" result="BackgroundImageFix"/>
<feColorMatrix in="SourceAlpha" type="matrix" values="0 0 0 0 0 0 0 0 0 0 0 0 0 0 0 0 0 0 127 0" result="hardAlpha"/>
<feOffset dy="18"/>
<feGaussianBlur stdDeviation="8.5"/>
<feComposite in2="hardAlpha" operator="out"/>
<feColorMatrix type="matrix" values="0 0 0 0 0.0753472 0 0 0 0 0.3395 0 0 0 0 0.583333 0 0 0 0.91 0"/>
<feBlend mode="normal" in2="BackgroundImageFix" result="effect1_dropShadow_149_551"/>
<feBlend mode="normal" in="SourceGraphic" in2="effect1_dropShadow_149_551" result="shape"/>
</filter>
<filter id="filter1_d_149_551" x="95.5552" y="6.38086" width="152.232" height="173.506" filterUnits="userSpaceOnUse" color-interpolation-filters="sRGB">
<feFlood flood-opacity="0" result="BackgroundImageFix"/>
<feColorMatrix in="SourceAlpha" type="matrix" values="0 0 0 0 0 0 0 0 0 0 0 0 0 0 0 0 0 0 127 0" result="hardAlpha"/>
<feOffset dy="27"/>
<feGaussianBlur stdDeviation="12"/>
<feComposite in2="hardAlpha" operator="out"/>
<feColorMatrix type="matrix" values="0 0 0 0 1 0 0 0 0 0.686274 0 0 0 0 0.0627451 0 0 0 0.25 0"/>
<feBlend mode="normal" in2="BackgroundImageFix" result="effect1_dropShadow_149_551"/>
<feBlend mode="normal" in="SourceGraphic" in2="effect1_dropShadow_149_551" result="shape"/>
</filter>
<filter id="filter2_d_149_551" x="35.4468" y="124.18" width="138.413" height="128.775" filterUnits="userSpaceOnUse" color-interpolation-filters="sRGB">
<feFlood flood-opacity="0" result="BackgroundImageFix"/>
<feColorMatrix in="SourceAlpha" type="matrix" values="0 0 0 0 0 0 0 0 0 0 0 0 0 0 0 0 0 0 127 0" result="hardAlpha"/>
<feOffset dy="18"/>
<feGaussianBlur stdDeviation="8.5"/>
<feComposite in2="hardAlpha" operator="out"/>
<feColorMatrix type="matrix" values="0 0 0 0 0.0753472 0 0 0 0 0.3395 0 0 0 0 0.583333 0 0 0 0.91 0"/>
<feBlend mode="normal" in2="BackgroundImageFix" result="effect1_dropShadow_149_551"/>
<feBlend mode="normal" in="SourceGraphic" in2="effect1_dropShadow_149_551" result="shape"/>
</filter>
<filter id="filter3_d_149_551" x="120.148" y="10.2739" width="95.4277" height="115.788" filterUnits="userSpaceOnUse" color-interpolation-filters="sRGB">
<feFlood flood-opacity="0" result="BackgroundImageFix"/>
<feColorMatrix in="SourceAlpha" type="matrix" values="0 0 0 0 0 0 0 0 0 0 0 0 0 0 0 0 0 0 127 0" result="hardAlpha"/>
<feOffset dx="-5"/>
<feGaussianBlur stdDeviation="7.5"/>
<feComposite in2="hardAlpha" operator="out"/>
<feColorMatrix type="matrix" values="0 0 0 0 0.976471 0 0 0 0 0.47451 0 0 0 0 0.0980392 0 0 0 1 0"/>
<feBlend mode="normal" in2="BackgroundImageFix" result="effect1_dropShadow_149_551"/>
<feBlend mode="normal" in="SourceGraphic" in2="effect1_dropShadow_149_551" result="shape"/>
</filter>
<linearGradient id="paint0_linear_149_551" x1="0" y1="162.692" x2="314" y2="162.692" gradientUnits="userSpaceOnUse">
<stop stop-color="#66BEE1"/>
<stop offset="1" stop-color="#1688DD"/>
</linearGradient>
<linearGradient id="paint1_linear_149_551" x1="156.785" y1="283.725" x2="314" y2="283.725" gradientUnits="userSpaceOnUse">
<stop stop-color="#134E95"/>
<stop offset="1" stop-color="#3192DD"/>
</linearGradient>
<linearGradient id="paint2_linear_149_551" x1="0" y1="283.537" x2="156.997" y2="283.537" gradientUnits="userSpaceOnUse">
<stop stop-color="#45B3E1"/>
<stop offset="1" stop-color="#3192DD"/>
</linearGradient>
<linearGradient id="paint3_linear_149_551" x1="26455.9" y1="25832.4" x2="44008.9" y2="25832.4" gradientUnits="userSpaceOnUse">
<stop stop-color="#134E95"/>
<stop offset="1" stop-color="#3192DD"/>
</linearGradient>
<linearGradient id="paint4_linear_149_551" x1="17615.3" y1="24242.5" x2="87638.8" y2="24242.5" gradientUnits="userSpaceOnUse">
<stop stop-color="#66BEE1"/>
<stop offset="1" stop-color="#1688DD"/>
</linearGradient>
<linearGradient id="paint5_linear_149_551" x1="8822.07" y1="25809.3" x2="26280.9" y2="25809.3" gradientUnits="userSpaceOnUse">
<stop stop-color="#45B3E1"/>
<stop offset="1" stop-color="#3192DD"/>
</linearGradient>
<linearGradient id="paint6_linear_149_551" x1="122.681" y1="98.5612" x2="219.097" y2="96.0466" gradientUnits="userSpaceOnUse">
<stop stop-color="#F15A24"/>
<stop offset="1" stop-color="#FCEE21"/>
</linearGradient>
<linearGradient id="paint7_linear_149_551" x1="123.002" y1="98.6493" x2="219.418" y2="96.1347" gradientUnits="userSpaceOnUse">
<stop stop-color="#F26324"/>
<stop offset="1" stop-color="#FBE521"/>
</linearGradient>
<linearGradient id="paint8_linear_149_551" x1="123.322" y1="98.7379" x2="219.738" y2="96.2233" gradientUnits="userSpaceOnUse">
<stop stop-color="#F26B24"/>
<stop offset="1" stop-color="#FBDD21"/>
</linearGradient>
<linearGradient id="paint9_linear_149_551" x1="123.643" y1="98.8335" x2="220.059" y2="96.3189" gradientUnits="userSpaceOnUse">
<stop stop-color="#F37423"/>
<stop offset="1" stop-color="#FAD422"/>
</linearGradient>
<linearGradient id="paint10_linear_149_551" x1="123.963" y1="98.9221" x2="220.379" y2="96.4075" gradientUnits="userSpaceOnUse">
<stop stop-color="#F47D23"/>
<stop offset="1" stop-color="#F9CB22"/>
</linearGradient>
<linearGradient id="paint11_linear_149_551" x1="124.289" y1="99.0075" x2="220.699" y2="96.4931" gradientUnits="userSpaceOnUse">
<stop stop-color="#F48623"/>
<stop offset="1" stop-color="#F9C222"/>
</linearGradient>
<linearGradient id="paint12_linear_149_551" x1="124.61" y1="99.1031" x2="221.02" y2="96.5886" gradientUnits="userSpaceOnUse">
<stop stop-color="#F58E23"/>
<stop offset="1" stop-color="#F8BA22"/>
</linearGradient>
<linearGradient id="paint13_linear_149_551" x1="124.93" y1="99.1915" x2="221.346" y2="96.6769" gradientUnits="userSpaceOnUse">
<stop stop-color="#F69723"/>
<stop offset="1" stop-color="#F7B122"/>
</linearGradient>
<linearGradient id="paint14_linear_149_551" x1="125.251" y1="99.2801" x2="221.667" y2="96.7655" gradientUnits="userSpaceOnUse">
<stop stop-color="#F6A023"/>
<stop offset="1" stop-color="#F7A822"/>
</linearGradient>
<linearGradient id="paint15_linear_149_551" x1="125.571" y1="99.3758" x2="221.987" y2="96.8611" gradientUnits="userSpaceOnUse">
<stop stop-color="#F7A822"/>
<stop offset="1" stop-color="#F6A023"/>
</linearGradient>
<linearGradient id="paint16_linear_149_551" x1="125.892" y1="99.4643" x2="222.308" y2="96.9497" gradientUnits="userSpaceOnUse">
<stop stop-color="#F7B122"/>
<stop offset="1" stop-color="#F69723"/>
</linearGradient>
<linearGradient id="paint17_linear_149_551" x1="126.212" y1="99.5528" x2="222.628" y2="97.0382" gradientUnits="userSpaceOnUse">
<stop stop-color="#F8BA22"/>
<stop offset="1" stop-color="#F58E23"/>
</linearGradient>
<linearGradient id="paint18_linear_149_551" x1="126.533" y1="99.6485" x2="222.949" y2="97.1339" gradientUnits="userSpaceOnUse">
<stop stop-color="#F9C222"/>
<stop offset="1" stop-color="#F48623"/>
</linearGradient>
<linearGradient id="paint19_linear_149_551" x1="126.853" y1="99.737" x2="223.269" y2="97.2224" gradientUnits="userSpaceOnUse">
<stop stop-color="#F9CB22"/>
<stop offset="1" stop-color="#F47D23"/>
</linearGradient>
<linearGradient id="paint20_linear_149_551" x1="127.174" y1="99.8256" x2="223.59" y2="97.311" gradientUnits="userSpaceOnUse">
<stop stop-color="#FAD422"/>
<stop offset="1" stop-color="#F37423"/>
</linearGradient>
<linearGradient id="paint21_linear_149_551" x1="127.494" y1="99.914" x2="223.91" y2="97.3994" gradientUnits="userSpaceOnUse">
<stop stop-color="#FBDD21"/>
<stop offset="1" stop-color="#F26B24"/>
</linearGradient>
<linearGradient id="paint22_linear_149_551" x1="127.815" y1="100.01" x2="224.231" y2="97.4952" gradientUnits="userSpaceOnUse">
<stop stop-color="#FBE521"/>
<stop offset="1" stop-color="#F26324"/>
</linearGradient>
<linearGradient id="paint23_linear_149_551" x1="128.135" y1="100.098" x2="224.551" y2="97.5834" gradientUnits="userSpaceOnUse">
<stop stop-color="#FCEE21"/>
<stop offset="1" stop-color="#F15A24"/>
</linearGradient>
<clipPath id="clip0_149_551">
<rect width="314" height="406" fill="white"/>
</clipPath>
</defs>
</svg>
