<svg width="248" height="365" viewBox="0 0 248 365" fill="none" xmlns="http://www.w3.org/2000/svg">
<g id="ilustr.webinsegura 2" clip-path="url(#clip0_117_334)">
<g id="Capa 3">
<path id="Vector" d="M248 163.124V320.021C248.006 321.139 247.725 322.24 247.183 323.218C246.641 324.196 245.857 325.018 244.905 325.607L244.853 325.634L244.45 325.867H244.432L230.408 333.846C231.338 333.255 232.103 332.439 232.631 331.473C233.16 330.507 233.435 329.424 233.43 328.323V171.513L248 163.124Z" fill="#CACCCA"/>
<path id="Vector_2" d="M247.208 130.263L232.656 138.631C232.079 137.526 231.198 136.609 230.117 135.988L14.9238 11.8925L10.2514 9.19345C9.31379 8.64553 8.25409 8.33986 7.1683 8.30411C6.08251 8.26837 5.00495 8.50369 4.0332 8.98876L17.8662 1.12397L18.686 0.65909C19.6519 0.188507 20.7192 -0.0365081 21.7931 0.00404249C22.867 0.044593 23.9142 0.349453 24.8417 0.89153L244.7 127.686C245.76 128.295 246.628 129.188 247.208 130.263Z" fill="#CECECE"/>
<path id="Vector_3" d="M248 133.393V163.124L233.431 171.513V141.695C233.43 140.627 233.17 139.576 232.673 138.631L247.225 130.263C247.741 131.226 248.007 132.301 248 133.393Z" fill="#898585"/>
<path id="Vector_4" d="M233.431 171.513V328.323C233.437 329.423 233.165 330.506 232.64 331.472C232.115 332.439 231.353 333.256 230.426 333.849L230.394 333.87L229.8 334.217C228.827 334.715 227.744 334.96 226.652 334.929C225.559 334.899 224.491 334.594 223.547 334.044L3.30019 207.09C2.295 206.51 1.46062 205.676 0.881208 204.672C0.301796 203.668 -0.00215704 202.528 1.15229e-05 201.369L0.312664 37.1071L233.431 171.513Z" fill="#F9F9F9"/>
<path id="Vector_5" d="M233.431 141.695V171.513L0.333496 37.1105L0.375181 14.9073C0.364513 13.8041 0.63466 12.7164 1.16026 11.746C1.68587 10.7757 2.4497 9.95468 3.38009 9.35994L4.03317 8.98873C5.00492 8.50366 6.08248 8.26834 7.16827 8.30408C8.25406 8.33982 9.31376 8.64549 10.2514 9.19341L14.9238 11.8925L230.113 135.988C231.119 136.564 231.956 137.395 232.538 138.397C233.121 139.399 233.429 140.536 233.431 141.695Z" fill="#BFBFBF"/>
<path id="Vector_6" d="M219.035 145.924V149.445C219.035 149.989 218.892 150.523 218.619 150.993C218.347 151.464 217.956 151.855 217.484 152.126C217.012 152.398 216.478 152.54 215.933 152.54C215.389 152.539 214.854 152.396 214.383 152.123L16.6782 37.6969C16.2085 37.4245 15.8186 37.0338 15.5473 36.5638C15.2761 36.0939 15.133 35.5611 15.1323 35.0186V32.0247C15.1313 31.4803 15.2741 30.9453 15.5463 30.4736C15.8185 30.002 16.2105 29.6104 16.6827 29.3383C17.1548 29.0663 17.6905 28.9235 18.2356 28.9243C18.7807 28.9251 19.316 29.0695 19.7873 29.3429L217.486 143.245C217.957 143.516 218.348 143.907 218.62 144.377C218.892 144.847 219.035 145.381 219.035 145.924Z" fill="#F2F2F2"/>
<path id="Vector_7" d="M219.035 314.626L9.98389 194.441V59.5081L218.823 179.388L219.035 314.626Z" fill="#272728"/>
<path id="Vector_8" d="M16.1707 189.935L13.7563 187.444L29.5382 172.172L35.5237 182.198L59.2919 160.245L68.7721 180.346L107.853 157.813L154.716 172.009L161.813 184.221L213.786 181.06L213.998 184.522L159.885 187.815L152.395 174.93L108.287 161.566L67.2402 185.234L58.1699 166.004L34.7316 187.652L28.8017 177.712L16.1707 189.935Z" fill="#FB941A"/>
<path id="Vector_9" d="M231.26 142.718V139.811C231.26 139.51 231.18 139.214 231.03 138.953C230.879 138.693 230.662 138.476 230.402 138.326L227.873 136.862C227.61 136.717 227.315 136.642 227.015 136.645C226.716 136.648 226.422 136.728 226.162 136.878C225.903 137.028 225.687 137.242 225.535 137.5C225.383 137.758 225.3 138.051 225.295 138.35V141.254C225.297 141.555 225.377 141.851 225.528 142.112C225.679 142.373 225.896 142.59 226.156 142.742L228.675 144.196C228.937 144.342 229.232 144.418 229.532 144.417C229.831 144.415 230.126 144.336 230.386 144.187C230.646 144.039 230.863 143.825 231.017 143.568C231.17 143.31 231.253 143.017 231.26 142.718Z" fill="#F94675"/>
<path id="Vector_10" d="M224.781 138.923V136.015C224.781 135.714 224.702 135.419 224.551 135.158C224.4 134.898 224.184 134.681 223.923 134.531L221.401 133.077C221.139 132.936 220.845 132.865 220.548 132.87C220.251 132.875 219.96 132.956 219.703 133.105C219.446 133.254 219.232 133.467 219.081 133.723C218.93 133.978 218.847 134.269 218.84 134.565V137.469C218.842 137.77 218.922 138.066 219.072 138.327C219.222 138.588 219.438 138.805 219.698 138.957L222.22 140.408C222.481 140.555 222.775 140.631 223.075 140.629C223.374 140.627 223.668 140.548 223.926 140.397C224.185 140.247 224.4 140.032 224.55 139.774C224.7 139.515 224.779 139.222 224.781 138.923Z" fill="#FCF242"/>
<path id="Vector_11" d="M218.298 135.138V132.231C218.299 131.93 218.219 131.634 218.069 131.373C217.918 131.113 217.701 130.896 217.44 130.746L214.922 129.292C214.66 129.147 214.365 129.073 214.065 129.075C213.766 129.078 213.472 129.158 213.213 129.307C212.954 129.457 212.737 129.67 212.585 129.928C212.433 130.186 212.35 130.478 212.344 130.777V133.698C212.346 133.999 212.425 134.295 212.576 134.556C212.726 134.817 212.942 135.034 213.202 135.186L215.724 136.637C215.986 136.788 216.284 136.867 216.586 136.866C216.888 136.866 217.185 136.785 217.447 136.633C217.708 136.481 217.924 136.262 218.074 136C218.224 135.737 218.301 135.44 218.298 135.138Z" fill="#78F991"/>
</g>
<g id="Capa 4">
<path id="Vector_12" d="M189.646 297.731V365L131.292 331.355V263.844L131.542 263.989L160.469 280.787L189.59 297.696L189.646 297.731Z" fill="#F4315B"/>
<path id="Vector_13" d="M218.823 281.034V348.067L189.645 365V297.731L189.59 297.697L218.823 281.034Z" fill="#C91141"/>
<path id="Vector_14" d="M218.823 280.968V281.204L189.59 297.866L160.468 280.957L131.542 264.159L160.468 247.371V247.163L218.823 280.968Z" fill="#F94675"/>
<path id="Vector_15" d="M160.546 247.156L160.469 247.202" stroke="#FB941A" stroke-miterlimit="10"/>
<path id="Vector_16" d="M131.541 263.989L131.368 264.09" stroke="#FB941A" stroke-miterlimit="10"/>
<path id="Vector_17" d="M194.176 287.296C192.702 287.296 191.288 286.711 190.246 285.67C189.203 284.629 188.618 283.217 188.618 281.745V261.12C188.614 258.927 188.035 256.773 186.938 254.873C185.841 252.973 184.264 251.394 182.365 250.293L167.84 241.918C167.377 241.651 166.851 241.511 166.317 241.512C165.782 241.512 165.257 241.653 164.793 241.92C164.33 242.187 163.946 242.571 163.678 243.034C163.41 243.496 163.269 244.02 163.269 244.554V263.313C163.269 264.785 162.683 266.197 161.641 267.238C160.598 268.279 159.185 268.864 157.711 268.864C156.236 268.864 154.823 268.279 153.78 267.238C152.738 266.197 152.152 264.785 152.152 263.313V244.554C152.153 242.072 152.808 239.633 154.051 237.483C155.295 235.333 157.083 233.548 159.236 232.306C161.389 231.065 163.831 230.411 166.317 230.411C168.803 230.411 171.245 231.064 173.399 232.305L187.923 240.679C191.51 242.757 194.489 245.738 196.561 249.325C198.634 252.912 199.728 256.979 199.734 261.12V281.745C199.734 283.217 199.148 284.629 198.106 285.67C197.064 286.711 195.65 287.296 194.176 287.296Z" fill="#F4315B"/>
<path id="Vector_18" d="M164.102 315.442L176.487 308.302C177.086 307.957 177.523 307.388 177.702 306.722C177.881 306.055 177.787 305.344 177.442 304.746C177.096 304.148 176.527 303.711 175.859 303.533C175.192 303.354 174.48 303.447 173.881 303.792L161.497 310.932L148.175 287.892C148.004 287.596 147.776 287.337 147.504 287.128C147.233 286.92 146.923 286.767 146.592 286.679C146.261 286.59 145.917 286.568 145.577 286.612C145.238 286.657 144.91 286.767 144.614 286.938C144.317 287.109 144.057 287.337 143.849 287.608C143.64 287.879 143.487 288.189 143.399 288.519C143.31 288.849 143.287 289.193 143.332 289.532C143.376 289.871 143.487 290.198 143.659 290.494L156.981 313.534L144.576 320.691C143.977 321.036 143.54 321.604 143.361 322.271C143.181 322.938 143.275 323.649 143.62 324.247C143.966 324.845 144.535 325.281 145.203 325.46C145.871 325.639 146.582 325.546 147.181 325.201L159.59 318.047L172.926 341.114C173.097 341.41 173.325 341.67 173.596 341.878C173.868 342.086 174.178 342.239 174.508 342.328C174.839 342.416 175.184 342.439 175.523 342.394C175.863 342.35 176.19 342.239 176.487 342.068C176.783 341.897 177.043 341.67 177.252 341.399C177.46 341.127 177.613 340.818 177.702 340.488C177.79 340.158 177.813 339.813 177.769 339.474C177.724 339.135 177.613 338.808 177.442 338.512L164.102 315.442Z" fill="white"/>
</g>
<g id="Capa 5">
<path id="Vector_19" d="M163.123 172.616L159.204 174.829L157.474 173.806L153.556 171.485L157.474 169.268L163.109 172.606L163.123 172.616Z" fill="#F94675"/>
<path id="Vector_20" d="M163.123 172.616V195.811L159.205 198.028V174.829L163.123 172.616Z" fill="#C91141"/>
<path id="Vector_21" d="M159.204 174.829V198.028L153.556 194.771V171.485L157.474 173.806L159.204 174.829Z" fill="#F4315B"/>
<path id="Vector_22" d="M32.6164 170.94L28.6978 173.157L26.9678 172.13L23.0493 169.81L26.9678 167.593L32.6025 170.93L32.6164 170.94Z" fill="#78F991"/>
<path id="Vector_23" d="M32.6163 170.94V194.136L28.6978 196.353V173.157L32.6163 170.94Z" fill="#10BF31"/>
<path id="Vector_24" d="M28.6978 173.157V196.353L23.0493 193.095V169.81L26.9678 172.131L28.6978 173.157Z" fill="#33F25C"/>
<path id="Vector_25" d="M170.731 174.986L166.812 177.202L165.082 176.176L161.164 173.855L165.082 171.638L170.717 174.975L170.731 174.986Z" fill="#78F991"/>
<path id="Vector_26" d="M170.73 174.986V198.181L166.812 200.398V177.202L170.73 174.986Z" fill="#10BF31"/>
<path id="Vector_27" d="M166.812 177.202V200.398L161.164 197.14V173.855L165.082 176.176L166.812 177.202Z" fill="#33F25C"/>
<path id="Vector_28" d="M63.9958 159.908L60.0772 162.125L58.3472 161.098L54.4287 158.777L58.3472 156.56L63.9819 159.898L63.9958 159.908Z" fill="#78F991"/>
<path id="Vector_29" d="M63.9957 159.908V183.104L60.0771 185.32V162.125L63.9957 159.908Z" fill="#10BF31"/>
<path id="Vector_30" d="M60.0772 162.125V185.321L54.4287 182.063V158.777L58.3472 161.098L60.0772 162.125Z" fill="#33F25C"/>
<path id="Vector_31" d="M93.5514 163.155L89.6329 165.372L87.9029 164.345L83.9844 162.024L87.9029 159.808L93.5375 163.145L93.5514 163.155Z" fill="#78F991"/>
<path id="Vector_32" d="M93.5518 163.156V186.351L89.6333 188.568V165.372L93.5518 163.156Z" fill="#10BF31"/>
<path id="Vector_33" d="M89.6329 165.372V188.568L83.9844 185.31V162.025L87.9029 164.345L89.6329 165.372Z" fill="#33F25C"/>
<path id="Vector_34" d="M130.402 161.261L126.487 163.478L124.757 162.451L120.839 160.13L124.757 157.913L130.392 161.251L130.402 161.261Z" fill="#78F991"/>
<path id="Vector_35" d="M130.402 161.161V170.618L126.487 172.835V163.377L130.402 161.161Z" fill="#10BF31"/>
<path id="Vector_36" d="M126.487 163.412V172.835L120.839 169.577V160.064L124.757 162.385L126.487 163.412Z" fill="#33F25C"/>
<path id="Vector_37" d="M208.992 181.903L205.073 184.12L203.343 183.093L199.425 180.772L203.343 178.556L208.978 181.893L208.992 181.903Z" fill="#78F991"/>
<path id="Vector_38" d="M208.992 181.803V191.26L205.073 193.477V184.02L208.992 181.803Z" fill="#10BF31"/>
<path id="Vector_39" d="M205.073 184.058V193.477L199.425 190.219V180.71L203.343 183.031L205.073 184.058Z" fill="#33F25C"/>
<path id="Vector_40" d="M41.2839 175.898L37.3653 178.115L35.6353 177.088L31.7168 174.767L35.6353 172.554L41.27 175.891L41.2839 175.898Z" fill="#F94675"/>
<path id="Vector_41" d="M41.2838 175.898V192.526L37.3652 194.743V178.115L41.2838 175.898Z" fill="#C91141"/>
<path id="Vector_42" d="M37.3653 178.115V194.743L31.7168 191.485V174.767L35.6353 177.088L37.3653 178.115Z" fill="#F4315B"/>
<path id="Vector_43" d="M71.6037 172.55L67.6851 174.767L65.9552 173.74L62.0366 171.419L65.9552 169.202L71.5898 172.54L71.6037 172.55Z" fill="#F94675"/>
<path id="Vector_44" d="M71.6036 172.55V189.175L67.6851 191.392V174.767L71.6036 172.55Z" fill="#C91141"/>
<path id="Vector_45" d="M67.6852 174.767V191.392L62.0366 188.134V171.419L65.9552 173.74L67.6852 174.767Z" fill="#F4315B"/>
</g>
</g>
<defs>
<clipPath id="clip0_117_334">
<rect width="248" height="365" fill="white"/>
</clipPath>
</defs>
</svg>
