<svg width="517" height="358" viewBox="0 0 517 358" fill="none" xmlns="http://www.w3.org/2000/svg">
<g id="ilust.graficFunds 1">
<path id="Vector" d="M100 194.449V238C70.4169 220.162 56.072 189.197 57.0465 158.675V121C57.2518 127.346 58.1208 133.653 59.6394 139.817C62.4113 151.164 67.4089 161.841 74.3394 171.222C81.2699 180.603 89.9938 188.5 100 194.449V194.449Z" fill="url(#paint0_linear_2_2)"/>
<path id="Vector_2" d="M370.673 251.949C330.316 275.219 284.603 287.64 238 288V244.753C284.603 244.387 330.314 231.959 370.667 208.684V208.684C393.012 195.803 406.913 175.615 412.359 153.644C413.956 147.213 414.833 140.624 414.974 134L414.864 170.358C416.592 201.766 401.856 233.967 370.673 251.949Z" fill="url(#paint1_linear_2_2)"/>
<path id="Vector_3" d="M238 261.801V304.99C190.048 305.396 142.861 292.963 101.336 268.982C100.885 268.722 100.439 268.461 100 268.195V225C100.439 225.266 100.885 225.526 101.336 225.786C142.862 249.765 190.048 262.199 238 261.801V261.801Z" fill="url(#paint2_linear_2_2)"/>
<path id="Vector_4" d="M414.979 134.316V134.357C414.84 140.985 413.963 147.577 412.363 154.012C406.917 175.951 393.016 196.11 370.67 208.973C330.317 232.218 284.605 244.631 238 245V128.523L326.31 77.7023L367.486 54L370.664 55.821C400.863 73.2104 415.64 103.908 414.979 134.316Z" fill="url(#paint3_linear_2_2)"/>
<path id="Vector_5" d="M368 40.7173L326.81 64.4362L238.471 115.293L100.018 195C90.0085 189.097 81.2811 181.261 74.3475 171.95C67.414 162.64 62.4138 152.044 59.6401 140.782C58.1213 134.665 57.2521 128.406 57.0468 122.108V122.073C56.0548 91.3195 70.8253 60.132 101.358 42.5569L106.249 39.7454C145.782 16.9833 190.628 5 236.278 5C281.927 5 326.773 16.9833 366.306 39.7454L368 40.7173Z" fill="url(#paint4_linear_2_2)"/>
<path id="Vector_6" d="M238 145V261.991C190.048 262.391 142.862 249.9 101.336 225.813C100.885 225.551 100.439 225.29 100 225.023L238 145Z" fill="url(#paint5_linear_2_2)"/>
<path id="Vector_7" d="M368 40V53.7963L326.807 77.5174L238.462 128.391V145.266L100 225V194.329L238.462 114.595L326.807 63.7211L368 40Z" fill="url(#paint6_linear_2_2)"/>
<path id="50%" d="M28.5215 29.3457L24.4785 28.3789L25.9375 15.4062H40.3164V19.502H30.1035L29.4707 25.1797C29.8105 24.9805 30.3262 24.7695 31.0176 24.5469C31.709 24.3125 32.4824 24.1953 33.3379 24.1953C34.5801 24.1953 35.6816 24.3887 36.6426 24.7754C37.6035 25.1621 38.418 25.7246 39.0859 26.4629C39.7656 27.2012 40.2812 28.1035 40.6328 29.1699C40.9844 30.2363 41.1602 31.4434 41.1602 32.791C41.1602 33.9277 40.9844 35.0117 40.6328 36.043C40.2812 37.0625 39.748 37.9766 39.0332 38.7852C38.3184 39.582 37.4219 40.209 36.3438 40.666C35.2656 41.123 33.9883 41.3516 32.5117 41.3516C31.4102 41.3516 30.3438 41.1875 29.3125 40.8594C28.293 40.5312 27.373 40.0449 26.5527 39.4004C25.7441 38.7559 25.0938 37.9766 24.6016 37.0625C24.1211 36.1367 23.8691 35.082 23.8457 33.8984H28.873C28.9434 34.625 29.1309 35.252 29.4355 35.7793C29.752 36.2949 30.168 36.6934 30.6836 36.9746C31.1992 37.2559 31.8027 37.3965 32.4941 37.3965C33.1387 37.3965 33.6895 37.2734 34.1465 37.0273C34.6035 36.7812 34.9727 36.4414 35.2539 36.0078C35.5352 35.5625 35.7402 35.0469 35.8691 34.4609C36.0098 33.8633 36.0801 33.2188 36.0801 32.5273C36.0801 31.8359 35.998 31.209 35.834 30.6465C35.6699 30.084 35.418 29.5977 35.0781 29.1875C34.7383 28.7773 34.3047 28.4609 33.7773 28.2383C33.2617 28.0156 32.6582 27.9043 31.9668 27.9043C31.0293 27.9043 30.3027 28.0508 29.7871 28.3438C29.2832 28.6367 28.8613 28.9707 28.5215 29.3457ZM61.6562 25.9531V30.3828C61.6562 32.3047 61.4512 33.9629 61.041 35.3574C60.6309 36.7402 60.0391 37.877 59.2656 38.7676C58.5039 39.6465 57.5957 40.2969 56.541 40.7188C55.4863 41.1406 54.3145 41.3516 53.0254 41.3516C51.9941 41.3516 51.0332 41.2227 50.1426 40.9648C49.252 40.6953 48.4492 40.2793 47.7344 39.7168C47.0312 39.1543 46.4219 38.4453 45.9062 37.5898C45.4023 36.7227 45.0156 35.6914 44.7461 34.4961C44.4766 33.3008 44.3418 31.9297 44.3418 30.3828V25.9531C44.3418 24.0312 44.5469 22.3848 44.957 21.0137C45.3789 19.6309 45.9707 18.5 46.7324 17.6211C47.5059 16.7422 48.4199 16.0977 49.4746 15.6875C50.5293 15.2656 51.7012 15.0547 52.9902 15.0547C54.0215 15.0547 54.9766 15.1895 55.8555 15.459C56.7461 15.7168 57.5488 16.1211 58.2637 16.6719C58.9785 17.2227 59.5879 17.9316 60.0918 18.7988C60.5957 19.6543 60.9824 20.6797 61.252 21.875C61.5215 23.0586 61.6562 24.418 61.6562 25.9531ZM56.5762 31.0508V25.2676C56.5762 24.3418 56.5234 23.5332 56.418 22.8418C56.3242 22.1504 56.1777 21.5645 55.9785 21.084C55.7793 20.5918 55.5332 20.1934 55.2402 19.8887C54.9473 19.584 54.6133 19.3613 54.2383 19.2207C53.8633 19.0801 53.4473 19.0098 52.9902 19.0098C52.416 19.0098 51.9062 19.1211 51.4609 19.3438C51.0273 19.5664 50.6582 19.9238 50.3535 20.416C50.0488 20.8965 49.8145 21.541 49.6504 22.3496C49.498 23.1465 49.4219 24.1191 49.4219 25.2676V31.0508C49.4219 31.9766 49.4688 32.791 49.5625 33.4941C49.668 34.1973 49.8203 34.8008 50.0195 35.3047C50.2305 35.7969 50.4766 36.2012 50.7578 36.5176C51.0508 36.8223 51.3848 37.0449 51.7598 37.1855C52.1465 37.3262 52.5684 37.3965 53.0254 37.3965C53.5879 37.3965 54.0859 37.2852 54.5195 37.0625C54.9648 36.8281 55.3398 36.4648 55.6445 35.9727C55.9609 35.4688 56.1953 34.8125 56.3477 34.0039C56.5 33.1953 56.5762 32.2109 56.5762 31.0508ZM65.0312 21.6816V20.3281C65.0312 19.3555 65.2422 18.4707 65.6641 17.6738C66.0859 16.877 66.707 16.2383 67.5273 15.7578C68.3477 15.2773 69.3555 15.0371 70.5508 15.0371C71.7812 15.0371 72.8066 15.2773 73.627 15.7578C74.459 16.2383 75.0801 16.877 75.4902 17.6738C75.9121 18.4707 76.123 19.3555 76.123 20.3281V21.6816C76.123 22.6309 75.9121 23.5039 75.4902 24.3008C75.0801 25.0977 74.4648 25.7363 73.6445 26.2168C72.8242 26.6973 71.8105 26.9375 70.6035 26.9375C69.3848 26.9375 68.3594 26.6973 67.5273 26.2168C66.707 25.7363 66.0859 25.0977 65.6641 24.3008C65.2422 23.5039 65.0312 22.6309 65.0312 21.6816ZM68.3887 20.3281V21.6816C68.3887 22.0918 68.4648 22.4844 68.6172 22.8594C68.7812 23.2227 69.0273 23.5215 69.3555 23.7559C69.6953 23.9785 70.1055 24.0898 70.5859 24.0898C71.0898 24.0898 71.5 23.9785 71.8164 23.7559C72.1328 23.5215 72.3672 23.2227 72.5195 22.8594C72.6719 22.4844 72.748 22.0918 72.748 21.6816V20.3281C72.748 19.8945 72.666 19.4961 72.502 19.1328C72.3496 18.7578 72.1094 18.459 71.7812 18.2363C71.4648 18.002 71.0547 17.8848 70.5508 17.8848C70.082 17.8848 69.6836 18.002 69.3555 18.2363C69.0273 18.459 68.7812 18.7578 68.6172 19.1328C68.4648 19.4961 68.3887 19.8945 68.3887 20.3281ZM77.2656 36.0781V34.7246C77.2656 33.7637 77.4766 32.8848 77.8984 32.0879C78.332 31.291 78.959 30.6523 79.7793 30.1719C80.6113 29.6914 81.6309 29.4512 82.8379 29.4512C84.0566 29.4512 85.0762 29.6914 85.8965 30.1719C86.7168 30.6523 87.3379 31.291 87.7598 32.0879C88.1816 32.8848 88.3926 33.7637 88.3926 34.7246V36.0781C88.3926 37.0391 88.1816 37.918 87.7598 38.7148C87.3496 39.5117 86.7344 40.1504 85.9141 40.6309C85.0938 41.1113 84.0801 41.3516 82.873 41.3516C81.6543 41.3516 80.6289 41.1113 79.7969 40.6309C78.9648 40.1504 78.332 39.5117 77.8984 38.7148C77.4766 37.918 77.2656 37.0391 77.2656 36.0781ZM80.6406 34.7246V36.0781C80.6406 36.5 80.7344 36.8984 80.9219 37.2734C81.1094 37.6484 81.3672 37.9473 81.6953 38.1699C82.0352 38.3926 82.4277 38.5039 82.873 38.5039C83.4355 38.5039 83.875 38.3926 84.1914 38.1699C84.5078 37.9473 84.7246 37.6484 84.8418 37.2734C84.9707 36.8984 85.0352 36.5 85.0352 36.0781V34.7246C85.0352 34.3027 84.9531 33.9102 84.7891 33.5469C84.625 33.1719 84.3789 32.873 84.0508 32.6504C83.7344 32.416 83.3301 32.2988 82.8379 32.2988C82.3457 32.2988 81.9355 32.416 81.6074 32.6504C81.291 32.873 81.0508 33.1719 80.8867 33.5469C80.7227 33.9102 80.6406 34.3027 80.6406 34.7246ZM84.0859 19.0625L71.5879 39.0664L69.127 37.7656L81.625 17.7617L84.0859 19.0625Z" fill="white"/>
<path id="15%" d="M108.098 318.354V344H103.035V324.189L96.9531 326.123V322.133L107.553 318.354H108.098ZM121.193 332.346L117.15 331.379L118.609 318.406H132.988V322.502H122.775L122.143 328.18C122.482 327.98 122.998 327.77 123.689 327.547C124.381 327.312 125.154 327.195 126.01 327.195C127.252 327.195 128.354 327.389 129.314 327.775C130.275 328.162 131.09 328.725 131.758 329.463C132.438 330.201 132.953 331.104 133.305 332.17C133.656 333.236 133.832 334.443 133.832 335.791C133.832 336.928 133.656 338.012 133.305 339.043C132.953 340.062 132.42 340.977 131.705 341.785C130.99 342.582 130.094 343.209 129.016 343.666C127.938 344.123 126.66 344.352 125.184 344.352C124.082 344.352 123.016 344.188 121.984 343.859C120.965 343.531 120.045 343.045 119.225 342.4C118.416 341.756 117.766 340.977 117.273 340.062C116.793 339.137 116.541 338.082 116.518 336.898H121.545C121.615 337.625 121.803 338.252 122.107 338.779C122.424 339.295 122.84 339.693 123.355 339.975C123.871 340.256 124.475 340.396 125.166 340.396C125.811 340.396 126.361 340.273 126.818 340.027C127.275 339.781 127.645 339.441 127.926 339.008C128.207 338.562 128.412 338.047 128.541 337.461C128.682 336.863 128.752 336.219 128.752 335.527C128.752 334.836 128.67 334.209 128.506 333.646C128.342 333.084 128.09 332.598 127.75 332.188C127.41 331.777 126.977 331.461 126.449 331.238C125.934 331.016 125.33 330.904 124.639 330.904C123.701 330.904 122.975 331.051 122.459 331.344C121.955 331.637 121.533 331.971 121.193 332.346ZM137.031 324.682V323.328C137.031 322.355 137.242 321.471 137.664 320.674C138.086 319.877 138.707 319.238 139.527 318.758C140.348 318.277 141.355 318.037 142.551 318.037C143.781 318.037 144.807 318.277 145.627 318.758C146.459 319.238 147.08 319.877 147.49 320.674C147.912 321.471 148.123 322.355 148.123 323.328V324.682C148.123 325.631 147.912 326.504 147.49 327.301C147.08 328.098 146.465 328.736 145.645 329.217C144.824 329.697 143.811 329.938 142.604 329.938C141.385 329.938 140.359 329.697 139.527 329.217C138.707 328.736 138.086 328.098 137.664 327.301C137.242 326.504 137.031 325.631 137.031 324.682ZM140.389 323.328V324.682C140.389 325.092 140.465 325.484 140.617 325.859C140.781 326.223 141.027 326.521 141.355 326.756C141.695 326.979 142.105 327.09 142.586 327.09C143.09 327.09 143.5 326.979 143.816 326.756C144.133 326.521 144.367 326.223 144.52 325.859C144.672 325.484 144.748 325.092 144.748 324.682V323.328C144.748 322.895 144.666 322.496 144.502 322.133C144.35 321.758 144.109 321.459 143.781 321.236C143.465 321.002 143.055 320.885 142.551 320.885C142.082 320.885 141.684 321.002 141.355 321.236C141.027 321.459 140.781 321.758 140.617 322.133C140.465 322.496 140.389 322.895 140.389 323.328ZM149.266 339.078V337.725C149.266 336.764 149.477 335.885 149.898 335.088C150.332 334.291 150.959 333.652 151.779 333.172C152.611 332.691 153.631 332.451 154.838 332.451C156.057 332.451 157.076 332.691 157.896 333.172C158.717 333.652 159.338 334.291 159.76 335.088C160.182 335.885 160.393 336.764 160.393 337.725V339.078C160.393 340.039 160.182 340.918 159.76 341.715C159.35 342.512 158.734 343.15 157.914 343.631C157.094 344.111 156.08 344.352 154.873 344.352C153.654 344.352 152.629 344.111 151.797 343.631C150.965 343.15 150.332 342.512 149.898 341.715C149.477 340.918 149.266 340.039 149.266 339.078ZM152.641 337.725V339.078C152.641 339.5 152.734 339.898 152.922 340.273C153.109 340.648 153.367 340.947 153.695 341.17C154.035 341.393 154.428 341.504 154.873 341.504C155.436 341.504 155.875 341.393 156.191 341.17C156.508 340.947 156.725 340.648 156.842 340.273C156.971 339.898 157.035 339.5 157.035 339.078V337.725C157.035 337.303 156.953 336.91 156.789 336.547C156.625 336.172 156.379 335.873 156.051 335.65C155.734 335.416 155.33 335.299 154.838 335.299C154.346 335.299 153.936 335.416 153.607 335.65C153.291 335.873 153.051 336.172 152.887 336.547C152.723 336.91 152.641 337.303 152.641 337.725ZM156.086 322.062L143.588 342.066L141.127 340.766L153.625 320.762L156.086 322.062Z" fill="white"/>
<path id="35%" d="M433.943 209.006H436.65C437.518 209.006 438.232 208.859 438.795 208.566C439.357 208.262 439.773 207.84 440.043 207.301C440.324 206.75 440.465 206.111 440.465 205.385C440.465 204.729 440.336 204.148 440.078 203.645C439.832 203.129 439.451 202.73 438.936 202.449C438.42 202.156 437.77 202.01 436.984 202.01C436.363 202.01 435.789 202.133 435.262 202.379C434.734 202.625 434.312 202.971 433.996 203.416C433.68 203.861 433.521 204.4 433.521 205.033H428.441C428.441 203.627 428.816 202.402 429.566 201.359C430.328 200.316 431.348 199.502 432.625 198.916C433.902 198.33 435.309 198.037 436.844 198.037C438.578 198.037 440.096 198.318 441.396 198.881C442.697 199.432 443.711 200.246 444.438 201.324C445.164 202.402 445.527 203.738 445.527 205.332C445.527 206.141 445.34 206.926 444.965 207.688C444.59 208.438 444.051 209.117 443.348 209.727C442.656 210.324 441.812 210.805 440.816 211.168C439.82 211.52 438.701 211.695 437.459 211.695H433.943V209.006ZM433.943 212.855V210.236H437.459C438.854 210.236 440.078 210.395 441.133 210.711C442.188 211.027 443.072 211.484 443.787 212.082C444.502 212.668 445.041 213.365 445.404 214.174C445.768 214.971 445.949 215.855 445.949 216.828C445.949 218.023 445.721 219.09 445.264 220.027C444.807 220.953 444.162 221.738 443.33 222.383C442.51 223.027 441.549 223.52 440.447 223.859C439.346 224.188 438.145 224.352 436.844 224.352C435.766 224.352 434.705 224.205 433.662 223.912C432.631 223.607 431.693 223.156 430.85 222.559C430.018 221.949 429.35 221.188 428.846 220.273C428.354 219.348 428.107 218.252 428.107 216.986H433.188C433.188 217.643 433.352 218.229 433.68 218.744C434.008 219.26 434.459 219.664 435.033 219.957C435.619 220.25 436.27 220.396 436.984 220.396C437.793 220.396 438.484 220.25 439.059 219.957C439.645 219.652 440.09 219.23 440.395 218.691C440.711 218.141 440.869 217.502 440.869 216.775C440.869 215.838 440.699 215.088 440.359 214.525C440.02 213.951 439.533 213.529 438.9 213.26C438.268 212.99 437.518 212.855 436.65 212.855H433.943ZM454.193 212.346L450.15 211.379L451.609 198.406H465.988V202.502H455.775L455.143 208.18C455.482 207.98 455.998 207.77 456.689 207.547C457.381 207.312 458.154 207.195 459.01 207.195C460.252 207.195 461.354 207.389 462.314 207.775C463.275 208.162 464.09 208.725 464.758 209.463C465.438 210.201 465.953 211.104 466.305 212.17C466.656 213.236 466.832 214.443 466.832 215.791C466.832 216.928 466.656 218.012 466.305 219.043C465.953 220.062 465.42 220.977 464.705 221.785C463.99 222.582 463.094 223.209 462.016 223.666C460.938 224.123 459.66 224.352 458.184 224.352C457.082 224.352 456.016 224.188 454.984 223.859C453.965 223.531 453.045 223.045 452.225 222.4C451.416 221.756 450.766 220.977 450.273 220.062C449.793 219.137 449.541 218.082 449.518 216.898H454.545C454.615 217.625 454.803 218.252 455.107 218.779C455.424 219.295 455.84 219.693 456.355 219.975C456.871 220.256 457.475 220.396 458.166 220.396C458.811 220.396 459.361 220.273 459.818 220.027C460.275 219.781 460.645 219.441 460.926 219.008C461.207 218.562 461.412 218.047 461.541 217.461C461.682 216.863 461.752 216.219 461.752 215.527C461.752 214.836 461.67 214.209 461.506 213.646C461.342 213.084 461.09 212.598 460.75 212.188C460.41 211.777 459.977 211.461 459.449 211.238C458.934 211.016 458.33 210.904 457.639 210.904C456.701 210.904 455.975 211.051 455.459 211.344C454.955 211.637 454.533 211.971 454.193 212.346ZM470.031 204.682V203.328C470.031 202.355 470.242 201.471 470.664 200.674C471.086 199.877 471.707 199.238 472.527 198.758C473.348 198.277 474.355 198.037 475.551 198.037C476.781 198.037 477.807 198.277 478.627 198.758C479.459 199.238 480.08 199.877 480.49 200.674C480.912 201.471 481.123 202.355 481.123 203.328V204.682C481.123 205.631 480.912 206.504 480.49 207.301C480.08 208.098 479.465 208.736 478.645 209.217C477.824 209.697 476.811 209.938 475.604 209.938C474.385 209.938 473.359 209.697 472.527 209.217C471.707 208.736 471.086 208.098 470.664 207.301C470.242 206.504 470.031 205.631 470.031 204.682ZM473.389 203.328V204.682C473.389 205.092 473.465 205.484 473.617 205.859C473.781 206.223 474.027 206.521 474.355 206.756C474.695 206.979 475.105 207.09 475.586 207.09C476.09 207.09 476.5 206.979 476.816 206.756C477.133 206.521 477.367 206.223 477.52 205.859C477.672 205.484 477.748 205.092 477.748 204.682V203.328C477.748 202.895 477.666 202.496 477.502 202.133C477.35 201.758 477.109 201.459 476.781 201.236C476.465 201.002 476.055 200.885 475.551 200.885C475.082 200.885 474.684 201.002 474.355 201.236C474.027 201.459 473.781 201.758 473.617 202.133C473.465 202.496 473.389 202.895 473.389 203.328ZM482.266 219.078V217.725C482.266 216.764 482.477 215.885 482.898 215.088C483.332 214.291 483.959 213.652 484.779 213.172C485.611 212.691 486.631 212.451 487.838 212.451C489.057 212.451 490.076 212.691 490.896 213.172C491.717 213.652 492.338 214.291 492.76 215.088C493.182 215.885 493.393 216.764 493.393 217.725V219.078C493.393 220.039 493.182 220.918 492.76 221.715C492.35 222.512 491.734 223.15 490.914 223.631C490.094 224.111 489.08 224.352 487.873 224.352C486.654 224.352 485.629 224.111 484.797 223.631C483.965 223.15 483.332 222.512 482.898 221.715C482.477 220.918 482.266 220.039 482.266 219.078ZM485.641 217.725V219.078C485.641 219.5 485.734 219.898 485.922 220.273C486.109 220.648 486.367 220.947 486.695 221.17C487.035 221.393 487.428 221.504 487.873 221.504C488.436 221.504 488.875 221.393 489.191 221.17C489.508 220.947 489.725 220.648 489.842 220.273C489.971 219.898 490.035 219.5 490.035 219.078V217.725C490.035 217.303 489.953 216.91 489.789 216.547C489.625 216.172 489.379 215.873 489.051 215.65C488.734 215.416 488.33 215.299 487.838 215.299C487.346 215.299 486.936 215.416 486.607 215.65C486.291 215.873 486.051 216.172 485.887 216.547C485.723 216.91 485.641 217.303 485.641 217.725ZM489.086 202.062L476.588 222.066L474.127 220.766L486.625 200.762L489.086 202.062Z" fill="white"/>
</g>
<defs>
<linearGradient id="paint0_linear_2_2" x1="56.9885" y1="179.503" x2="100" y2="179.503" gradientUnits="userSpaceOnUse">
<stop stop-color="#03186F"/>
<stop offset="1" stop-color="#033EAD"/>
</linearGradient>
<linearGradient id="paint1_linear_2_2" x1="326.504" y1="133.994" x2="326.504" y2="288.023" gradientUnits="userSpaceOnUse">
<stop offset="0.58" stop-color="#31319F"/>
<stop offset="0.97" stop-color="#314ADD"/>
</linearGradient>
<linearGradient id="paint2_linear_2_2" x1="169.003" y1="225" x2="169.003" y2="305.002" gradientUnits="userSpaceOnUse">
<stop stop-color="#E56536"/>
<stop offset="1" stop-color="#FF9B00"/>
</linearGradient>
<linearGradient id="paint3_linear_2_2" x1="425.43" y1="175.142" x2="252.238" y2="138.695" gradientUnits="userSpaceOnUse">
<stop stop-color="#133295"/>
<stop offset="1" stop-color="#3163DD"/>
</linearGradient>
<linearGradient id="paint4_linear_2_2" x1="57.0004" y1="99.9971" x2="368" y2="99.9971" gradientUnits="userSpaceOnUse">
<stop stop-color="#03185B"/>
<stop offset="1" stop-color="#03189E"/>
</linearGradient>
<linearGradient id="paint5_linear_2_2" x1="159.265" y1="261.259" x2="226.307" y2="140.103" gradientUnits="userSpaceOnUse">
<stop stop-color="#F97919"/>
<stop offset="1" stop-color="#FFAF10"/>
</linearGradient>
<linearGradient id="paint6_linear_2_2" x1="100" y1="132.5" x2="368" y2="132.5" gradientUnits="userSpaceOnUse">
<stop stop-color="#031822"/>
<stop offset="1" stop-color="#031879"/>
</linearGradient>
</defs>
</svg>
