<svg width="404" height="286" viewBox="0 0 404 286" fill="none" xmlns="http://www.w3.org/2000/svg">
<g id="ilustr.Poorarkitectr 1" clip-path="url(#clip0_150_626)">
<path id="Vector" d="M202.369 272.618V286L0 169.527V156.145L11.6018 162.824L202.369 272.618Z" fill="url(#paint0_linear_150_626)"/>
<path id="Vector_2" d="M403.504 155.909L391.978 162.599L202.369 272.618L11.6018 162.824L0 156.145L202.369 39.1987L403.504 155.909Z" fill="url(#paint1_linear_150_626)"/>
<path id="Vector_3" d="M403.504 155.908V169.286L202.369 286V272.618L391.978 162.599L403.504 155.908Z" fill="url(#paint2_linear_150_626)"/>
<path id="Vector_4" d="M201.904 175.4V214.434L168.132 234.017L168.076 233.985V194.951L168.132 194.919L201.904 175.4Z" fill="url(#paint3_linear_150_626)"/>
<path id="Vector_5" d="M201.904 175.4L168.132 194.919L134.301 175.367L168.076 155.856L201.904 175.4Z" fill="url(#paint4_linear_150_626)"/>
<path id="Vector_6" d="M168.132 194.919L168.076 194.951V233.985L134.301 214.462V175.367L168.132 194.919Z" fill="url(#paint5_linear_150_626)"/>
<path id="Vector_7" d="M201.9 214.476V214.43" stroke="#1D1D1B" stroke-miterlimit="10"/>
<path id="Vector_8" d="M201.9 175.408V175.367" stroke="#1D1D1B" stroke-miterlimit="10"/>
<path id="Vector_9" d="M168.076 234.026V233.985" stroke="#1D1D1B" stroke-miterlimit="10"/>
<path id="Vector_10" d="M168.076 194.96V194.919" stroke="#1D1D1B" stroke-miterlimit="10"/>
<path id="Vector_11" d="M201.904 97.1665V136.201L168.132 155.784L168.076 155.752V116.722L168.132 116.686L201.904 97.1665Z" fill="url(#paint6_linear_150_626)"/>
<path id="Vector_12" d="M201.904 97.1666L168.132 116.686L134.301 97.1345L168.076 77.6233L201.904 97.1666Z" fill="url(#paint7_linear_150_626)"/>
<path id="Vector_13" d="M168.132 116.686L168.076 116.722V155.752L134.301 136.233V97.1344L168.132 116.686Z" fill="url(#paint8_linear_150_626)"/>
<path id="Vector_14" d="M201.9 136.242V136.201" stroke="#1D1D1B" stroke-miterlimit="10"/>
<path id="Vector_15" d="M201.9 97.1754V97.1344" stroke="#1D1D1B" stroke-miterlimit="10"/>
<path id="Vector_16" d="M168.076 155.793V155.752" stroke="#1D1D1B" stroke-miterlimit="10"/>
<path id="Vector_17" d="M168.076 116.727V116.686" stroke="#1D1D1B" stroke-miterlimit="10"/>
<path id="Vector_18" d="M370.229 116.634V155.668L336.461 175.251L336.401 175.219V136.189L336.461 136.157L370.229 116.634Z" fill="url(#paint9_linear_150_626)"/>
<path id="Vector_19" d="M370.229 116.633L336.461 136.157L302.625 116.601L336.401 97.0903L370.229 116.633Z" fill="url(#paint10_linear_150_626)"/>
<path id="Vector_20" d="M336.461 136.157L336.401 136.189V175.219L302.625 155.7V116.601L336.461 136.157Z" fill="url(#paint11_linear_150_626)"/>
<path id="Vector_21" d="M370.229 155.709V155.668" stroke="#1D1D1B" stroke-miterlimit="10"/>
<path id="Vector_22" d="M370.229 116.642V116.601" stroke="#1D1D1B" stroke-miterlimit="10"/>
<path id="Vector_23" d="M336.401 175.26V175.219" stroke="#1D1D1B" stroke-miterlimit="10"/>
<path id="Vector_24" d="M336.401 136.197V136.156" stroke="#1D1D1B" stroke-miterlimit="10"/>
<path id="Vector_25" d="M202.225 19.5432V58.5775L168.457 78.1608L168.397 78.1287V39.0984L168.457 39.0664L202.225 19.5432Z" fill="url(#paint12_linear_150_626)"/>
<path id="Vector_26" d="M202.225 19.5432L168.457 39.0664L134.622 19.5111L168.397 0L202.225 19.5432Z" fill="url(#paint13_linear_150_626)"/>
<path id="Vector_27" d="M168.457 39.0664L168.397 39.0984V78.1287L134.622 58.6096V19.5111L168.457 39.0664Z" fill="url(#paint14_linear_150_626)"/>
<path id="Vector_28" d="M202.225 58.6185V58.5775" stroke="#1D1D1B" stroke-miterlimit="10"/>
<path id="Vector_29" d="M202.225 19.5521V19.5111" stroke="#1D1D1B" stroke-miterlimit="10"/>
<path id="Vector_30" d="M168.397 78.1697V78.1288" stroke="#1D1D1B" stroke-miterlimit="10"/>
<path id="Vector_31" d="M168.397 39.1074V39.0664" stroke="#1D1D1B" stroke-miterlimit="10"/>
<path id="Vector_32" d="M236 39.0985V78.1287L202.233 97.7161L202.177 97.684V58.6497L202.233 58.6176L236 39.0985Z" fill="url(#paint15_linear_150_626)"/>
<path id="Vector_33" d="M236 39.0985L202.233 58.6176L168.397 39.0664L202.177 19.5513L236 39.0985Z" fill="url(#paint16_linear_150_626)"/>
<path id="Vector_34" d="M202.233 58.6176L202.176 58.6497V97.684L168.397 78.1609V39.0664L202.233 58.6176Z" fill="url(#paint17_linear_150_626)"/>
<path id="Vector_35" d="M236 78.1697V78.1288" stroke="#1D1D1B" stroke-miterlimit="10"/>
<path id="Vector_36" d="M236 39.1074V39.0664" stroke="#1D1D1B" stroke-miterlimit="10"/>
<path id="Vector_37" d="M202.177 97.7249V97.684" stroke="#1D1D1B" stroke-miterlimit="10"/>
<path id="Vector_38" d="M202.177 58.6586V58.6177" stroke="#1D1D1B" stroke-miterlimit="10"/>
<path id="Vector_39" d="M201.876 58.0842V97.1184L168.108 116.706L168.052 116.67V77.6394L168.108 77.6073L201.876 58.0842Z" fill="url(#paint18_linear_150_626)"/>
<path id="Vector_40" d="M201.876 58.0841L168.109 77.6073L134.277 58.052L168.053 38.5409L201.876 58.0841Z" fill="url(#paint19_linear_150_626)"/>
<path id="Vector_41" d="M168.109 77.6072L168.053 77.6393V116.67L134.277 97.1504V58.052L168.109 77.6072Z" fill="url(#paint20_linear_150_626)"/>
<path id="Vector_42" d="M201.876 97.1593V97.1184" stroke="#1D1D1B" stroke-miterlimit="10"/>
<path id="Vector_43" d="M201.876 58.093V58.052" stroke="#1D1D1B" stroke-miterlimit="10"/>
<path id="Vector_44" d="M168.052 116.711V116.67" stroke="#1D1D1B" stroke-miterlimit="10"/>
<path id="Vector_45" d="M168.052 77.6483V77.6073" stroke="#1D1D1B" stroke-miterlimit="10"/>
<path id="Vector_46" d="M235.704 195.147V234.177L201.932 253.765L201.876 253.733V214.699L201.932 214.666L235.704 195.147Z" fill="url(#paint21_linear_150_626)"/>
<path id="Vector_47" d="M235.704 195.147L201.932 214.667L168.101 195.115L201.876 175.6L235.704 195.147Z" fill="url(#paint22_linear_150_626)"/>
<path id="Vector_48" d="M201.932 214.667L201.876 214.699V253.733L168.101 234.21V195.115L201.932 214.667Z" fill="url(#paint23_linear_150_626)"/>
<path id="Vector_49" d="M235.704 234.219V234.178" stroke="#1D1D1B" stroke-miterlimit="10"/>
<path id="Vector_50" d="M235.704 195.156V195.115" stroke="#1D1D1B" stroke-miterlimit="10"/>
<path id="Vector_51" d="M201.876 253.774V253.733" stroke="#1D1D1B" stroke-miterlimit="10"/>
<path id="Vector_52" d="M201.876 214.707V214.667" stroke="#1D1D1B" stroke-miterlimit="10"/>
<path id="Vector_53" d="M302.625 116.618V155.652L268.858 175.235L268.802 175.203V136.173L268.858 136.141L302.625 116.618Z" fill="url(#paint24_linear_150_626)"/>
<path id="Vector_54" d="M302.626 116.618L268.858 136.141L235.026 116.585L268.802 97.0742L302.626 116.618Z" fill="url(#paint25_linear_150_626)"/>
<path id="Vector_55" d="M268.858 136.141L268.802 136.173V175.203L235.026 155.684V116.585L268.858 136.141Z" fill="url(#paint26_linear_150_626)"/>
<path id="Vector_56" d="M302.625 155.693V155.652" stroke="#1D1D1B" stroke-miterlimit="10"/>
<path id="Vector_57" d="M302.625 116.626V116.585" stroke="#1D1D1B" stroke-miterlimit="10"/>
<path id="Vector_58" d="M268.802 175.244V175.203" stroke="#1D1D1B" stroke-miterlimit="10"/>
<path id="Vector_59" d="M268.802 136.182V136.141" stroke="#1D1D1B" stroke-miterlimit="10"/>
<path id="Vector_60" d="M101.187 118.065V157.1L67.415 176.683L67.3589 176.651V137.617L67.415 137.585L101.187 118.065Z" fill="url(#paint27_linear_150_626)"/>
<path id="Vector_61" d="M101.186 118.066L67.4147 137.585L33.583 118.034L67.3586 98.5223L101.186 118.066Z" fill="url(#paint28_linear_150_626)"/>
<path id="Vector_62" d="M67.4147 137.585L67.3586 137.617V176.651L33.583 157.132V118.033L67.4147 137.585Z" fill="url(#paint29_linear_150_626)"/>
<path id="Vector_63" d="M101.187 157.141V157.1" stroke="#1D1D1B" stroke-miterlimit="10"/>
<path id="Vector_64" d="M101.187 118.074V118.033" stroke="#1D1D1B" stroke-miterlimit="10"/>
<path id="Vector_65" d="M67.3589 176.692V176.651" stroke="#1D1D1B" stroke-miterlimit="10"/>
<path id="Vector_66" d="M67.3589 137.626V137.585" stroke="#1D1D1B" stroke-miterlimit="10"/>
</g>
<defs>
<linearGradient id="paint0_linear_150_626" x1="0" y1="221.073" x2="202.369" y2="221.073" gradientUnits="userSpaceOnUse">
<stop stop-color="#F9F7F3"/>
<stop offset="1" stop-color="#D7CBB6"/>
</linearGradient>
<linearGradient id="paint1_linear_150_626" x1="0" y1="155.909" x2="403.504" y2="155.909" gradientUnits="userSpaceOnUse">
<stop stop-color="white"/>
<stop offset="1" stop-color="#CBBBA0"/>
</linearGradient>
<linearGradient id="paint2_linear_150_626" x1="202.369" y1="220.956" x2="403.504" y2="220.956" gradientUnits="userSpaceOnUse">
<stop stop-color="#CBBBA0"/>
<stop offset="1" stop-color="#A48A7B"/>
</linearGradient>
<linearGradient id="paint3_linear_150_626" x1="168.076" y1="204.706" x2="201.9" y2="204.706" gradientUnits="userSpaceOnUse">
<stop stop-color="#FF9210"/>
<stop offset="1" stop-color="#DB6019"/>
</linearGradient>
<linearGradient id="paint4_linear_150_626" x1="134.301" y1="175.387" x2="201.9" y2="175.387" gradientUnits="userSpaceOnUse">
<stop stop-color="#FFC910"/>
<stop offset="1" stop-color="#F97919"/>
</linearGradient>
<linearGradient id="paint5_linear_150_626" x1="134.301" y1="204.674" x2="168.132" y2="204.674" gradientUnits="userSpaceOnUse">
<stop stop-color="#FFAF10"/>
<stop offset="1" stop-color="#F97919"/>
</linearGradient>
<linearGradient id="paint6_linear_150_626" x1="168.076" y1="126.477" x2="201.9" y2="126.477" gradientUnits="userSpaceOnUse">
<stop stop-color="#134E95"/>
<stop offset="1" stop-color="#3192DD"/>
</linearGradient>
<linearGradient id="paint7_linear_150_626" x1="134.301" y1="97.1545" x2="201.9" y2="97.1545" gradientUnits="userSpaceOnUse">
<stop stop-color="#66BEE1"/>
<stop offset="1" stop-color="#1688DD"/>
</linearGradient>
<linearGradient id="paint8_linear_150_626" x1="134.301" y1="126.445" x2="168.132" y2="126.445" gradientUnits="userSpaceOnUse">
<stop stop-color="#45B3E1"/>
<stop offset="1" stop-color="#3192DD"/>
</linearGradient>
<linearGradient id="paint9_linear_150_626" x1="28731.9" y1="21443.5" x2="31587.3" y2="21443.5" gradientUnits="userSpaceOnUse">
<stop stop-color="#134E95"/>
<stop offset="1" stop-color="#3192DD"/>
</linearGradient>
<linearGradient id="paint10_linear_150_626" x1="51352.5" y1="11454.8" x2="62756.4" y2="11454.8" gradientUnits="userSpaceOnUse">
<stop stop-color="#66BEE1"/>
<stop offset="1" stop-color="#1688DD"/>
</linearGradient>
<linearGradient id="paint11_linear_150_626" x1="25853.3" y1="21438.8" x2="28710" y2="21438.8" gradientUnits="userSpaceOnUse">
<stop stop-color="#45B3E1"/>
<stop offset="1" stop-color="#3192DD"/>
</linearGradient>
<linearGradient id="paint12_linear_150_626" x1="14382.8" y1="7158.58" x2="17238.2" y2="7158.58" gradientUnits="userSpaceOnUse">
<stop stop-color="#134E95"/>
<stop offset="1" stop-color="#3192DD"/>
</linearGradient>
<linearGradient id="paint13_linear_150_626" x1="22843.9" y1="1902.14" x2="34247.9" y2="1902.14" gradientUnits="userSpaceOnUse">
<stop stop-color="#66BEE1"/>
<stop offset="1" stop-color="#1688DD"/>
</linearGradient>
<linearGradient id="paint14_linear_150_626" x1="11500.7" y1="7153.86" x2="14357.4" y2="7153.86" gradientUnits="userSpaceOnUse">
<stop stop-color="#45B3E1"/>
<stop offset="1" stop-color="#3192DD"/>
</linearGradient>
<linearGradient id="paint15_linear_150_626" x1="17265.9" y1="10035.2" x2="20120.6" y2="10035.2" gradientUnits="userSpaceOnUse">
<stop stop-color="#134E95"/>
<stop offset="1" stop-color="#3192DD"/>
</linearGradient>
<linearGradient id="paint16_linear_150_626" x1="28575.3" y1="3826.18" x2="39979.2" y2="3826.18" gradientUnits="userSpaceOnUse">
<stop stop-color="#66BEE1"/>
<stop offset="1" stop-color="#1688DD"/>
</linearGradient>
<linearGradient id="paint17_linear_150_626" x1="14386.1" y1="10030.4" x2="17242.9" y2="10030.4" gradientUnits="userSpaceOnUse">
<stop stop-color="#45B3E1"/>
<stop offset="1" stop-color="#3192DD"/>
</linearGradient>
<linearGradient id="paint18_linear_150_626" x1="14351.7" y1="12829.9" x2="17206.4" y2="12829.9" gradientUnits="userSpaceOnUse">
<stop stop-color="#FF9210"/>
<stop offset="1" stop-color="#DB6019"/>
</linearGradient>
<linearGradient id="paint19_linear_150_626" x1="22784.1" y1="5694.18" x2="34186.8" y2="5694.18" gradientUnits="userSpaceOnUse">
<stop stop-color="#FFC910"/>
<stop offset="1" stop-color="#F97919"/>
</linearGradient>
<linearGradient id="paint20_linear_150_626" x1="11470" y1="12824.4" x2="14326.1" y2="12824.4" gradientUnits="userSpaceOnUse">
<stop stop-color="#FFAF10"/>
<stop offset="1" stop-color="#F97919"/>
</linearGradient>
<linearGradient id="paint21_linear_150_626" x1="17242.2" y1="32994.5" x2="20097.6" y2="32994.5" gradientUnits="userSpaceOnUse">
<stop stop-color="#FF9210"/>
<stop offset="1" stop-color="#DB6019"/>
</linearGradient>
<linearGradient id="paint22_linear_150_626" x1="28525" y1="19179.8" x2="39929" y2="19179.8" gradientUnits="userSpaceOnUse">
<stop stop-color="#FFC910"/>
<stop offset="1" stop-color="#F97919"/>
</linearGradient>
<linearGradient id="paint23_linear_150_626" x1="14359.1" y1="32990" x2="17215.5" y2="32990" gradientUnits="userSpaceOnUse">
<stop stop-color="#FFAF10"/>
<stop offset="1" stop-color="#F97919"/>
</linearGradient>
<linearGradient id="paint24_linear_150_626" x1="22955.7" y1="21441.1" x2="25810.4" y2="21441.1" gradientUnits="userSpaceOnUse">
<stop stop-color="#FF9210"/>
<stop offset="1" stop-color="#DB6019"/>
</linearGradient>
<linearGradient id="paint25_linear_150_626" x1="39879.3" y1="11453.3" x2="51282" y2="11453.3" gradientUnits="userSpaceOnUse">
<stop stop-color="#FFC910"/>
<stop offset="1" stop-color="#F97919"/>
</linearGradient>
<linearGradient id="paint26_linear_150_626" x1="20076" y1="21436.4" x2="22932" y2="21436.4" gradientUnits="userSpaceOnUse">
<stop stop-color="#FFAF10"/>
<stop offset="1" stop-color="#F97919"/>
</linearGradient>
<linearGradient id="paint27_linear_150_626" x1="5753.11" y1="21653.6" x2="8608.5" y2="21653.6" gradientUnits="userSpaceOnUse">
<stop stop-color="#FF9210"/>
<stop offset="1" stop-color="#DB6019"/>
</linearGradient>
<linearGradient id="paint28_linear_150_626" x1="5698.74" y1="11594.6" x2="17102.7" y2="11594.6" gradientUnits="userSpaceOnUse">
<stop stop-color="#FFC910"/>
<stop offset="1" stop-color="#F97919"/>
</linearGradient>
<linearGradient id="paint29_linear_150_626" x1="2868.68" y1="21648.9" x2="5724.75" y2="21648.9" gradientUnits="userSpaceOnUse">
<stop stop-color="#FFAF10"/>
<stop offset="1" stop-color="#F97919"/>
</linearGradient>
<clipPath id="clip0_150_626">
<rect width="403.504" height="286" fill="white"/>
</clipPath>
</defs>
</svg>
