<svg width="555" height="469" viewBox="0 0 555 469" fill="none" xmlns="http://www.w3.org/2000/svg">
<g id="Ilustr.WhatisICO 1" clip-path="url(#clip0_111_779)">
<g id="Capa 3">
<path id="Vector" d="M37.5466 291.639L10.8066 276.195V245.299L37.5912 260.769L37.5466 291.639Z" fill="#FB941A"/>
<path id="Vector_2" d="M37.5465 291.639L64.2929 276.195V245.299L37.502 260.769L37.5465 291.639Z" fill="#E0790A"/>
<path id="Vector_3" d="M64.3374 245.287L37.5911 229.836L10.8511 245.287L37.6357 260.757L64.3374 245.287Z" fill="#F9A74E"/>
<path id="Vector_4" d="M131.968 181.847L105.228 166.396V135.501L132.012 150.977L131.968 181.847Z" fill="#133295"/>
<path id="Vector_5" d="M131.968 181.847L158.714 166.396V135.501L131.923 150.977L131.968 181.847Z" fill="#03185B"/>
<path id="Vector_6" d="M158.752 135.488L132.012 120.037L105.272 135.488L132.057 150.958L158.752 135.488Z" fill="#2452C6"/>
<path id="Vector_7" d="M278.913 121.369L252.173 105.918V75.0234L278.958 90.4932L278.913 121.369Z" fill="#FB941A"/>
<path id="Vector_8" d="M278.914 121.369L305.66 105.918V75.0234L278.869 90.4932L278.914 121.369Z" fill="#E0790A"/>
<path id="Vector_9" d="M305.705 75.0107L278.958 59.56L252.218 75.0107L279.003 90.4805L305.705 75.0107Z" fill="#F9A74E"/>
<path id="Vector_10" d="M438.679 183.561L411.932 168.116V137.221L438.723 152.691L438.679 183.561Z" fill="#133295"/>
<path id="Vector_11" d="M438.678 183.561L465.418 168.116V137.221L438.634 152.691L438.678 183.561Z" fill="#03185B"/>
<path id="Vector_12" d="M465.463 137.202L438.723 121.758L411.977 137.202L438.768 152.678L465.463 137.202Z" fill="#2452C6"/>
<path id="Vector_13" d="M518.956 291.658L492.216 276.214V245.312L519 260.788L518.956 291.658Z" fill="#FB941A"/>
<path id="Vector_14" d="M518.956 291.658L545.702 276.214V245.312L518.911 260.788L518.956 291.658Z" fill="#E0790A"/>
<path id="Vector_15" d="M545.747 245.3L519.001 229.855L492.261 245.3L519.045 260.776L545.747 245.3Z" fill="#F9A74E"/>
</g>
<g id="Capa 5">
<g id="Vector_16" filter="url(#filter0_d_111_779)">
<path d="M277.162 391.919C299.035 391.919 316.766 374.178 316.766 352.295C316.766 330.411 299.035 312.671 277.162 312.671C255.29 312.671 237.559 330.411 237.559 352.295C237.559 374.178 255.29 391.919 277.162 391.919Z" fill="url(#paint0_radial_111_779)"/>
</g>
<path id="Vector_17" d="M267.865 364.617V339.979L293.306 352.295L267.865 364.617ZM269.839 343.642V360.966L287.708 352.314L269.839 343.642Z" fill="white"/>
<path id="Vector_18" d="M274.615 247.058C252.679 247.058 231.234 253.566 212.995 265.76C194.755 277.954 180.538 295.285 172.144 315.562C163.749 335.84 161.552 358.152 165.832 379.678C170.112 401.205 180.675 420.978 196.187 436.497C211.699 452.017 231.462 462.586 252.977 466.868C274.492 471.15 296.794 468.952 317.061 460.553C337.328 452.154 354.65 437.93 366.838 419.681C379.025 401.432 385.53 379.977 385.53 358.029C385.531 343.456 382.663 329.025 377.089 315.561C371.515 302.097 363.345 289.864 353.046 279.559C342.746 269.254 330.519 261.08 317.062 255.504C303.604 249.927 289.181 247.057 274.615 247.058ZM274.615 454.206C255.597 454.206 237.005 448.563 221.192 437.992C205.379 427.42 193.054 412.394 185.776 394.815C178.497 377.235 176.593 357.89 180.304 339.228C184.014 320.565 193.172 303.423 206.62 289.968C220.068 276.513 237.202 267.35 255.856 263.637C274.509 259.925 293.843 261.83 311.414 269.112C328.985 276.394 344.003 288.725 354.569 304.547C365.135 320.368 370.775 338.969 370.775 357.997C370.775 370.632 368.288 383.142 363.455 394.815C358.623 406.487 351.54 417.093 342.61 426.027C333.681 434.961 323.081 442.047 311.414 446.882C299.747 451.717 287.243 454.206 274.615 454.206Z" fill="url(#paint1_radial_111_779)"/>
<path id="Vector_19" d="M166.458 333.372L163.567 332.04" stroke="#FB941A" stroke-width="5" stroke-miterlimit="10"/>
<path id="Vector_20" d="M157.638 329.307L89.4604 297.896" stroke="#FB941A" stroke-width="5" stroke-miterlimit="10" stroke-dasharray="10.25 10.25"/>
<path id="Vector_21" d="M86.4991 296.532L83.6016 295.2" stroke="#FB941A" stroke-width="5" stroke-miterlimit="10"/>
<path id="Vector_22" d="M382.62 334.009L385.511 332.677" stroke="#FB941A" stroke-width="5" stroke-miterlimit="10"/>
<path id="Vector_23" d="M391.439 329.944L459.617 298.533" stroke="#FB941A" stroke-width="5" stroke-miterlimit="10" stroke-dasharray="10.25 10.25"/>
<path id="Vector_24" d="M462.579 297.169L465.476 295.838" stroke="#FB941A" stroke-width="5" stroke-miterlimit="10"/>
<path id="Vector_25" d="M274.615 247.052V167.702" stroke="#FB941A" stroke-width="5" stroke-miterlimit="10" stroke-dasharray="10 10"/>
<path id="Vector_26" d="M203.056 273.251L155.868 214.048" stroke="#FB941A" stroke-width="5" stroke-miterlimit="10" stroke-dasharray="10 10"/>
<path id="Vector_27" d="M346.175 273.251L393.357 214.048" stroke="#FB941A" stroke-width="5" stroke-miterlimit="10" stroke-dasharray="10 10"/>
<path id="Vector_28" d="M235.349 418.392H232.738V412.957H227.644V418.392H225.033V405.713H227.644V410.848H232.738V405.713H235.349V418.392Z" fill="white"/>
<path id="Vector_29" d="M237.075 413.594C237.058 412.729 237.244 411.871 237.616 411.09C237.953 410.383 238.495 409.792 239.17 409.395C239.884 408.985 240.697 408.778 241.52 408.796C242.09 408.774 242.66 408.865 243.194 409.065C243.729 409.266 244.219 409.571 244.634 409.962C245.473 410.813 245.954 411.953 245.978 413.148V413.785C246.041 415.058 245.607 416.305 244.768 417.264C243.896 418.106 242.732 418.577 241.52 418.577C240.308 418.577 239.144 418.106 238.272 417.264C237.419 416.285 236.982 415.012 237.056 413.715L237.075 413.594ZM239.622 413.773C239.575 414.492 239.75 415.208 240.125 415.824C240.295 416.044 240.513 416.221 240.761 416.344C241.01 416.466 241.284 416.53 241.561 416.53C241.839 416.53 242.112 416.466 242.361 416.344C242.61 416.221 242.828 416.044 242.997 415.824C243.397 415.145 243.577 414.36 243.513 413.575C243.556 412.858 243.376 412.146 242.997 411.536C242.831 411.312 242.614 411.13 242.365 411.005C242.116 410.879 241.84 410.814 241.561 410.814C241.282 410.814 241.007 410.879 240.758 411.005C240.508 411.13 240.292 411.312 240.125 411.536C239.727 412.211 239.541 412.99 239.59 413.773H239.622Z" fill="white"/>
<path id="Vector_30" d="M255.74 414.97L256.976 408.969H259.408L257.001 418.392H254.893L253.11 412.46L251.327 418.392H249.226L246.825 408.969H249.251L250.48 414.964L252.206 408.969H254.053L255.74 414.97Z" fill="white"/>
<path id="Vector_31" d="M265.076 406.528C265.069 406.355 265.099 406.183 265.164 406.023C265.229 405.863 265.327 405.718 265.451 405.598C265.733 405.344 266.104 405.211 266.483 405.229C266.86 405.211 267.229 405.344 267.508 405.598C267.636 405.716 267.737 405.86 267.804 406.021C267.871 406.181 267.903 406.354 267.897 406.528C267.9 406.704 267.868 406.878 267.801 407.04C267.734 407.203 267.634 407.349 267.508 407.471C267.227 407.722 266.859 407.852 266.483 407.834C266.109 407.852 265.743 407.721 265.464 407.471C265.338 407.349 265.238 407.203 265.171 407.04C265.105 406.878 265.072 406.704 265.076 406.528V406.528ZM267.744 418.392H265.197V408.969H267.744V418.392Z" fill="white"/>
<path id="Vector_32" d="M272.832 406.649V408.969H274.43V410.816H272.819V415.518C272.794 415.784 272.864 416.051 273.017 416.27C273.124 416.357 273.247 416.421 273.379 416.46C273.512 416.498 273.65 416.509 273.787 416.493C274.035 416.495 274.282 416.476 274.526 416.436V418.347C274.033 418.5 273.52 418.578 273.004 418.577C271.234 418.577 270.333 417.685 270.304 415.901V410.803H268.928V408.956H270.304V406.649H272.832Z" fill="white"/>
<path id="Vector_33" d="M288.479 414.97L289.714 408.969H292.141L289.714 418.392H287.607L285.823 412.46L284.034 418.392H281.939L279.538 408.969H281.964L283.193 414.964L284.919 408.969H286.734L288.479 414.97Z" fill="white"/>
<path id="Vector_34" d="M292.994 413.594C292.977 412.729 293.162 411.871 293.535 411.09C293.876 410.385 294.416 409.796 295.089 409.395C295.805 408.985 296.62 408.778 297.445 408.796C298.012 408.777 298.578 408.871 299.109 409.071C299.64 409.271 300.126 409.574 300.54 409.962C301.377 410.815 301.857 411.954 301.884 413.148V413.785C301.944 415.058 301.511 416.304 300.674 417.264C299.8 418.105 298.635 418.575 297.423 418.575C296.21 418.575 295.045 418.105 294.172 417.264C293.322 416.284 292.885 415.011 292.956 413.715L292.994 413.594ZM295.541 413.773C295.495 414.493 295.673 415.209 296.05 415.824C296.21 416.057 296.427 416.245 296.68 416.37C296.933 416.495 297.214 416.552 297.496 416.538C297.773 416.548 298.048 416.489 298.297 416.367C298.546 416.244 298.761 416.062 298.923 415.837C299.317 415.157 299.495 414.372 299.432 413.588C299.477 412.872 299.299 412.16 298.923 411.549C298.763 411.316 298.546 411.127 298.293 411C298.04 410.873 297.76 410.812 297.477 410.823C297.198 410.811 296.92 410.871 296.67 410.997C296.42 411.123 296.207 411.311 296.05 411.543C295.651 412.215 295.462 412.992 295.509 413.773H295.541Z" fill="white"/>
<path id="Vector_35" d="M308.762 411.301C308.462 411.258 308.16 411.235 307.857 411.23C307.484 411.182 307.105 411.249 306.77 411.422C306.436 411.595 306.162 411.866 305.985 412.199V418.366H303.47V408.969H305.845L305.915 410.09C306.111 409.702 306.412 409.377 306.784 409.152C307.155 408.927 307.582 408.81 308.017 408.816C308.282 408.812 308.546 408.849 308.8 408.924L308.762 411.301Z" fill="white"/>
<path id="Vector_36" d="M313.397 414.614L312.487 415.518V418.392H309.939V405.012H312.487V412.428L312.977 411.791L315.391 408.962H318.409L315.002 412.887L318.708 418.385H315.824L313.397 414.614Z" fill="white"/>
<path id="Vector_37" d="M324.599 415.76C324.598 415.609 324.554 415.46 324.473 415.332C324.392 415.204 324.277 415.1 324.141 415.034C323.679 414.805 323.185 414.646 322.676 414.563C320.434 414.091 319.314 413.138 319.314 411.702C319.312 411.295 319.405 410.893 319.586 410.529C319.768 410.165 320.032 409.849 320.358 409.606C321.139 409.019 322.101 408.724 323.077 408.771C324.1 408.718 325.111 409.015 325.943 409.612C326.285 409.866 326.561 410.198 326.748 410.58C326.936 410.963 327.028 411.384 327.019 411.81H324.472C324.478 411.645 324.451 411.481 324.39 411.327C324.33 411.174 324.239 411.034 324.122 410.918C323.974 410.789 323.803 410.691 323.617 410.63C323.431 410.568 323.234 410.545 323.039 410.561C322.687 410.538 322.337 410.64 322.052 410.848C321.942 410.935 321.853 411.047 321.792 411.174C321.731 411.301 321.7 411.44 321.702 411.581C321.702 411.719 321.739 411.855 321.81 411.973C321.88 412.092 321.982 412.19 322.103 412.256C322.517 412.481 322.968 412.632 323.434 412.702C323.972 412.802 324.502 412.942 325.019 413.123C326.35 413.613 327.013 414.454 327.013 415.671C327.018 416.083 326.92 416.49 326.728 416.854C326.535 417.218 326.254 417.527 325.911 417.755C325.068 418.32 324.066 418.602 323.052 418.557C322.329 418.569 321.612 418.423 320.95 418.131C320.375 417.88 319.878 417.48 319.511 416.971C319.172 416.511 318.989 415.956 318.989 415.384H321.371C321.371 415.582 321.416 415.776 321.502 415.954C321.588 416.131 321.713 416.287 321.867 416.41C322.227 416.666 322.662 416.791 323.103 416.767C323.488 416.795 323.871 416.699 324.198 416.493C324.322 416.416 324.425 416.308 324.495 416.18C324.565 416.051 324.601 415.907 324.599 415.76V415.76Z" fill="white"/>
</g>
<g id="Capa 6">
<g id="Vector_38" filter="url(#filter1_d_111_779)">
<path d="M36.9421 224.911C50.7746 224.911 61.9881 213.692 61.9881 199.852C61.9881 186.013 50.7746 174.793 36.9421 174.793C23.1095 174.793 11.896 186.013 11.896 199.852C11.896 213.692 23.1095 224.911 36.9421 224.911Z" fill="#F8FAFF"/>
</g>
<g id="Vector_39" filter="url(#filter2_d_111_779)">
<path d="M519.001 223.649C532.833 223.649 544.047 212.43 544.047 198.591C544.047 184.751 532.833 173.532 519.001 173.532C505.168 173.532 493.955 184.751 493.955 198.591C493.955 212.43 505.168 223.649 519.001 223.649Z" fill="#F8FAFF"/>
</g>
<g id="Vector_40" filter="url(#filter3_d_111_779)">
<path d="M131.924 115.991C145.756 115.991 156.97 104.771 156.97 90.9319C156.97 77.0923 145.756 65.8731 131.924 65.8731C118.091 65.8731 106.877 77.0923 106.877 90.9319C106.877 104.771 118.091 115.991 131.924 115.991Z" fill="#F8FAFF"/>
</g>
<g id="Vector_41" filter="url(#filter4_d_111_779)">
<path d="M438.634 116.991C452.467 116.991 463.681 105.771 463.681 91.9319C463.681 78.0923 452.467 66.8731 438.634 66.8731C424.802 66.8731 413.588 78.0923 413.588 91.9319C413.588 105.771 424.802 116.991 438.634 116.991Z" fill="#F8FAFF"/>
</g>
<g id="Vector_42" filter="url(#filter5_d_111_779)">
<path d="M278.239 56.1176C292.071 56.1176 303.285 44.8984 303.285 31.0588C303.285 17.2192 292.071 6 278.239 6C264.406 6 253.193 17.2192 253.193 31.0588C253.193 44.8984 264.406 56.1176 278.239 56.1176Z" fill="#F8FAFF"/>
</g>
<path id="Vector_43" d="M9.71806 307.446V315.799C9.75174 316.407 9.65557 317.016 9.43596 317.584C9.21635 318.152 8.87834 318.666 8.44443 319.093C7.43011 319.873 6.18819 320.298 4.90908 320.304C3.62998 320.31 2.38429 319.896 1.363 319.125C0.921533 318.714 0.573616 318.213 0.342867 317.656C0.112118 317.098 0.00394148 316.498 0.0256821 315.895V307.446H2.64301V315.818C2.61423 316.145 2.65187 316.475 2.75364 316.787C2.85542 317.099 3.01924 317.387 3.23525 317.634C3.69029 318.031 4.282 318.234 4.8846 318.201C6.35778 318.201 7.10498 317.428 7.12621 315.882V307.446H9.71806Z" fill="white"/>
<path id="Vector_44" d="M14.7109 308.389V310.709H16.322V312.544H14.7109V317.246C14.6861 317.512 14.756 317.778 14.9083 317.997C15.0144 318.084 15.1366 318.148 15.2679 318.186C15.3991 318.224 15.5367 318.236 15.6725 318.22C15.922 318.223 16.1713 318.204 16.4176 318.163V320.075C15.9225 320.227 15.4073 320.304 14.8892 320.304C13.1231 320.304 12.223 319.412 12.1891 317.628V312.531H10.7881V310.683H12.1636V308.364L14.7109 308.389Z" fill="white"/>
<path id="Vector_45" d="M17.7038 308.268C17.7002 308.096 17.7317 307.924 17.7963 307.765C17.8608 307.605 17.9572 307.46 18.0795 307.338C18.3701 307.099 18.7348 306.968 19.1111 306.968C19.4875 306.968 19.8521 307.099 20.1428 307.338C20.3893 307.587 20.5276 307.924 20.5276 308.275C20.5276 308.625 20.3893 308.962 20.1428 309.211C19.8616 309.462 19.4936 309.592 19.1175 309.574C18.7434 309.592 18.3774 309.461 18.0986 309.211C17.969 309.092 17.8667 308.945 17.7986 308.783C17.7304 308.62 17.6981 308.445 17.7038 308.268V308.268ZM20.3784 320.132H17.8311V310.709H20.3784V320.132Z" fill="white"/>
<path id="Vector_46" d="M25.1034 320.132H22.5562V306.752H25.1034V320.132Z" fill="white"/>
<path id="Vector_47" d="M27.1606 308.268C27.1539 308.095 27.184 307.923 27.2487 307.763C27.3135 307.602 27.4115 307.458 27.5363 307.338C27.818 307.084 28.1888 306.951 28.5679 306.968C28.9451 306.951 29.3138 307.084 29.5932 307.338C29.721 307.456 29.8218 307.6 29.8888 307.761C29.9559 307.921 29.9875 308.094 29.9817 308.268C29.9853 308.444 29.9527 308.618 29.8859 308.78C29.819 308.943 29.7194 309.089 29.5932 309.211C29.3031 309.446 28.9411 309.574 28.5679 309.574C28.1947 309.574 27.8328 309.446 27.5427 309.211C27.4176 309.089 27.3192 308.942 27.2535 308.78C27.1877 308.617 27.1561 308.443 27.1606 308.268V308.268ZM29.8288 320.132H27.2816V310.709H29.8288V320.132Z" fill="white"/>
<path id="Vector_48" d="M34.9168 308.389V310.709H36.528V312.544H34.9168V317.246C34.8921 317.512 34.962 317.778 35.1142 317.997C35.2213 318.084 35.3446 318.149 35.477 318.187C35.6093 318.225 35.748 318.237 35.8848 318.22C36.1322 318.223 36.3794 318.203 36.6235 318.163V320.075C36.1307 320.228 35.6175 320.305 35.1015 320.304C33.3312 320.304 32.4311 319.412 32.4014 317.628V312.531H31.0259V310.683H32.4014V308.364L34.9168 308.389Z" fill="white"/>
<path id="Vector_49" d="M41.4445 316.57L43.1894 310.709H45.8832L42.1005 321.597L41.8903 322.094C41.6765 322.655 41.2926 323.135 40.7923 323.466C40.2921 323.798 39.7006 323.964 39.1011 323.942C38.7237 323.939 38.3486 323.883 37.9866 323.776V321.865H38.3751C38.7423 321.886 39.1088 321.811 39.4386 321.648C39.6972 321.473 39.8916 321.218 39.9926 320.922L40.2855 320.145L36.9868 310.696H39.6933L41.4445 316.57Z" fill="white"/>
<path id="Vector_50" d="M51.4868 320.132V307.446H55.9445C57.1734 307.363 58.3971 307.671 59.4407 308.326C59.8373 308.627 60.154 309.021 60.3628 309.473C60.5715 309.925 60.666 310.422 60.6379 310.919C60.6497 311.503 60.4831 312.076 60.1603 312.563C59.8337 313.04 59.3661 313.403 58.823 313.601C59.4361 313.74 59.9813 314.09 60.3641 314.589C60.7459 315.113 60.943 315.75 60.9245 316.398C60.9594 316.919 60.8722 317.441 60.6699 317.922C60.4676 318.403 60.1557 318.831 59.7591 319.17C58.7875 319.853 57.6144 320.19 56.4285 320.126L51.4868 320.132ZM54.0978 312.767H56.0082C57.3264 312.767 57.9887 312.219 57.9887 311.186C58.0144 310.949 57.9821 310.709 57.8944 310.487C57.8068 310.265 57.6665 310.068 57.4856 309.912C57.0113 309.625 56.4591 309.494 55.9063 309.536H54.0914L54.0978 312.767ZM54.0978 314.614V318.036H56.333C56.8501 318.068 57.3612 317.912 57.7722 317.596C57.9463 317.447 58.0839 317.259 58.1744 317.048C58.2649 316.837 58.306 316.608 58.2944 316.379C58.2944 315.22 57.6894 314.627 56.4922 314.614H54.0978Z" fill="white"/>
<path id="Vector_51" d="M62.6825 308.268C62.6789 308.096 62.7104 307.924 62.775 307.765C62.8396 307.605 62.9359 307.46 63.0582 307.338C63.3488 307.099 63.7135 306.968 64.0898 306.968C64.4662 306.968 64.8308 307.099 65.1215 307.338C65.2471 307.457 65.3461 307.602 65.4119 307.762C65.4778 307.923 65.509 308.095 65.5036 308.268C65.5072 308.444 65.4746 308.618 65.4077 308.78C65.3409 308.943 65.2413 309.089 65.1151 309.211C64.834 309.462 64.4659 309.592 64.0898 309.574C63.7157 309.592 63.3497 309.461 63.0709 309.211C62.9425 309.091 62.8414 308.945 62.7744 308.782C62.7074 308.619 62.676 308.444 62.6825 308.268V308.268ZM65.3571 320.132H62.8098V310.709H65.3571V320.132Z" fill="white"/>
<path id="Vector_52" d="M70.0819 320.132H67.5347V306.752H70.0819V320.132Z" fill="white"/>
<path id="Vector_53" d="M74.807 320.132H72.2598V306.752H74.807V320.132Z" fill="white"/>
<path id="Vector_54" d="M81.9843 317.532C81.9842 317.379 81.9411 317.23 81.8601 317.1C81.779 316.971 81.6632 316.866 81.5258 316.8C81.0623 316.574 80.5691 316.415 80.0611 316.328C77.8195 315.857 76.6987 314.907 76.6987 313.467C76.6929 313.061 76.7841 312.66 76.9646 312.297C77.1452 311.933 77.4099 311.618 77.7367 311.377C78.5198 310.788 79.4836 310.491 80.4623 310.536C81.485 310.485 82.4949 310.782 83.328 311.377C83.6696 311.631 83.9455 311.963 84.1327 312.346C84.32 312.728 84.413 313.15 84.4042 313.576H81.8888C81.8949 313.411 81.867 313.247 81.8067 313.093C81.7464 312.94 81.6551 312.8 81.5385 312.684C81.3903 312.554 81.2175 312.456 81.0304 312.394C80.8433 312.333 80.6457 312.31 80.4496 312.327C80.0992 312.305 79.7523 312.406 79.4689 312.614C79.3578 312.7 79.2684 312.812 79.2076 312.939C79.1469 313.066 79.1164 313.205 79.1186 313.346C79.1189 313.484 79.1556 313.619 79.2249 313.737C79.2943 313.856 79.3938 313.954 79.5135 314.022C79.9308 314.245 80.383 314.396 80.8508 314.468C81.3884 314.571 81.9182 314.712 82.4364 314.888C83.7674 315.379 84.4297 316.22 84.4297 317.437C84.4349 317.85 84.3361 318.258 84.1425 318.623C83.9489 318.988 83.6666 319.299 83.3216 319.527C82.4792 320.088 81.48 320.367 80.4687 320.323C79.7453 320.338 79.0276 320.192 78.3672 319.896C77.7917 319.647 77.2929 319.249 76.9216 318.743C76.5862 318.279 76.4037 317.722 76.3994 317.15H78.7875C78.7883 317.347 78.8334 317.542 78.9194 317.719C79.0053 317.897 79.13 318.053 79.2842 318.176C79.6424 318.434 80.079 318.56 80.5196 318.533C80.9046 318.56 81.2882 318.464 81.615 318.259C81.7322 318.178 81.8273 318.069 81.8918 317.942C81.9564 317.816 81.9881 317.675 81.9843 317.532V317.532Z" fill="white"/>
<path id="Vector_55" d="M488.217 315.666V320.126H485.6V307.446H490.548C491.413 307.427 492.271 307.606 493.057 307.969C493.748 308.286 494.329 308.803 494.725 309.453C495.12 310.115 495.323 310.874 495.311 311.645C495.337 312.2 495.236 312.753 495.015 313.262C494.795 313.771 494.46 314.223 494.037 314.582C493.029 315.354 491.777 315.736 490.51 315.659L488.217 315.666ZM488.217 313.55H490.548C491.117 313.588 491.68 313.413 492.127 313.06C492.314 312.881 492.46 312.664 492.555 312.422C492.65 312.181 492.691 311.923 492.675 311.664C492.686 311.389 492.644 311.115 492.548 310.857C492.453 310.599 492.308 310.362 492.121 310.161C491.922 309.963 491.685 309.809 491.424 309.707C491.164 309.605 490.885 309.558 490.605 309.568H488.217V313.55Z" fill="white"/>
<path id="Vector_56" d="M502.304 320.132C502.171 319.868 502.084 319.584 502.049 319.291C501.751 319.624 501.384 319.888 500.974 320.064C500.564 320.24 500.12 320.324 499.673 320.31C498.834 320.339 498.014 320.053 497.375 319.508C497.084 319.259 496.851 318.949 496.695 318.6C496.539 318.25 496.462 317.87 496.47 317.488C496.448 317.042 496.537 316.598 496.731 316.196C496.924 315.794 497.216 315.448 497.578 315.188C498.531 314.595 499.643 314.313 500.762 314.379H501.921V313.818C501.94 313.44 501.82 313.068 501.584 312.773C501.448 312.633 501.282 312.525 501.099 312.457C500.917 312.389 500.721 312.362 500.527 312.378C500.168 312.357 499.813 312.465 499.527 312.684C499.408 312.786 499.314 312.915 499.252 313.06C499.19 313.204 499.162 313.361 499.17 313.518H496.623C496.626 312.971 496.804 312.44 497.133 312.002C497.5 311.515 497.993 311.138 498.559 310.912C499.214 310.639 499.919 310.505 500.629 310.517C501.626 310.461 502.609 310.771 503.392 311.39C503.737 311.697 504.009 312.077 504.186 312.503C504.364 312.928 504.443 313.389 504.418 313.85V317.94C504.386 318.635 504.514 319.329 504.793 319.966V320.113L502.304 320.132ZM500.221 318.386C500.578 318.389 500.93 318.304 501.246 318.138C501.537 317.998 501.78 317.777 501.947 317.501V315.882H501.004C499.731 315.882 499.094 316.315 498.992 317.156V317.303C498.988 317.449 499.015 317.594 499.072 317.728C499.129 317.862 499.215 317.982 499.323 318.08C499.572 318.294 499.894 318.404 500.221 318.386V318.386Z" fill="white"/>
<path id="Vector_57" d="M509.786 316.57L511.531 310.709H514.231L510.442 321.597L510.232 322.094C510.018 322.654 509.635 323.133 509.136 323.465C508.637 323.796 508.047 323.963 507.449 323.942C507.071 323.94 506.696 323.884 506.334 323.776V321.865H506.716C507.084 321.886 507.45 321.811 507.78 321.648C508.038 321.473 508.233 321.218 508.334 320.922L508.633 320.145L505.328 310.696H508.041L509.786 316.57Z" fill="white"/>
<path id="Vector_58" d="M517.581 310.709L517.657 311.76C517.983 311.359 518.398 311.04 518.869 310.827C519.34 310.615 519.854 310.516 520.37 310.536C520.882 310.496 521.394 310.611 521.84 310.867C522.285 311.123 522.643 311.507 522.866 311.97C523.175 311.508 523.597 311.134 524.092 310.883C524.588 310.632 525.139 310.513 525.694 310.536C526.116 310.502 526.541 310.564 526.937 310.719C527.332 310.873 527.686 311.116 527.973 311.428C528.532 312.208 528.798 313.16 528.725 314.117V320.132H526.178V314.124C526.211 313.708 526.099 313.293 525.859 312.951C525.714 312.812 525.54 312.707 525.35 312.643C525.159 312.579 524.957 312.558 524.758 312.582C524.414 312.564 524.075 312.659 523.791 312.854C523.508 313.049 523.297 313.331 523.191 313.658V320.132H520.675V314.13C520.711 313.709 520.596 313.289 520.351 312.945C520.204 312.81 520.031 312.708 519.842 312.646C519.653 312.583 519.453 312.561 519.255 312.582C518.939 312.562 518.624 312.636 518.349 312.793C518.074 312.95 517.851 313.185 517.708 313.467V320.132H515.161V310.709H517.581Z" fill="white"/>
<path id="Vector_59" d="M534.991 320.31C534.373 320.335 533.756 320.235 533.177 320.016C532.599 319.797 532.07 319.464 531.622 319.036C531.187 318.59 530.849 318.058 530.63 317.475C530.411 316.891 530.315 316.269 530.349 315.646V315.404C530.333 314.524 530.521 313.652 530.897 312.856C531.235 312.143 531.776 311.545 532.45 311.135C533.146 310.724 533.942 310.514 534.749 310.53C535.314 310.5 535.878 310.593 536.402 310.804C536.927 311.014 537.399 311.336 537.787 311.747C538.584 312.717 538.982 313.954 538.901 315.207V316.233H532.903C532.96 316.8 533.22 317.327 533.635 317.717C534.064 318.093 534.619 318.291 535.189 318.271C535.624 318.291 536.058 318.206 536.454 318.023C536.849 317.84 537.195 317.565 537.462 317.22L538.698 318.603C538.312 319.157 537.784 319.597 537.169 319.877C536.484 320.182 535.74 320.33 534.991 320.31ZM534.705 312.543C534.478 312.535 534.252 312.577 534.044 312.665C533.835 312.753 533.647 312.885 533.495 313.053C533.152 313.465 532.943 313.972 532.896 314.506H536.399V314.302C536.411 313.835 536.247 313.38 535.94 313.028C535.78 312.864 535.587 312.737 535.374 312.653C535.161 312.57 534.933 312.532 534.705 312.543Z" fill="white"/>
<path id="Vector_60" d="M542.614 310.709L542.691 311.798C543.009 311.387 543.42 311.056 543.891 310.835C544.361 310.613 544.877 310.507 545.397 310.524C545.811 310.491 546.227 310.553 546.613 310.705C547 310.858 547.346 311.096 547.626 311.403C548.171 312.168 548.437 313.097 548.377 314.034V320.119H545.862V314.092C545.899 313.674 545.773 313.259 545.512 312.932C545.353 312.797 545.168 312.695 544.969 312.633C544.77 312.571 544.56 312.549 544.353 312.569C544.029 312.556 543.709 312.634 543.427 312.794C543.146 312.954 542.915 313.189 542.761 313.474V320.119H540.213V310.709H542.614Z" fill="white"/>
<path id="Vector_61" d="M553.293 308.389V310.709H554.904V312.544H553.293V317.246C553.27 317.513 553.342 317.779 553.497 317.997C553.603 318.084 553.725 318.148 553.857 318.186C553.988 318.224 554.125 318.236 554.261 318.22C554.509 318.223 554.756 318.204 555 318.163V320.075C554.507 320.228 553.994 320.305 553.478 320.304C551.712 320.304 550.812 319.412 550.778 317.628V312.531H549.402V310.683H550.81V308.364L553.293 308.389Z" fill="white"/>
<path id="Vector_62" d="M96.2361 185.173L99.4902 194.373L102.732 185.173H106.164V197.858H103.54V194.392L103.801 188.409L100.382 197.858H98.586L95.1726 188.416L95.4337 194.392V197.858H92.8228V185.173H96.2361Z" fill="white"/>
<path id="Vector_63" d="M113.736 197.858C113.61 197.589 113.524 197.304 113.481 197.011C113.185 197.345 112.818 197.61 112.407 197.786C111.997 197.963 111.552 198.046 111.106 198.03C110.269 198.059 109.452 197.775 108.813 197.234C108.521 196.984 108.287 196.673 108.13 196.323C107.973 195.973 107.895 195.592 107.903 195.208C107.881 194.762 107.971 194.318 108.165 193.917C108.358 193.515 108.649 193.168 109.011 192.907C109.966 192.321 111.076 192.039 112.195 192.098H113.354V191.563C113.372 191.183 113.252 190.81 113.016 190.512C112.88 190.372 112.714 190.265 112.531 190.198C112.349 190.131 112.153 190.105 111.959 190.123C111.602 190.102 111.249 190.211 110.966 190.429C110.845 190.531 110.749 190.659 110.687 190.804C110.624 190.949 110.595 191.106 110.603 191.264H108.087C108.088 190.717 108.264 190.186 108.59 189.747C108.957 189.26 109.451 188.883 110.017 188.658C110.674 188.382 111.38 188.245 112.093 188.256C113.09 188.203 114.073 188.515 114.857 189.136C115.201 189.442 115.472 189.822 115.648 190.248C115.825 190.674 115.902 191.135 115.875 191.595V195.679C115.843 196.376 115.971 197.072 116.251 197.711V197.858H113.736ZM111.653 196.106C112.012 196.109 112.367 196.024 112.685 195.857C112.973 195.716 113.214 195.495 113.379 195.22V193.596H112.437C111.163 193.596 110.526 194.035 110.424 194.902V195.055C110.42 195.199 110.447 195.344 110.505 195.477C110.562 195.61 110.647 195.729 110.755 195.826C111.008 196.03 111.329 196.13 111.653 196.106V196.106Z" fill="white"/>
<path id="Vector_64" d="M123.129 190.792C122.829 190.75 122.527 190.726 122.225 190.722C121.851 190.674 121.472 190.741 121.137 190.914C120.803 191.087 120.529 191.358 120.352 191.69V197.858H117.837V188.435H120.212L120.282 189.556C120.479 189.169 120.78 188.844 121.152 188.619C121.523 188.394 121.95 188.277 122.384 188.282C122.649 188.281 122.913 188.319 123.167 188.396L123.129 190.792Z" fill="white"/>
<path id="Vector_65" d="M127.765 194.08L126.854 194.984V197.858H124.339V184.478H126.854V191.888L127.345 191.251L129.758 188.422H132.777L129.37 192.347L133.057 197.858H130.166L127.765 194.08Z" fill="white"/>
<path id="Vector_66" d="M138.024 198.03C137.406 198.054 136.789 197.954 136.211 197.735C135.632 197.516 135.103 197.183 134.656 196.756C134.215 196.312 133.872 195.782 133.647 195.198C133.422 194.615 133.321 193.991 133.35 193.366V193.124C133.335 192.244 133.522 191.372 133.898 190.575C134.238 189.862 134.778 189.262 135.452 188.849C136.145 188.429 136.94 188.209 137.751 188.212C138.316 188.183 138.881 188.278 139.407 188.489C139.932 188.7 140.406 189.023 140.795 189.435C141.589 190.406 141.985 191.643 141.903 192.895V193.92H135.904C135.961 194.486 136.222 195.011 136.636 195.399C137.062 195.779 137.619 195.98 138.19 195.959C138.626 195.981 139.061 195.896 139.457 195.711C139.853 195.527 140.199 195.249 140.463 194.902L141.699 196.291C141.313 196.845 140.785 197.285 140.17 197.565C139.498 197.877 138.765 198.035 138.024 198.03V198.03ZM137.738 190.289C137.511 190.279 137.285 190.32 137.076 190.408C136.867 190.496 136.68 190.63 136.528 190.798C136.185 191.21 135.976 191.717 135.929 192.251H139.425V192.047C139.437 191.58 139.274 191.125 138.967 190.773C138.808 190.61 138.616 190.483 138.404 190.4C138.192 190.316 137.965 190.278 137.738 190.289V190.289Z" fill="white"/>
<path id="Vector_67" d="M146.341 186.115V188.435H147.952V190.282H146.341V194.984C146.316 195.249 146.389 195.514 146.545 195.73C146.65 195.819 146.771 195.885 146.903 195.925C147.035 195.964 147.173 195.976 147.309 195.959C147.557 195.963 147.804 195.942 148.048 195.896V197.807C147.555 197.958 147.042 198.033 146.526 198.03C144.762 198.03 143.858 197.138 143.826 195.36V190.263H142.45V188.416H143.826V186.096L146.341 186.115Z" fill="white"/>
<path id="Vector_68" d="M149.334 185.994C149.329 185.821 149.36 185.649 149.426 185.488C149.492 185.328 149.591 185.184 149.716 185.064C150.006 184.825 150.369 184.695 150.745 184.695C151.12 184.695 151.484 184.825 151.773 185.064C151.899 185.184 151.998 185.328 152.064 185.488C152.129 185.649 152.161 185.821 152.155 185.994C152.16 186.169 152.128 186.343 152.062 186.506C151.997 186.668 151.898 186.815 151.773 186.937C151.483 187.172 151.121 187.3 150.748 187.3C150.375 187.3 150.013 187.172 149.723 186.937C149.596 186.815 149.497 186.669 149.43 186.507C149.363 186.344 149.33 186.17 149.334 185.994V185.994ZM152.009 197.858H149.461V188.435H152.009V197.858Z" fill="white"/>
<path id="Vector_69" d="M156.396 188.435L156.479 189.524C156.796 189.111 157.207 188.781 157.678 188.559C158.149 188.337 158.666 188.231 159.186 188.25C159.599 188.218 160.015 188.281 160.401 188.433C160.787 188.586 161.134 188.824 161.414 189.129C161.953 189.897 162.216 190.824 162.16 191.761V197.858H159.644V191.831C159.681 191.412 159.558 190.996 159.3 190.665C158.976 190.398 158.559 190.27 158.141 190.308C157.817 190.294 157.495 190.371 157.212 190.531C156.93 190.691 156.698 190.927 156.543 191.213V197.858H154.027V188.435H156.396Z" fill="white"/>
<path id="Vector_70" d="M163.701 193.073C163.64 191.826 164.004 190.595 164.732 189.582C165.057 189.154 165.479 188.811 165.963 188.58C166.447 188.35 166.979 188.239 167.515 188.256C167.973 188.233 168.429 188.318 168.848 188.503C169.267 188.687 169.637 188.967 169.929 189.32L170.031 188.435H172.311V197.546C172.33 198.3 172.136 199.045 171.75 199.693C171.375 200.306 170.825 200.792 170.171 201.088C169.422 201.421 168.609 201.584 167.789 201.566C167.093 201.568 166.404 201.427 165.764 201.152C165.178 200.937 164.659 200.569 164.261 200.088L165.376 198.552C165.653 198.887 166.002 199.156 166.396 199.339C166.791 199.522 167.221 199.615 167.655 199.61C167.937 199.628 168.219 199.59 168.486 199.498C168.752 199.406 168.998 199.262 169.209 199.075C169.404 198.874 169.554 198.635 169.651 198.373C169.747 198.111 169.788 197.831 169.77 197.552V197.049C169.484 197.372 169.13 197.628 168.734 197.798C168.337 197.967 167.908 198.047 167.477 198.03C166.947 198.043 166.422 197.93 165.945 197.699C165.467 197.469 165.052 197.128 164.732 196.705C163.989 195.685 163.619 194.442 163.682 193.181L163.701 193.073ZM166.216 193.264C166.176 193.97 166.357 194.672 166.732 195.271C166.885 195.504 167.096 195.694 167.343 195.822C167.591 195.95 167.867 196.013 168.146 196.004C168.474 196.03 168.802 195.962 169.093 195.809C169.383 195.655 169.625 195.422 169.789 195.137V191.168C169.624 190.887 169.385 190.657 169.096 190.505C168.808 190.353 168.483 190.285 168.159 190.308C167.878 190.298 167.6 190.362 167.352 190.491C167.103 190.62 166.892 190.812 166.738 191.047C166.348 191.718 166.166 192.49 166.216 193.264Z" fill="white"/>
<path id="Vector_71" d="M401.648 195.246H397.069L396.197 197.858H393.42L398.139 185.173H400.559L405.303 197.858H402.527L401.648 195.246ZM397.776 193.13H400.96L399.368 188.377L397.776 193.13Z" fill="white"/>
<path id="Vector_72" d="M414.384 193.232C414.445 194.473 414.098 195.699 413.397 196.724C413.089 197.136 412.685 197.468 412.22 197.69C411.755 197.912 411.244 198.017 410.729 197.998C410.295 198.014 409.863 197.933 409.464 197.761C409.065 197.589 408.71 197.331 408.424 197.004V201.464H405.908V188.435H408.239L408.328 189.358C408.613 189.003 408.976 188.718 409.389 188.527C409.803 188.336 410.255 188.243 410.71 188.256C411.231 188.231 411.75 188.333 412.222 188.556C412.694 188.778 413.104 189.113 413.416 189.531C414.118 190.578 414.458 191.827 414.384 193.086V193.232ZM411.869 193.048C411.912 192.342 411.75 191.638 411.404 191.021C411.261 190.793 411.06 190.607 410.822 190.481C410.584 190.356 410.317 190.296 410.048 190.308C409.717 190.276 409.385 190.346 409.095 190.507C408.805 190.669 408.571 190.915 408.424 191.213V195.035C408.571 195.34 408.806 195.592 409.1 195.759C409.393 195.926 409.73 196.001 410.067 195.972C411.272 195.993 411.873 195.018 411.869 193.048V193.048Z" fill="white"/>
<path id="Vector_73" d="M424.427 193.232C424.488 194.474 424.139 195.701 423.433 196.724C423.125 197.136 422.721 197.468 422.256 197.69C421.791 197.912 421.28 198.017 420.765 197.998C420.331 198.013 419.9 197.932 419.501 197.76C419.102 197.588 418.747 197.33 418.46 197.004V201.464H415.944V188.435H418.275L418.364 189.358C418.651 189.004 419.015 188.719 419.43 188.528C419.844 188.337 420.296 188.244 420.752 188.256C421.273 188.231 421.793 188.333 422.264 188.556C422.736 188.778 423.147 189.113 423.459 189.531C424.158 190.579 424.498 191.827 424.427 193.086V193.232ZM421.88 193.048C421.922 192.342 421.761 191.638 421.415 191.021C421.274 190.793 421.074 190.606 420.837 190.48C420.6 190.355 420.333 190.295 420.065 190.308C419.733 190.276 419.4 190.345 419.109 190.506C418.818 190.668 418.582 190.914 418.434 191.213V195.035C418.581 195.34 418.817 195.592 419.11 195.759C419.404 195.926 419.741 196.001 420.077 195.972C421.3 195.993 421.909 195.018 421.905 193.048H421.88Z" fill="white"/>
<path id="Vector_74" d="M428.636 197.858H426.089V184.478H428.636V197.858Z" fill="white"/>
<path id="Vector_75" d="M430.693 185.994C430.69 185.822 430.721 185.651 430.786 185.491C430.85 185.331 430.947 185.186 431.069 185.064C431.359 184.825 431.724 184.694 432.101 184.694C432.477 184.694 432.842 184.825 433.132 185.064C433.379 185.314 433.517 185.65 433.517 186.001C433.517 186.352 433.379 186.688 433.132 186.937C432.851 187.188 432.483 187.318 432.107 187.301C431.733 187.318 431.367 187.188 431.088 186.937C430.961 186.816 430.86 186.67 430.792 186.507C430.724 186.345 430.69 186.17 430.693 185.994ZM433.368 197.858H430.821V188.435H433.368V197.858Z" fill="white"/>
<path id="Vector_76" d="M439.367 196.004C439.779 196.022 440.183 195.885 440.5 195.622C440.644 195.494 440.758 195.337 440.836 195.161C440.914 194.985 440.954 194.795 440.952 194.602H443.315C443.311 195.224 443.13 195.832 442.793 196.354C442.447 196.888 441.96 197.316 441.385 197.59C440.77 197.886 440.094 198.037 439.411 198.03C438.82 198.061 438.229 197.962 437.679 197.742C437.13 197.522 436.634 197.186 436.227 196.756C435.402 195.764 434.983 194.496 435.055 193.207V193.041C434.986 191.786 435.388 190.549 436.183 189.575C436.588 189.143 437.083 188.804 437.633 188.584C438.183 188.364 438.775 188.267 439.367 188.301C440.407 188.251 441.425 188.612 442.201 189.308C442.559 189.654 442.841 190.072 443.028 190.534C443.216 190.996 443.305 191.492 443.29 191.99H440.927C440.935 191.547 440.773 191.119 440.475 190.792C440.305 190.631 440.103 190.508 439.883 190.43C439.663 190.352 439.429 190.32 439.195 190.338C438.962 190.355 438.735 190.421 438.529 190.531C438.323 190.641 438.142 190.793 437.998 190.977C437.649 191.611 437.494 192.333 437.552 193.054V193.315C437.496 194.042 437.648 194.769 437.991 195.411C438.152 195.619 438.362 195.782 438.603 195.885C438.843 195.989 439.106 196.03 439.367 196.004V196.004Z" fill="white"/>
<path id="Vector_77" d="M450.192 197.858C450.066 197.59 449.982 197.304 449.944 197.011C449.647 197.345 449.281 197.61 448.87 197.786C448.46 197.962 448.015 198.045 447.569 198.03C446.73 198.06 445.911 197.776 445.27 197.234C444.977 196.984 444.744 196.673 444.587 196.323C444.429 195.973 444.351 195.592 444.359 195.208C444.337 194.761 444.428 194.317 444.623 193.915C444.817 193.513 445.11 193.167 445.474 192.907C446.428 192.32 447.539 192.038 448.658 192.098H449.817V191.563C449.838 191.184 449.72 190.81 449.486 190.512C449.349 190.373 449.183 190.266 449.001 190.199C448.818 190.132 448.622 190.106 448.428 190.123C448.069 190.102 447.715 190.211 447.429 190.429C447.308 190.531 447.212 190.659 447.15 190.804C447.087 190.949 447.058 191.106 447.066 191.264H444.518C444.519 190.717 444.696 190.186 445.021 189.747C445.389 189.259 445.885 188.882 446.454 188.658C447.109 188.382 447.814 188.245 448.524 188.256C449.521 188.203 450.504 188.515 451.288 189.136C451.633 189.442 451.905 189.822 452.082 190.248C452.26 190.674 452.339 191.134 452.313 191.595V195.679C452.277 196.377 452.406 197.073 452.689 197.711V197.858H450.192ZM448.116 196.106C448.473 196.109 448.826 196.024 449.142 195.857C449.431 195.718 449.672 195.497 449.836 195.22V193.596H448.919C447.645 193.596 447.008 194.035 446.906 194.902V195.055C446.903 195.199 446.931 195.343 446.988 195.476C447.046 195.609 447.131 195.728 447.238 195.826C447.485 196.026 447.799 196.126 448.116 196.106Z" fill="white"/>
<path id="Vector_78" d="M457.306 186.115V188.435H458.917V190.282H457.306V194.984C457.281 195.249 457.354 195.514 457.51 195.73C457.614 195.819 457.736 195.885 457.868 195.925C457.999 195.964 458.138 195.976 458.274 195.959C458.522 195.963 458.769 195.942 459.013 195.896V197.807C458.52 197.958 458.006 198.033 457.491 198.03C455.729 198.03 454.829 197.14 454.791 195.36V190.263H453.415V188.416H454.791V186.096L457.306 186.115Z" fill="white"/>
<path id="Vector_79" d="M460.305 185.994C460.302 185.822 460.333 185.651 460.398 185.491C460.463 185.331 460.559 185.186 460.681 185.064C460.972 184.825 461.336 184.694 461.713 184.694C462.089 184.694 462.454 184.825 462.744 185.064C462.87 185.184 462.969 185.328 463.035 185.488C463.101 185.649 463.132 185.821 463.127 185.994C463.13 186.17 463.098 186.344 463.031 186.507C462.964 186.669 462.864 186.815 462.738 186.937C462.457 187.188 462.089 187.318 461.713 187.301C461.339 187.318 460.973 187.188 460.694 186.937C460.568 186.815 460.468 186.669 460.401 186.507C460.334 186.344 460.302 186.17 460.305 185.994ZM462.974 197.858H460.426V188.435H462.974V197.858Z" fill="white"/>
<path id="Vector_80" d="M464.655 193.06C464.641 192.195 464.826 191.339 465.196 190.556C465.535 189.85 466.076 189.261 466.75 188.862C467.462 188.438 468.277 188.217 469.106 188.224C469.677 188.202 470.247 188.294 470.782 188.495C471.316 188.697 471.806 189.003 472.22 189.397C473.057 190.249 473.537 191.388 473.564 192.582V193.22C473.622 194.494 473.189 195.741 472.354 196.705C471.479 197.543 470.314 198.011 469.103 198.011C467.891 198.011 466.727 197.543 465.852 196.705C465 195.723 464.564 194.448 464.636 193.15L464.655 193.06ZM467.17 193.239C467.125 193.959 467.303 194.675 467.68 195.29C467.84 195.523 468.057 195.71 468.31 195.835C468.563 195.96 468.843 196.018 469.125 196.004C469.405 196.018 469.684 195.962 469.936 195.84C470.188 195.719 470.407 195.537 470.571 195.309C470.97 194.631 471.15 193.845 471.087 193.06C471.131 192.344 470.95 191.631 470.571 191.022C470.411 190.788 470.194 190.599 469.941 190.472C469.689 190.345 469.408 190.284 469.125 190.295C468.846 190.284 468.568 190.344 468.319 190.47C468.069 190.596 467.856 190.784 467.699 191.015C467.305 191.687 467.121 192.461 467.17 193.239V193.239Z" fill="white"/>
<path id="Vector_81" d="M477.449 188.435L477.525 189.524C477.843 189.112 478.254 188.781 478.724 188.56C479.195 188.338 479.712 188.232 480.232 188.25C480.645 188.217 481.061 188.279 481.448 188.431C481.834 188.584 482.18 188.822 482.46 189.129C483.004 189.895 483.269 190.823 483.212 191.761V197.858H480.665V191.831C480.7 191.412 480.575 190.995 480.314 190.665C480.154 190.532 479.969 190.432 479.77 190.371C479.571 190.309 479.362 190.288 479.155 190.308C478.832 190.294 478.511 190.372 478.229 190.532C477.948 190.692 477.717 190.928 477.563 191.213V197.858H475.048V188.435H477.449Z" fill="white"/>
<path id="Vector_82" d="M243.367 138.336V142.796H240.756V130.117H245.698C246.565 130.099 247.425 130.277 248.213 130.64C248.902 130.958 249.481 131.475 249.875 132.124C250.271 132.786 250.474 133.545 250.461 134.316C250.486 134.87 250.384 135.423 250.163 135.932C249.942 136.441 249.609 136.892 249.187 137.253C248.176 138.023 246.922 138.405 245.653 138.33L243.367 138.336ZM243.367 136.221H245.698C246.267 136.26 246.83 136.085 247.277 135.73C247.464 135.552 247.61 135.334 247.705 135.093C247.8 134.852 247.84 134.593 247.825 134.335C247.848 133.781 247.651 133.24 247.277 132.831C247.079 132.636 246.845 132.482 246.586 132.379C246.328 132.276 246.052 132.226 245.774 132.232H243.38L243.367 136.221Z" fill="white"/>
<path id="Vector_83" d="M257.383 135.737C257.083 135.696 256.781 135.675 256.479 135.673C255.523 135.673 254.899 135.992 254.606 136.635V142.803H252.059V133.379H254.434L254.504 134.501C254.701 134.114 255.001 133.791 255.371 133.566C255.741 133.34 256.167 133.223 256.6 133.226C256.865 133.225 257.128 133.262 257.383 133.335V135.737Z" fill="white"/>
<path id="Vector_84" d="M257.873 138.005C257.856 137.141 258.041 136.286 258.415 135.507C258.752 134.798 259.293 134.206 259.969 133.806C260.684 133.395 261.499 133.188 262.325 133.207C262.895 133.186 263.464 133.278 263.999 133.478C264.533 133.678 265.023 133.982 265.439 134.373C266.275 135.225 266.756 136.365 266.783 137.559V138.196C266.843 139.468 266.409 140.715 265.573 141.675C264.698 142.515 263.534 142.984 262.322 142.984C261.11 142.984 259.945 142.515 259.071 141.675C258.221 140.692 257.785 139.417 257.854 138.12L257.873 138.005ZM260.421 138.183C260.375 138.903 260.553 139.62 260.93 140.235C261.09 140.468 261.307 140.655 261.56 140.78C261.813 140.905 262.094 140.963 262.376 140.948C262.653 140.958 262.928 140.9 263.177 140.777C263.426 140.655 263.641 140.473 263.802 140.248C264.197 139.567 264.375 138.783 264.312 137.999C264.356 137.283 264.178 136.57 263.802 135.96C263.642 135.726 263.426 135.537 263.173 135.41C262.92 135.283 262.639 135.222 262.357 135.233C262.077 135.221 261.799 135.281 261.55 135.407C261.3 135.533 261.087 135.721 260.93 135.953C260.542 136.629 260.364 137.406 260.421 138.183V138.183Z" fill="white"/>
<path id="Vector_85" d="M271.756 139.732L273.508 133.36H276.138L272.954 142.783H270.546L267.362 133.36H269.992L271.756 139.732Z" fill="white"/>
<path id="Vector_86" d="M277.226 130.958C277.22 130.785 277.25 130.613 277.315 130.453C277.379 130.292 277.477 130.148 277.602 130.028C277.884 129.773 278.255 129.641 278.634 129.658C279.011 129.641 279.38 129.774 279.659 130.028C279.787 130.146 279.888 130.29 279.955 130.451C280.022 130.611 280.053 130.784 280.048 130.958C280.051 131.134 280.019 131.308 279.952 131.47C279.885 131.632 279.785 131.779 279.659 131.901C279.378 132.152 279.01 132.282 278.634 132.264C278.26 132.282 277.894 132.151 277.615 131.901C277.487 131.781 277.385 131.634 277.318 131.472C277.251 131.309 277.22 131.134 277.226 130.958ZM279.895 142.822H277.347V133.379H279.895V142.822Z" fill="white"/>
<path id="Vector_87" d="M281.576 138.024C281.51 136.777 281.857 135.543 282.563 134.513C282.872 134.09 283.28 133.749 283.752 133.521C284.225 133.293 284.746 133.185 285.269 133.207C285.701 133.197 286.129 133.283 286.523 133.461C286.916 133.639 287.265 133.902 287.543 134.233V129.423H290.09V142.803H287.804L287.683 141.802C287.401 142.176 287.035 142.478 286.615 142.683C286.194 142.887 285.731 142.99 285.263 142.981C284.745 142.996 284.231 142.884 283.766 142.655C283.301 142.427 282.899 142.088 282.595 141.668C281.863 140.599 281.504 139.318 281.576 138.024V138.024ZM284.091 138.209C284.05 138.917 284.211 139.622 284.556 140.241C284.696 140.467 284.894 140.652 285.129 140.776C285.364 140.901 285.628 140.96 285.894 140.948C286.237 140.973 286.579 140.892 286.874 140.715C287.169 140.538 287.403 140.275 287.543 139.961V136.24C287.406 135.927 287.176 135.665 286.884 135.488C286.592 135.311 286.253 135.229 285.913 135.252C284.703 135.252 284.091 136.24 284.091 138.209V138.209Z" fill="white"/>
<path id="Vector_88" d="M296.35 142.981C295.732 143.006 295.115 142.905 294.536 142.687C293.958 142.468 293.429 142.134 292.981 141.707C292.546 141.261 292.208 140.729 291.989 140.146C291.77 139.562 291.674 138.939 291.708 138.317V138.075C291.692 137.195 291.88 136.323 292.255 135.526C292.594 134.813 293.134 134.215 293.809 133.806C294.501 133.384 295.297 133.163 296.108 133.169C296.672 133.139 297.236 133.232 297.761 133.442C298.286 133.653 298.758 133.975 299.146 134.386C299.943 135.356 300.341 136.593 300.26 137.846V138.871H294.261C294.319 139.438 294.579 139.966 294.994 140.356C295.422 140.732 295.978 140.93 296.548 140.91C296.983 140.931 297.417 140.847 297.813 140.664C298.209 140.481 298.555 140.204 298.821 139.859L300.056 141.242C299.671 141.796 299.143 142.236 298.528 142.516C297.846 142.832 297.102 142.99 296.35 142.981ZM296.083 135.233C295.856 135.225 295.63 135.267 295.422 135.355C295.213 135.443 295.025 135.575 294.873 135.743C294.53 136.155 294.321 136.662 294.274 137.196H297.77V136.992C297.787 136.525 297.625 136.069 297.318 135.718C297.158 135.554 296.965 135.426 296.752 135.343C296.539 135.259 296.311 135.222 296.083 135.233V135.233Z" fill="white"/>
<path id="Vector_89" d="M306.947 135.737C306.647 135.696 306.345 135.675 306.043 135.673C305.67 135.623 305.291 135.689 304.956 135.861C304.621 136.033 304.347 136.303 304.17 136.635V142.803H301.623V133.379H303.998L304.068 134.501C304.266 134.114 304.567 133.79 304.938 133.565C305.309 133.34 305.736 133.223 306.17 133.226C306.435 133.226 306.698 133.263 306.953 133.335L306.947 135.737Z" fill="white"/>
<path id="Vector_90" d="M313.277 140.197C313.277 140.045 313.235 139.897 313.155 139.769C313.075 139.64 312.96 139.537 312.825 139.47C312.36 139.241 311.865 139.082 311.354 138.999C309.112 138.527 307.998 137.572 307.998 136.138C307.992 135.732 308.083 135.331 308.263 134.967C308.444 134.604 308.709 134.289 309.036 134.048C309.816 133.459 310.778 133.162 311.755 133.207C312.78 133.155 313.792 133.452 314.627 134.048C314.968 134.303 315.244 134.635 315.431 135.017C315.618 135.399 315.711 135.821 315.703 136.246H313.156C313.161 136.082 313.134 135.919 313.075 135.765C313.016 135.612 312.926 135.472 312.812 135.354C312.663 135.226 312.49 135.128 312.303 135.067C312.116 135.005 311.919 134.982 311.723 134.998C311.371 134.976 311.022 135.077 310.736 135.284C310.626 135.372 310.538 135.484 310.479 135.611C310.419 135.738 310.39 135.877 310.392 136.017C310.391 136.155 310.427 136.29 310.497 136.409C310.566 136.528 310.666 136.626 310.787 136.692C311.203 136.918 311.656 137.069 312.124 137.138C312.662 137.242 313.191 137.383 313.71 137.559C315.034 138.049 315.703 138.89 315.703 140.107C315.708 140.521 315.61 140.929 315.416 141.294C315.222 141.659 314.94 141.97 314.595 142.197C313.752 142.758 312.753 143.037 311.742 142.994C311.017 143.008 310.297 142.862 309.634 142.567C309.059 142.317 308.562 141.916 308.195 141.407C307.856 140.948 307.673 140.392 307.673 139.821H310.093C310.09 140.019 310.134 140.214 310.22 140.392C310.306 140.57 310.433 140.726 310.589 140.847C310.948 141.105 311.384 141.231 311.825 141.203C312.208 141.231 312.589 141.135 312.914 140.929C313.032 140.848 313.127 140.738 313.19 140.61C313.254 140.482 313.284 140.34 313.277 140.197V140.197Z" fill="white"/>
<path id="Vector_91" d="M45.9274 196.775L38.1709 188.25C38.068 188.102 37.9309 187.98 37.7714 187.896C37.6118 187.812 37.4343 187.767 37.2539 187.766H28.8161C28.5222 187.766 28.2404 187.882 28.0325 188.09C27.8247 188.298 27.708 188.58 27.708 188.874V210.83C27.708 211.125 27.8245 211.407 28.0322 211.616C28.2398 211.825 28.5216 211.943 28.8161 211.945H45.0677C45.3621 211.943 45.644 211.825 45.8516 211.616C46.0592 211.407 46.1757 211.125 46.1757 210.83V197.45C46.1694 197.204 46.0821 196.967 45.9274 196.775ZM38.3938 196.361V191.78L42.5395 196.361H38.3938ZM37.2794 198.584H43.9532V209.722H29.9432V189.97H36.1841V197.476C36.184 197.768 36.299 198.048 36.5041 198.255C36.7091 198.463 36.9877 198.581 37.2794 198.584V198.584Z" fill="#F9A74E"/>
<path id="Vector_92" d="M146.22 85.1977C146.026 84.4264 145.576 83.7442 144.942 83.2635C144.309 82.7829 143.531 82.5324 142.737 82.5535C141.387 82.5535 140.043 82.5535 138.693 82.5535C138.394 82.5535 138.253 82.5025 138.298 82.1649C138.317 81.9253 138.317 81.6845 138.298 81.4449C138.283 80.6741 137.968 79.9396 137.419 79.3981C136.871 78.8565 136.133 78.5507 135.362 78.5459C133.095 78.5459 130.828 78.5459 128.561 78.5459C127.957 78.5565 127.371 78.7504 126.879 79.102C126.388 79.4536 126.015 79.9462 125.81 80.5147C125.637 81.0836 125.576 81.681 125.632 82.2732C125.632 82.5026 125.568 82.5535 125.351 82.5471H121.276C121.027 82.5396 120.777 82.5545 120.531 82.5918C119.682 82.7273 118.913 83.1715 118.371 83.8394C117.829 84.5072 117.553 85.3516 117.595 86.2107C117.595 90.6707 117.595 95.1307 117.595 99.5907C117.587 99.8316 117.602 100.073 117.64 100.311C117.771 101.161 118.211 101.932 118.877 102.477C119.542 103.021 120.385 103.301 121.244 103.261C124.804 103.261 128.364 103.261 131.923 103.261H142.609C142.871 103.268 143.133 103.253 143.393 103.216C144.247 103.086 145.023 102.643 145.57 101.974C146.118 101.304 146.397 100.455 146.354 99.5907C146.354 95.1307 146.354 90.6707 146.354 86.2107C146.354 85.8686 146.309 85.528 146.22 85.1977V85.1977ZM127.631 81.5914C127.625 81.4553 127.647 81.3193 127.695 81.1919C127.744 81.0645 127.817 80.9483 127.912 80.8504C128.007 80.7526 128.121 80.6752 128.247 80.6229C128.372 80.5706 128.508 80.5447 128.644 80.5465H135.305C135.437 80.5395 135.568 80.5597 135.692 80.6057C135.815 80.6517 135.928 80.7226 136.023 80.814C136.118 80.9054 136.193 81.0154 136.244 81.137C136.294 81.2587 136.319 81.3895 136.317 81.5214C136.317 81.7635 136.317 82.0056 136.317 82.2413C136.317 82.4771 136.267 82.5599 136.012 82.5599C134.655 82.5599 133.299 82.5599 131.943 82.5599H127.905C127.689 82.5599 127.606 82.5153 127.625 82.2923C127.644 82.0693 127.631 81.8208 127.631 81.5914ZM119.607 86.1725C119.588 85.9526 119.617 85.731 119.692 85.5235C119.768 85.316 119.887 85.1275 120.044 84.9714C120.2 84.8153 120.388 84.6953 120.595 84.6199C120.803 84.5445 121.024 84.5155 121.244 84.535H142.673C143.029 84.5015 143.386 84.5968 143.678 84.8037C143.97 85.0106 144.178 85.3154 144.265 85.6628C144.304 85.8254 144.321 85.9926 144.316 86.1598C144.316 87.5147 144.316 88.8718 144.316 90.2311C144.337 90.4535 144.308 90.6778 144.232 90.8879C144.156 91.098 144.035 91.2886 143.876 91.4463C143.718 91.604 143.527 91.7247 143.317 91.7999C143.107 91.8751 142.882 91.9029 142.66 91.8813H135.923C135.693 91.8813 135.63 91.8367 135.63 91.5946C135.638 91.4529 135.617 91.3109 135.566 91.1785C135.515 91.046 135.436 90.9261 135.334 90.8269C135.232 90.7277 135.111 90.6516 134.977 90.6038C134.844 90.5559 134.701 90.5375 134.56 90.5497H129.363C129.219 90.5373 129.074 90.5564 128.938 90.6056C128.802 90.6548 128.678 90.733 128.575 90.8348C128.472 90.9366 128.393 91.0595 128.342 91.1951C128.291 91.3307 128.27 91.4756 128.281 91.62C128.281 91.8494 128.211 91.8813 128.001 91.8813H121.206C120.991 91.8953 120.776 91.8635 120.575 91.7878C120.374 91.712 120.192 91.5942 120.04 91.4422C119.888 91.2903 119.77 91.1075 119.694 90.9064C119.619 90.7052 119.587 90.4902 119.601 90.2757C119.595 88.9313 119.601 87.5615 119.607 86.1725ZM130.3 92.8497C130.3 92.6459 130.3 92.5503 130.561 92.563C131.038 92.563 131.522 92.563 132 92.563C132.477 92.563 132.961 92.563 133.439 92.563C133.605 92.563 133.649 92.6076 133.649 92.7733C133.649 93.2384 133.649 93.2384 133.191 93.2384C132.312 93.2384 131.433 93.2384 130.554 93.2384C130.198 93.2766 130.325 93.0409 130.3 92.8752V92.8497ZM144.31 99.8583C144.296 100.212 144.155 100.548 143.913 100.806C143.67 101.064 143.343 101.225 142.991 101.26C142.837 101.28 142.682 101.291 142.526 101.292H121.282C120.93 101.321 120.578 101.227 120.287 101.026C119.995 100.825 119.782 100.53 119.684 100.19C119.651 100.091 119.634 99.9878 119.633 99.8838C119.633 97.8067 119.633 95.7296 119.633 93.6207C120.906 94.1686 122.269 93.901 123.587 93.9329C125.059 93.9711 126.536 93.9329 128.007 93.9329C128.217 93.9329 128.313 93.9329 128.319 94.2132C128.31 94.3577 128.333 94.5023 128.385 94.6374C128.437 94.7725 128.517 94.8948 128.62 94.9962C128.723 95.0977 128.847 95.1758 128.983 95.2254C129.119 95.2749 129.264 95.2948 129.408 95.2836H134.573C134.715 95.2955 134.858 95.277 134.992 95.2293C135.127 95.1816 135.25 95.1058 135.353 95.007C135.456 94.9081 135.536 94.7885 135.59 94.6561C135.643 94.5236 135.667 94.3814 135.662 94.2387C135.662 93.9584 135.77 93.9329 136.005 93.9329H142.272C142.982 93.9866 143.695 93.8664 144.348 93.5825C144.316 95.7296 144.322 97.7812 144.31 99.8519V99.8583Z" fill="#2452C6"/>
<path id="Vector_93" d="M286.065 43.1517C285.879 43.1521 285.695 43.1062 285.53 43.0179L278.965 39.5646L272.393 43.0179C272.203 43.1171 271.989 43.1613 271.775 43.1455C271.561 43.1297 271.356 43.0547 271.183 42.9287C271.008 42.8033 270.872 42.6308 270.791 42.4312C270.709 42.2316 270.686 42.0131 270.724 41.801L271.998 34.4866L266.668 29.2812C266.513 29.1312 266.404 28.9409 266.352 28.7318C266.3 28.5228 266.308 28.3034 266.374 28.0985C266.44 27.8936 266.562 27.7114 266.727 27.5724C266.891 27.4335 267.092 27.3434 267.305 27.3124L274.647 26.242L277.927 19.5902C278.022 19.3966 278.169 19.2335 278.352 19.1195C278.535 19.0054 278.746 18.9449 278.962 18.9449C279.177 18.9449 279.388 19.0054 279.571 19.1195C279.754 19.2335 279.901 19.3966 279.996 19.5902L283.282 26.242L290.619 27.3697C290.832 27.4007 291.032 27.4908 291.196 27.6298C291.361 27.7687 291.483 27.9509 291.549 28.1559C291.615 28.3608 291.623 28.5802 291.571 28.7892C291.519 28.9982 291.41 29.1885 291.255 29.3385L285.944 34.5185L287.218 41.8329C287.253 42.0455 287.228 42.2636 287.146 42.4628C287.064 42.662 286.928 42.8344 286.753 42.9606C286.551 43.0972 286.309 43.1642 286.065 43.1517V43.1517ZM278.965 37.1053C279.151 37.1056 279.335 37.1516 279.5 37.2391L284.537 39.8832L283.575 34.2764C283.542 34.0923 283.554 33.9027 283.612 33.7248C283.67 33.5468 283.771 33.386 283.906 33.2569L287.976 29.2812L282.346 28.4656C282.161 28.4373 281.986 28.3645 281.835 28.2536C281.684 28.1426 281.562 27.9968 281.48 27.8285L278.933 22.7313L276.386 27.8285C276.303 27.9968 276.182 28.1426 276.031 28.2536C275.88 28.3645 275.705 28.4373 275.52 28.4656L269.973 29.2812L274.048 33.2569C274.181 33.388 274.28 33.5489 274.338 33.7263C274.396 33.9037 274.41 34.0923 274.38 34.2764L273.418 39.8832L278.449 37.2391C278.608 37.1554 278.785 37.1096 278.965 37.1053V37.1053Z" fill="#F9A74E"/>
<path id="Vector_94" d="M445.474 80.9282C445.352 80.6948 445.178 80.4922 444.966 80.3355C444.755 80.1788 444.51 80.0721 444.251 80.0234H432.999C432.005 80.3611 431.591 80.8645 431.591 81.7692V102.444C431.576 102.68 431.612 102.916 431.695 103.136C431.778 103.357 431.908 103.557 432.075 103.724C432.242 103.89 432.443 104.019 432.663 104.102C432.884 104.184 433.12 104.219 433.355 104.203H443.876C444.11 104.219 444.346 104.184 444.567 104.102C444.787 104.019 444.987 103.89 445.154 103.723C445.32 103.557 445.449 103.357 445.532 103.136C445.615 102.915 445.649 102.68 445.633 102.444C445.633 95.5548 445.633 88.6631 445.633 81.7692C445.648 81.4802 445.593 81.1918 445.474 80.9282ZM438.615 103.387C438.452 103.386 438.293 103.336 438.159 103.244C438.024 103.152 437.92 103.022 437.859 102.871C437.799 102.72 437.785 102.554 437.819 102.394C437.853 102.235 437.933 102.089 438.05 101.975C438.167 101.862 438.315 101.786 438.476 101.757C438.636 101.728 438.802 101.747 438.951 101.812C439.1 101.878 439.227 101.986 439.315 102.124C439.402 102.261 439.447 102.422 439.443 102.585C439.442 102.692 439.419 102.797 439.376 102.896C439.334 102.994 439.272 103.083 439.196 103.158C439.119 103.232 439.028 103.291 438.928 103.33C438.829 103.37 438.722 103.389 438.615 103.387ZM444.525 100.915C444.525 101.106 444.48 101.157 444.283 101.157H432.999C432.801 101.157 432.757 101.106 432.757 100.915V82.8587C432.757 82.6612 432.795 82.6102 432.999 82.6102H444.296C444.493 82.6102 444.538 82.6612 444.538 82.8587C444.538 85.8703 444.538 88.884 444.538 91.8998C444.538 94.9156 444.534 97.9207 444.525 100.915Z" fill="#2452C6" stroke="#2452C6" stroke-width="0.75" stroke-miterlimit="10"/>
<path id="Vector_95" d="M23.3268 209.416H23.2822V209.155C23.3117 209.19 23.3313 209.233 23.3391 209.279C23.3469 209.325 23.3427 209.372 23.3268 209.416Z" fill="#575757"/>
<path id="Vector_96" d="M531.521 195.558C531.268 195.539 531.015 195.539 530.763 195.558C530.355 195.558 530.355 195.558 530.355 195.15C530.355 193.876 530.355 192.602 530.355 191.327C530.363 191.151 530.335 190.975 530.271 190.81C530.208 190.645 530.11 190.495 529.986 190.37C529.861 190.245 529.712 190.147 529.548 190.082C529.383 190.018 529.207 189.988 529.031 189.996C527.757 190.034 526.483 189.996 525.242 189.996C524.656 189.996 524.694 190.034 524.694 189.441C524.694 188.588 524.694 187.734 524.694 186.893C524.71 186.708 524.684 186.521 524.62 186.347C524.556 186.172 524.455 186.014 524.323 185.883C524.192 185.752 524.033 185.651 523.858 185.588C523.684 185.524 523.497 185.5 523.312 185.517H509.066C508.745 185.511 508.423 185.535 508.105 185.587C507.298 185.72 506.562 186.125 506.016 186.733C505.572 187.21 505.305 187.823 505.258 188.473V207.026C505.28 207.108 505.28 207.194 505.258 207.275V207.339C505.28 207.708 505.378 208.069 505.547 208.398C505.716 208.727 505.952 209.017 506.239 209.25C506.965 209.896 507.911 210.239 508.882 210.206H529.171C529.33 210.199 529.487 210.161 529.632 210.093C529.776 210.025 529.905 209.929 530.012 209.81C530.119 209.692 530.201 209.553 530.253 209.402C530.306 209.251 530.327 209.091 530.317 208.931C530.317 208.791 530.317 208.651 530.317 208.511C530.317 207.32 530.317 206.128 530.317 204.93C530.317 204.624 530.317 204.605 530.642 204.599H531.279C531.426 204.622 531.577 204.615 531.722 204.579C531.867 204.542 532.003 204.477 532.122 204.387C532.241 204.296 532.34 204.182 532.414 204.052C532.488 203.923 532.535 203.779 532.552 203.63V196.501C532.524 196.245 532.404 196.008 532.214 195.835C532.025 195.661 531.778 195.563 531.521 195.558V195.558ZM507.551 206.631C507.551 201.878 507.551 197.123 507.551 192.366C507.551 192.143 507.589 192.085 507.818 192.162C508.162 192.26 508.519 192.301 508.875 192.283H527.706C527.961 192.283 528.025 192.34 528.025 192.595C528.025 193.525 528.025 194.456 528.025 195.392C528.025 195.583 527.98 195.641 527.783 195.634C527.096 195.587 526.405 195.636 525.732 195.781C524.823 196.036 524.008 196.552 523.389 197.265C522.761 197.988 522.39 198.898 522.335 199.854C522.279 200.81 522.542 201.757 523.083 202.547C523.485 203.152 524.027 203.651 524.664 204C525.3 204.35 526.012 204.54 526.738 204.554C527.095 204.554 527.451 204.554 527.808 204.554C527.98 204.554 528.025 204.599 528.025 204.771C528.025 205.733 528.025 206.682 528.025 207.67C528.025 207.874 527.961 207.906 527.776 207.906H508.825C508.652 207.93 508.475 207.914 508.31 207.859C508.144 207.803 507.993 207.71 507.87 207.586C507.746 207.463 507.653 207.312 507.598 207.147C507.543 206.981 507.526 206.804 507.551 206.631ZM522.07 187.817C522.274 187.817 522.331 187.868 522.325 188.071C522.325 188.664 522.325 189.257 522.325 189.849C522.325 190.027 522.268 190.059 522.102 190.059H508.729C508.575 190.071 508.421 190.051 508.275 190C508.129 189.949 507.996 189.868 507.882 189.763C507.769 189.658 507.679 189.531 507.617 189.39C507.556 189.248 507.524 189.096 507.524 188.941C507.524 188.787 507.556 188.634 507.617 188.493C507.679 188.351 507.769 188.224 507.882 188.119C507.996 188.014 508.129 187.933 508.275 187.883C508.421 187.832 508.575 187.811 508.729 187.823H515.346C517.606 187.823 519.835 187.829 522.07 187.817ZM526.745 202.318C526.266 202.305 525.805 202.136 525.432 201.837C525.058 201.538 524.793 201.125 524.675 200.661C524.552 200.191 524.588 199.693 524.775 199.244C524.963 198.795 525.292 198.42 525.713 198.177C526.047 197.987 526.424 197.884 526.808 197.877H530.101C530.247 197.877 530.292 197.915 530.285 198.062C530.285 198.75 530.285 199.438 530.285 200.126V202.133C530.285 202.261 530.285 202.343 530.113 202.337C528.993 202.318 527.884 202.318 526.745 202.318ZM526.904 198.986C526.608 198.987 526.322 199.098 526.103 199.296C525.883 199.495 525.744 199.768 525.713 200.062C525.722 200.363 525.845 200.649 526.056 200.863C526.268 201.077 526.552 201.203 526.853 201.216C526.999 201.219 527.145 201.194 527.281 201.141C527.418 201.088 527.542 201.008 527.648 200.907C527.754 200.806 527.839 200.685 527.898 200.551C527.957 200.417 527.989 200.273 527.993 200.126C527.996 199.98 527.971 199.834 527.918 199.698C527.865 199.561 527.785 199.436 527.684 199.33C527.583 199.224 527.462 199.139 527.328 199.08C527.194 199.021 527.05 198.989 526.904 198.986V198.986Z" fill="#F9A74E"/>
<path id="Vector_97" d="M528.005 200.101C528.003 200.249 527.971 200.395 527.912 200.531C527.852 200.667 527.766 200.79 527.659 200.893C527.552 200.995 527.425 201.075 527.287 201.129C527.149 201.182 527.001 201.207 526.853 201.203C526.552 201.19 526.268 201.064 526.056 200.85C525.845 200.636 525.722 200.35 525.713 200.05C525.744 199.755 525.883 199.482 526.103 199.284C526.322 199.085 526.608 198.974 526.904 198.973C527.199 198.978 527.48 199.099 527.686 199.31C527.892 199.522 528.007 199.806 528.005 200.101V200.101Z" fill="#F9A74E"/>
</g>
</g>
<defs>
<filter id="filter0_d_111_779" x="198.559" y="275.671" width="159.208" height="159.248" filterUnits="userSpaceOnUse" color-interpolation-filters="sRGB">
<feFlood flood-opacity="0" result="BackgroundImageFix"/>
<feColorMatrix in="SourceAlpha" type="matrix" values="0 0 0 0 0 0 0 0 0 0 0 0 0 0 0 0 0 0 127 0" result="hardAlpha"/>
<feOffset dx="1" dy="3"/>
<feGaussianBlur stdDeviation="20"/>
<feComposite in2="hardAlpha" operator="out"/>
<feColorMatrix type="matrix" values="0 0 0 0 0.0753472 0 0 0 0 0.196571 0 0 0 0 0.583333 0 0 0 1 0"/>
<feBlend mode="normal" in2="BackgroundImageFix" result="effect1_dropShadow_111_779"/>
<feBlend mode="normal" in="SourceGraphic" in2="effect1_dropShadow_111_779" result="shape"/>
</filter>
<filter id="filter1_d_111_779" x="2.896" y="165.793" width="68.0923" height="68.1176" filterUnits="userSpaceOnUse" color-interpolation-filters="sRGB">
<feFlood flood-opacity="0" result="BackgroundImageFix"/>
<feColorMatrix in="SourceAlpha" type="matrix" values="0 0 0 0 0 0 0 0 0 0 0 0 0 0 0 0 0 0 127 0" result="hardAlpha"/>
<feOffset/>
<feGaussianBlur stdDeviation="4.5"/>
<feComposite in2="hardAlpha" operator="out"/>
<feColorMatrix type="matrix" values="0 0 0 0 0.984314 0 0 0 0 0.580392 0 0 0 0 0.101961 0 0 0 1 0"/>
<feBlend mode="normal" in2="BackgroundImageFix" result="effect1_dropShadow_111_779"/>
<feBlend mode="normal" in="SourceGraphic" in2="effect1_dropShadow_111_779" result="shape"/>
</filter>
<filter id="filter2_d_111_779" x="484.955" y="164.532" width="68.0923" height="68.1176" filterUnits="userSpaceOnUse" color-interpolation-filters="sRGB">
<feFlood flood-opacity="0" result="BackgroundImageFix"/>
<feColorMatrix in="SourceAlpha" type="matrix" values="0 0 0 0 0 0 0 0 0 0 0 0 0 0 0 0 0 0 127 0" result="hardAlpha"/>
<feOffset/>
<feGaussianBlur stdDeviation="4.5"/>
<feComposite in2="hardAlpha" operator="out"/>
<feColorMatrix type="matrix" values="0 0 0 0 0.984314 0 0 0 0 0.580392 0 0 0 0 0.101961 0 0 0 1 0"/>
<feBlend mode="normal" in2="BackgroundImageFix" result="effect1_dropShadow_111_779"/>
<feBlend mode="normal" in="SourceGraphic" in2="effect1_dropShadow_111_779" result="shape"/>
</filter>
<filter id="filter3_d_111_779" x="94.8774" y="53.8731" width="74.0923" height="74.1176" filterUnits="userSpaceOnUse" color-interpolation-filters="sRGB">
<feFlood flood-opacity="0" result="BackgroundImageFix"/>
<feColorMatrix in="SourceAlpha" type="matrix" values="0 0 0 0 0 0 0 0 0 0 0 0 0 0 0 0 0 0 127 0" result="hardAlpha"/>
<feOffset/>
<feGaussianBlur stdDeviation="6"/>
<feComposite in2="hardAlpha" operator="out"/>
<feColorMatrix type="matrix" values="0 0 0 0 0.0552083 0 0 0 0 0.252829 0 0 0 0 0.883333 0 0 0 1 0"/>
<feBlend mode="normal" in2="BackgroundImageFix" result="effect1_dropShadow_111_779"/>
<feBlend mode="normal" in="SourceGraphic" in2="effect1_dropShadow_111_779" result="shape"/>
</filter>
<filter id="filter4_d_111_779" x="401.588" y="54.8731" width="74.0923" height="74.1176" filterUnits="userSpaceOnUse" color-interpolation-filters="sRGB">
<feFlood flood-opacity="0" result="BackgroundImageFix"/>
<feColorMatrix in="SourceAlpha" type="matrix" values="0 0 0 0 0 0 0 0 0 0 0 0 0 0 0 0 0 0 127 0" result="hardAlpha"/>
<feOffset/>
<feGaussianBlur stdDeviation="6"/>
<feComposite in2="hardAlpha" operator="out"/>
<feColorMatrix type="matrix" values="0 0 0 0 0.0552083 0 0 0 0 0.252829 0 0 0 0 0.883333 0 0 0 1 0"/>
<feBlend mode="normal" in2="BackgroundImageFix" result="effect1_dropShadow_111_779"/>
<feBlend mode="normal" in="SourceGraphic" in2="effect1_dropShadow_111_779" result="shape"/>
</filter>
<filter id="filter5_d_111_779" x="244.193" y="-3" width="68.0923" height="68.1176" filterUnits="userSpaceOnUse" color-interpolation-filters="sRGB">
<feFlood flood-opacity="0" result="BackgroundImageFix"/>
<feColorMatrix in="SourceAlpha" type="matrix" values="0 0 0 0 0 0 0 0 0 0 0 0 0 0 0 0 0 0 127 0" result="hardAlpha"/>
<feOffset/>
<feGaussianBlur stdDeviation="4.5"/>
<feComposite in2="hardAlpha" operator="out"/>
<feColorMatrix type="matrix" values="0 0 0 0 0.984314 0 0 0 0 0.580392 0 0 0 0 0.101961 0 0 0 1 0"/>
<feBlend mode="normal" in2="BackgroundImageFix" result="effect1_dropShadow_111_779"/>
<feBlend mode="normal" in="SourceGraphic" in2="effect1_dropShadow_111_779" result="shape"/>
</filter>
<radialGradient id="paint0_radial_111_779" cx="0" cy="0" r="1" gradientUnits="userSpaceOnUse" gradientTransform="translate(277.162 352.295) scale(39.6037 39.6238)">
<stop stop-color="#F9A74E"/>
<stop offset="1" stop-color="#E0790A"/>
</radialGradient>
<radialGradient id="paint1_radial_111_779" cx="0" cy="0" r="1" gradientUnits="userSpaceOnUse" gradientTransform="translate(227.109 417.2) scale(170.865 170.952)">
<stop stop-color="#E0790A"/>
<stop offset="1" stop-color="#F9A74E"/>
</radialGradient>
<clipPath id="clip0_111_779">
<rect width="555" height="469" fill="white"/>
</clipPath>
</defs>
</svg>
