<svg width="210" height="365" viewBox="0 0 210 365" fill="none" xmlns="http://www.w3.org/2000/svg">
<g id="ilustr.badlenguagesupport 1" clip-path="url(#clip0_122_578)">
<g id="Capa 2">
<path id="Vector" d="M187.075 281.266L42.0513 365C42.0513 365 44.4245 336.985 46.3138 323.939C46.8612 320.191 47.3653 316.552 48.113 313.02C49.9655 304.244 53.3068 296.118 62.4327 288.527C68.9484 283.099 81.8729 272.704 92.9649 263.824C92.9649 263.824 99.7009 269.749 111.631 264.722C112.125 264.518 112.632 264.288 113.143 264.054C113.653 263.72 114.144 263.356 114.645 262.993C125.326 255.148 131.869 243.317 133.104 240.96L137.673 239.368L143.271 237.428C152.537 234.197 161.503 231.152 166.223 229.68C170.265 228.418 173.289 228.502 175.589 229.573C180.312 231.76 182.015 238.076 183.286 245.387C185.186 256.263 187.075 281.266 187.075 281.266Z" fill="#FB941A"/>
<path id="Vector_2" d="M175.589 229.556C173.289 228.485 170.265 228.401 166.223 229.663C161.506 231.135 152.537 234.18 143.278 237.381L137.68 239.321L133.11 240.913C131.875 243.28 125.346 255.111 114.651 262.946C114.167 263.309 113.65 263.657 113.149 264.007C112.629 264.251 112.148 264.481 111.637 264.675C99.7075 269.702 92.9715 263.777 92.9715 263.777C81.8796 272.657 68.9384 283.052 62.4394 288.48C53.3134 296.071 49.9722 304.197 48.1196 312.973C47.3719 316.505 46.8679 320.144 46.3205 323.892C44.4312 336.948 42.0579 364.953 42.0579 364.953L-0.00683594 340.791C-0.00683594 340.791 2.36644 312.776 4.25572 299.73C6.14499 286.684 7.59366 274.963 20.378 264.318C26.8936 258.89 39.8148 248.494 50.9101 239.614C50.9101 239.614 57.6428 245.54 69.5726 240.512C70.0699 240.309 70.5739 240.078 71.088 239.845C71.5954 239.511 72.0894 239.144 72.5901 238.783C83.2715 230.938 89.8105 219.107 91.0455 216.751C103.289 212.474 117.702 207.517 124.158 205.497C128.08 204.272 131.041 204.316 133.317 205.297L134.946 206.188L175.589 229.556Z" fill="#C47116"/>
<path id="Vector_3" d="M133.324 240.513C133.324 240.513 133.251 240.666 133.107 240.93C131.872 243.297 125.343 255.127 114.648 262.962C114.164 263.326 113.647 263.673 113.146 264.024C112.625 264.268 112.145 264.498 111.634 264.692C99.7042 269.719 92.9683 263.794 92.9683 263.794C97.5346 260.122 97.1474 244.258 97.1474 244.258C99.1501 244.739 101.507 244.729 104.23 244.071C106.567 243.507 109.221 242.429 112.175 240.733C115.606 238.763 118.847 236.477 121.855 233.906L122.035 233.753C125.1 231.097 127.888 228.137 130.357 224.919C130.357 224.919 129.355 235.422 131.121 239.241C131.625 240.319 132.326 240.863 133.324 240.513Z" fill="#EAC194"/>
<path id="Vector_4" d="M92.9684 263.814L53.8043 241.267L50.917 239.598C55.4833 235.926 55.0961 220.062 55.0961 220.062L78.5819 233.582L97.1375 244.265C97.1375 244.265 97.5347 260.148 92.9684 263.814Z" fill="#D3A97F"/>
<path id="Vector_5" d="M121.868 233.916C118.86 236.487 115.62 238.773 112.188 240.743C109.234 242.449 106.594 243.527 104.244 244.081C101.52 244.749 99.17 244.749 97.1605 244.268L78.6049 233.586L55.1191 220.066C57.1219 220.543 59.4785 220.536 62.2056 219.879C64.5422 219.315 67.1958 218.236 70.1532 216.54C73.6469 214.529 76.9427 212.192 79.9968 209.56C83.0627 206.905 85.8509 203.946 88.3183 200.727C88.3183 200.727 86.7094 217.919 91.2724 216.31L121.868 233.916Z" fill="#EAC194"/>
<path id="Vector_6" d="M130.37 224.929C127.902 228.147 125.114 231.107 122.048 233.762L121.868 233.916L91.2693 216.303C86.7063 217.912 88.3152 200.72 88.3152 200.72L130.37 224.929Z" fill="#EAC194"/>
<path id="Vector_7" d="M141.472 129.642C133.361 125.159 118.013 126.781 105.329 137.033C104.965 137.323 104.604 137.624 104.244 137.934C103.589 138.495 102.944 139.079 102.308 139.687C97.2119 144.62 93.1635 150.531 90.4046 157.066C90.4046 157.066 78.0776 167.992 79.9769 183.211C81.8762 198.43 82.3402 203.822 82.3402 203.822L61.5581 191.857L56.905 189.187L40.2821 179.612C40.2821 179.612 39.8114 174.228 37.9222 159.002C36.0329 143.776 48.3499 132.857 48.3499 132.857C60.4433 104.788 88.739 98.6059 100.158 105.873L141.472 129.642Z" fill="#231407"/>
<path id="Vector_8" d="M145.861 166.927C144.433 163.402 143.488 162.324 140.641 160.698C137.794 159.072 136.378 150.653 136.378 150.653C118.02 164.774 108.42 168.319 103.419 168.309C98.3591 168.309 97.9986 164.654 97.9986 164.654C97.9986 170.629 91.3595 177.189 87.5676 186.993C83.7757 196.798 82.3504 203.822 82.3504 203.822C82.3504 203.822 81.8764 198.437 79.9871 183.211C78.0978 167.985 90.4148 157.066 90.4148 157.066C93.1737 150.531 97.2221 144.62 102.318 139.687C102.957 139.079 103.602 138.495 104.254 137.934C104.614 137.624 104.975 137.323 105.339 137.033C118.023 126.781 133.377 125.159 141.482 129.642C143.288 130.586 144.802 132.006 145.861 133.748C152.955 145.963 145.861 166.927 145.861 166.927Z" fill="#38230D"/>
<path id="Vector_9" d="M149.166 178.604C147.737 193.58 143.945 193.586 143.945 193.586C142.056 201.198 139.112 213.513 130.37 224.929C127.901 228.147 125.113 231.107 122.048 233.763C118.994 236.395 115.697 238.733 112.201 240.743C109.247 242.449 106.607 243.527 104.257 244.081C101.533 244.749 99.1833 244.749 97.1739 244.268C95.7642 243.937 94.4278 243.349 93.2318 242.532C86.5092 237.972 85.2207 227.51 85.2207 227.51C83.8855 229.543 82.8274 230.124 81.9562 229.727L81.7259 229.593C80.7078 228.899 79.9735 226.806 79.4194 224.168C78.5782 220.189 78.141 214.971 77.7304 211.44C77.7015 211.177 77.6714 210.923 77.6403 210.678C77.3298 208.171 77.7371 206.569 78.428 205.551C79.8233 203.478 82.3768 203.815 82.3768 203.815C82.3768 203.815 83.8054 196.805 87.594 186.987C91.3826 177.169 98.0251 170.629 98.0251 164.647C98.0251 164.647 98.3856 168.296 103.446 168.302C108.453 168.302 118.036 164.767 136.405 150.646C136.405 150.646 137.833 159.062 140.667 160.691C143.501 162.32 144.459 163.395 145.888 166.92C150.11 165.552 150.581 163.652 149.166 178.604Z" fill="#FFD9A8"/>
<path id="Vector_10" d="M85.1807 227.517C83.8456 229.55 82.7874 230.131 81.9162 229.733L81.6859 229.6C80.6678 228.905 79.9335 226.812 79.3794 224.175C78.5382 220.196 78.101 214.978 77.6904 211.446C77.6615 211.184 77.6314 210.93 77.6003 210.685C77.2898 208.178 77.6971 206.576 78.388 205.557C79.7833 203.484 82.3368 203.822 82.3368 203.822L61.5548 191.857L56.9017 189.187L40.2821 179.612C40.2821 179.612 37.7285 179.279 36.3333 181.345C35.6423 182.363 35.2351 183.966 35.5455 186.476C36.2765 192.368 37.0142 204.449 39.9516 205.557L44.2309 208.024C45.3491 211.496 47.4954 216.036 51.4508 218.53C51.7412 218.717 52.045 218.891 52.3554 219.051L93.1785 242.529C86.4692 237.975 85.1807 227.517 85.1807 227.517Z" fill="#E5BC8F"/>
<path id="Vector_11" d="M56.9015 189.18C56.8815 188.819 56.8682 188.622 56.8682 188.622L56.9015 189.18Z" fill="#E5BC8F"/>
</g>
<g id="Capa 3">
<path id="Vector_12" d="M209.596 15.7233V36.3905C209.596 47.053 202.062 60.0455 192.773 65.4101L150.121 90.0399L133.297 114.436V59.7785C133.297 49.116 140.828 36.1201 150.121 30.7555L192.773 6.12909C195.794 4.38318 198.631 3.66211 201.081 3.84905C202.084 3.91238 203.068 4.15195 203.988 4.55677C207.43 6.12242 209.596 10.0082 209.596 15.7233Z" fill="#D7DDF0"/>
<path id="Vector_13" d="M167.955 62.0751C167.878 62.0951 163.866 62.9631 160.107 61.4575C162.631 56.6204 164.657 50.9887 165.058 44.9865L167.584 43.5277V39.3582L159.45 44.0551V41.7884L155.818 43.8848V46.1515L147.68 50.8518V55.0213L150.05 53.6526C150.454 59.2142 152.497 62.5091 155.034 64.4252C152.784 67.9371 150.14 71.1797 147.153 74.0895L148.198 77.4679C151.745 73.9723 154.881 70.0824 157.544 65.874C162.007 67.7335 166.8 66.6953 166.89 66.6752L167.955 62.0751ZM161.409 47.0929C161.042 51.7665 159.517 56.1597 157.584 59.9853C155.628 58.3963 154.079 55.7791 153.702 51.5428L161.409 47.0929Z" fill="#03185B"/>
<path id="Vector_14" d="M179.047 39.1313C179.243 36.5078 180.087 33.9739 181.504 31.7571C182.868 29.5366 184.76 27.688 187.011 26.3758C189.372 25.0138 191.278 24.6399 192.729 25.2541C194.18 25.8684 194.907 27.286 194.909 29.5071C194.892 30.8516 194.639 32.1827 194.161 33.4396C193.663 34.8061 192.727 36.5397 191.354 38.6406C189.981 40.7415 189.137 42.266 188.824 43.2141C188.51 44.1733 188.353 45.5564 188.353 47.3635L185.402 49.066C185.402 46.6803 185.643 44.7942 186.123 43.4077C186.815 41.6159 187.711 39.9099 188.794 38.3235C190.084 36.3205 190.887 34.8917 191.2 34.0371C191.499 33.2656 191.658 32.4473 191.671 31.6202C191.671 30.1469 191.246 29.1777 190.396 28.7126C189.545 28.2452 188.433 28.4121 187.058 29.2033C184.388 30.7612 182.812 33.4418 182.331 37.2452L179.047 39.1313ZM188.707 54.0868L185.269 56.0697V52.1272L188.707 50.1243V54.0868Z" fill="#03185B" stroke="#03185B" stroke-miterlimit="10"/>
<path id="Vector_15" d="M203.988 4.55676C203.069 4.14735 202.085 3.90325 201.081 3.83569C198.631 3.64875 195.793 4.36982 192.773 6.11573L150.12 30.7555C140.828 36.1201 133.297 49.116 133.297 59.7785V114.436L126.835 110.62V55.9662C126.835 45.3037 134.365 32.3112 143.658 26.9466L186.307 2.3101C191.404 -0.634254 195.987 -0.667636 199.055 1.64245L203.988 4.55676Z" fill="#B2BBD1"/>
</g>
</g>
<defs>
<clipPath id="clip0_122_578">
<rect width="209.596" height="365" fill="white"/>
</clipPath>
</defs>
</svg>
