<svg width="340" height="270" viewBox="0 0 340 270" fill="none" xmlns="http://www.w3.org/2000/svg">
<g id="ilustr.badservice 1">
<g id="Capa 2">
<path id="Vector" d="M207.164 248.814L202.111 250.924L169.826 264.402C174.86 261.76 179.334 258.164 182.999 253.814C193.338 241.606 198.232 222.908 195.683 199.166C189.423 140.9 140.697 74.3288 86.8412 50.4751C74.2088 44.8771 62.4173 42.1281 51.8484 41.9426C44.1134 41.8091 37.0303 43.0556 30.7549 45.5745L66.7775 30.4832L70.4265 28.9511H70.4709C85.1556 23.5274 104.06 24.8703 125.342 34.3005C179.195 58.1506 227.924 124.726 234.188 182.991C237.719 215.915 226.935 239.15 207.164 248.814Z" fill="#C61A17"/>
<path id="Vector_2" d="M182.999 253.814C179.334 258.164 174.86 261.76 169.826 264.402L162.417 267.503C148.025 272.111 129.858 270.471 109.513 261.475C55.6605 237.621 6.93503 171.046 0.674409 112.78C-3.0301 78.1833 9.05402 54.2961 30.7662 45.5856C37.0416 43.0704 44.1246 41.8202 51.8596 41.9538C62.4286 42.1281 74.2201 44.8771 86.8525 50.4862C140.709 74.34 189.434 140.912 195.695 199.177C198.232 222.908 193.339 241.606 182.999 253.814Z" fill="url(#paint0_radial_130_460)"/>
<path id="Vector_3" d="M60.032 188.374C59.7838 188.571 59.6616 188.69 59.6393 188.701C57.5278 190.593 53.3639 189.016 50.3299 185.173C47.2959 181.329 46.5476 176.688 48.6518 174.785C49.0037 174.459 52.7267 171.18 59.2133 168.438C54.2456 170.883 51.4153 173.383 51.1079 173.661C49.0074 175.564 49.7631 180.213 52.7934 184.049C55.0161 186.868 57.8538 188.467 60.032 188.374Z" fill="#E2E2E2"/>
<path id="Vector_4" d="M158.209 231.901C157.96 232.206 157.653 232.459 157.305 232.643C156.175 233.24 154.712 233.125 153.182 232.454C151.304 231.619 149.348 229.935 147.851 227.683C133.289 205.732 118.437 191.22 103.704 184.55C88.7345 177.757 76.4021 180.153 68.6338 183.414C76.1095 179.686 89.5013 175.865 106.168 183.414C120.893 190.092 135.745 204.597 150.311 226.548C151.793 228.8 153.763 230.484 155.642 231.318C156.444 231.701 157.321 231.9 158.209 231.901Z" fill="#E2E2E2"/>
<path id="Vector_5" d="M165.655 151.073C165.372 151.412 165.02 151.688 164.621 151.88C164.223 152.072 163.789 152.176 163.347 152.186L124.968 154.471C124.034 154.502 123.105 154.308 122.26 153.907C119.752 152.794 117.181 150.197 115.777 147.055C113.851 142.77 114.848 139.142 118 138.957H118.145C116.97 140.381 116.918 143.004 118.237 145.938C119.641 149.066 122.209 151.677 124.72 152.787C125.566 153.191 126.495 153.386 127.432 153.358L165.655 151.073Z" fill="#E2E2E2"/>
<path id="Vector_6" d="M81.3178 132.988C80.2546 134.286 78.3542 134.471 76.2834 133.54C75.2409 133.059 74.2787 132.42 73.4309 131.645L30.7068 93.4341C27.1949 90.2956 25.2834 85.3839 26.4317 82.4569C26.6544 81.8391 27.0645 81.3066 27.6046 80.934C28.1448 80.5615 28.7878 80.3675 29.4435 80.3794C29.2106 80.6675 29.0244 80.9905 28.8915 81.3365C27.7432 84.2598 29.6547 89.1716 33.1629 92.31L75.8907 130.521C76.7373 131.296 77.6997 131.935 78.7432 132.413C79.5483 132.793 80.4276 132.989 81.3178 132.988Z" fill="#E2E2E2"/>
<path id="Vector_7" d="M158.209 231.901C157.321 231.903 156.444 231.708 155.642 231.33C153.763 230.495 151.804 228.811 150.311 226.559C135.745 204.608 120.893 190.096 106.168 183.425C89.4975 175.865 76.1094 179.686 68.6337 183.425C65.5576 184.686 62.6644 186.354 60.0318 188.385C57.8462 188.478 55.0159 186.879 52.7932 184.064C49.7629 180.22 49.0072 175.572 51.1077 173.676C51.4151 173.398 54.2454 170.898 59.2131 168.453C68.4744 164.543 83.3739 161.735 102.185 170.204C120.997 178.673 139.401 196.395 156.96 222.86C159.283 226.34 159.728 230.072 158.209 231.901Z" fill="white"/>
<path id="Vector_8" d="M68.6336 183.414C66.2973 184.536 64.1035 185.933 62.0989 187.577C61.5251 188.078 60.7931 188.36 60.0317 188.374C62.6643 186.343 65.5575 184.674 68.6336 183.414Z" fill="white"/>
<path id="Vector_9" d="M165.655 151.073L127.432 153.354C126.495 153.383 125.566 153.187 124.72 152.783C122.208 151.67 119.641 149.073 118.237 145.935C116.918 143 116.97 140.37 118.145 138.953L156.394 136.671C159.542 136.482 163.658 139.806 165.585 144.091C166.9 147.029 166.848 149.655 165.655 151.073Z" fill="white"/>
<path id="Vector_10" d="M81.8699 132.053C81.7396 132.398 81.5531 132.719 81.318 133.002C80.4278 133.004 79.5485 132.808 78.7433 132.427C77.6999 131.949 76.7375 131.311 75.8909 130.535L33.163 92.3249C29.6549 89.1864 27.7433 84.2747 28.8917 81.3514C29.0245 81.0054 29.2108 80.6824 29.4437 80.3943C31.0329 80.3498 32.9889 81.1844 34.8708 82.865L77.5986 121.075C81.1105 124.199 83.022 129.115 81.8699 132.053Z" fill="white"/>
</g>
<g id="Capa 3">
<path id="Vector_11" d="M287.448 160.351C286.897 160.781 286.318 161.174 285.714 161.527C276.134 184.156 249.41 185.737 233.655 201.199C227.127 203.989 223.623 222.526 216.455 223.457H216.403L199.766 227.023C202.796 225.78 205.167 221.395 207.475 216.839C210.068 211.753 212.558 206.452 215.806 205.068C231.551 189.606 258.286 188.022 267.87 165.396C286.859 154.207 267.499 117.169 257.93 88.1625C242.794 51.102 248.521 53.2277 216.51 32.5754C197.777 22.0546 175.62 8.19118 157.464 4.69659C152.774 3.79141 148.351 3.58366 144.324 4.29965L160.368 0.82731C179.969 -4.22167 210.046 15.0617 234.351 28.7062C244.809 35.4505 251.229 39.765 255.674 43.8123L252.185 44.5543C250.856 44.7319 249.545 45.021 248.265 45.4186C247.843 66.9352 269.537 97.1735 274.412 121.688C278.72 141.449 281.717 153.157 287.448 160.351Z" fill="#E2B698"/>
<path id="Vector_12" d="M267.869 165.392C258.286 188.022 231.565 189.602 215.806 205.064C212.557 206.452 210.053 211.742 207.475 216.835C206.445 215.351 205.352 213.578 204.2 211.501C181.191 176.306 234.333 164.505 205.445 136.193C186.922 119.643 167.607 125.865 150.866 104.634C137.097 87.3165 151.566 85.5878 149.651 75.4602C135.711 54.3961 154.011 53.068 147.288 36.5077C143.524 22.9856 155.345 24.1134 156.253 15.247C155.093 10.6061 155.908 7.36009 157.464 4.68164C175.616 8.17623 197.776 22.0396 216.51 32.5605C248.521 53.2127 242.812 51.087 257.93 88.1475C267.503 117.165 286.859 154.204 267.869 165.392Z" fill="#F9D9C2"/>
<path id="Vector_13" d="M250.707 43.8604C251.988 43.4701 253.301 43.1884 254.63 43.0183L250.707 43.8604Z" fill="#F9D9C2"/>
<path id="Vector_14" d="M258.767 42.8478C257.386 42.7728 256.001 42.8274 254.629 43.011L258.123 42.269C258.341 42.4508 258.556 42.6474 258.767 42.8478Z" fill="#F9D9C2"/>
<path id="Vector_15" d="M322.033 172.441C303.511 170.745 293.79 168.315 287.448 160.351C281.717 153.157 278.72 141.449 274.415 121.687C269.54 97.1808 247.847 66.9351 248.265 45.4185L252.188 44.569C253.559 44.3891 254.942 44.3345 256.323 44.4058C259.848 44.6218 263.292 45.5533 266.447 47.1436C297.287 62.1866 320.57 134.623 322.07 166.012C322.19 168.153 322.177 170.3 322.033 172.441Z" fill="#133295"/>
<path id="Vector_16" d="M254.63 43.0183L250.707 43.8678C251.988 43.4751 253.3 43.1909 254.63 43.0183Z" fill="#03185B"/>
<path id="Vector_17" d="M267.869 165.392C258.286 188.022 231.565 189.602 215.806 205.064C212.557 206.452 210.053 211.742 207.475 216.835C205.167 221.391 202.796 225.776 199.766 227.019C199.256 227.232 198.71 227.347 198.158 227.36C195.068 227.445 191.305 224.281 186.359 215.359C163.35 180.172 216.488 168.371 187.6 140.051C169.078 123.498 149.766 129.715 133.025 108.492C119.256 91.1674 133.725 89.4423 131.806 79.3147C117.866 58.247 136.174 56.9263 129.447 40.3622C125.679 26.8439 137.504 27.9679 138.408 19.1053C136.641 12.016 139.467 8.16894 142.524 4.66692C143.116 4.51482 143.716 4.38498 144.328 4.27369C148.354 3.55771 152.778 3.76546 157.468 4.67064C175.62 8.16523 197.78 22.0286 216.514 32.5495C248.524 53.2017 242.816 51.076 257.934 88.1365C267.503 117.165 286.859 154.204 267.869 165.392Z" fill="#F9D9C2"/>
<path id="Vector_18" d="M339.878 168.579L322.033 172.441C322.179 170.301 322.192 168.154 322.074 166.012C320.592 134.623 297.291 62.1867 266.451 47.1437C263.296 45.5534 259.851 44.6219 256.326 44.4059C256.119 44.2092 255.904 44.0089 255.682 43.8123L266.11 41.553C308.104 28.7284 342.293 137.532 339.878 168.579Z" fill="#03185B"/>
</g>
</g>
<defs>
<radialGradient id="paint0_radial_130_460" cx="0" cy="0" r="1" gradientUnits="userSpaceOnUse" gradientTransform="translate(96.9686 156.144) rotate(7.49136) scale(106.159 106.304)">
<stop stop-color="#F96864"/>
<stop offset="1" stop-color="#F4342A"/>
</radialGradient>
</defs>
</svg>
