<svg width="1324" height="1119" viewBox="0 0 1324 1119" fill="none" xmlns="http://www.w3.org/2000/svg">
<g id="Ilustr.WhatisICO 1" clip-path="url(#clip0_21_2)">
<g id="Capa 3">
<path id="Vector" d="M89.5711 695.829L25.7805 658.98V585.267L89.6774 622.177L89.5711 695.829Z" fill="#FB941A"/>
<path id="Vector_2" d="M89.5712 695.829L153.377 658.98V585.267L89.4648 622.177L89.5712 695.829Z" fill="#E0790A"/>
<path id="Vector_3" d="M153.483 585.237L89.6775 548.372L25.887 585.237L89.7839 622.146L153.483 585.237Z" fill="#F9A74E"/>
<path id="Vector_4" d="M314.821 433.873L251.03 397.009V323.295L314.927 360.22L314.821 433.873Z" fill="#133295"/>
<path id="Vector_5" d="M314.821 433.873L378.626 397.009V323.295L314.714 360.22L314.821 433.873Z" fill="#03185B"/>
<path id="Vector_6" d="M378.718 323.265L314.927 286.401L251.136 323.265L315.033 360.175L378.718 323.265Z" fill="#2452C6"/>
<path id="Vector_7" d="M665.373 289.578L601.582 252.714V179L665.479 215.91L665.373 289.578Z" fill="#FB941A"/>
<path id="Vector_8" d="M665.372 289.578L729.178 252.714V179L665.266 215.91L665.372 289.578Z" fill="#E0790A"/>
<path id="Vector_9" d="M729.285 178.97L665.479 142.106L601.688 178.97L665.585 215.88L729.285 178.97Z" fill="#F9A74E"/>
<path id="Vector_10" d="M1046.51 437.962L982.7 401.113V327.4L1046.61 364.31L1046.51 437.962Z" fill="#133295"/>
<path id="Vector_11" d="M1046.51 437.962L1110.3 401.113V327.4L1046.4 364.31L1046.51 437.962Z" fill="#03185B"/>
<path id="Vector_12" d="M1110.4 327.354L1046.61 290.505L982.806 327.354L1046.72 364.279L1110.4 327.354Z" fill="#2452C6"/>
<path id="Vector_13" d="M1238.01 695.875L1174.22 659.026V585.297L1238.12 622.222L1238.01 695.875Z" fill="#FB941A"/>
<path id="Vector_14" d="M1238.01 695.875L1301.82 659.026V585.297L1237.91 622.222L1238.01 695.875Z" fill="#E0790A"/>
<path id="Vector_15" d="M1301.93 585.267L1238.12 548.418L1174.33 585.267L1238.23 622.192L1301.93 585.267Z" fill="#F9A74E"/>
</g>
<g id="Capa 5">
<path id="Vector_16" d="M655.118 589.463C602.786 589.463 551.629 604.991 508.116 634.084C464.604 663.177 430.69 704.529 410.663 752.909C390.636 801.289 385.396 854.525 395.606 905.885C405.816 957.245 431.016 1004.42 468.02 1041.45C505.025 1078.48 552.171 1103.7 603.498 1113.91C654.825 1124.13 708.026 1118.89 756.375 1098.85C804.724 1078.81 846.048 1044.87 875.122 1001.33C904.196 957.788 919.715 906.598 919.715 854.231C919.717 819.461 912.874 785.031 899.578 752.906C886.281 720.782 866.791 691.594 842.221 667.007C817.65 642.421 788.481 622.918 756.377 609.613C724.274 596.308 689.866 589.461 655.118 589.463ZM655.118 1083.7C609.748 1083.7 565.396 1070.24 527.672 1045.02C489.948 1019.79 460.546 983.943 443.183 941.999C425.821 900.055 421.278 853.901 430.129 809.373C438.981 764.845 460.828 723.944 492.91 691.842C524.992 659.739 565.867 637.877 610.365 629.02C654.864 620.163 700.988 624.708 742.905 642.082C784.822 659.456 820.648 688.878 845.855 726.626C871.061 764.375 884.515 808.755 884.515 854.155C884.515 884.3 878.582 914.149 867.053 941.999C855.525 969.849 838.628 995.154 817.326 1016.47C796.025 1037.78 770.736 1054.69 742.905 1066.23C715.073 1077.76 685.243 1083.7 655.118 1083.7Z" fill="url(#paint0_radial_21_2)"/>
<path id="Vector_17" d="M397.1 795.401L390.203 792.223" stroke="#FB941A" stroke-width="5" stroke-miterlimit="10"/>
<path id="Vector_18" d="M376.059 785.702L213.415 710.757" stroke="#FB941A" stroke-width="5" stroke-miterlimit="10" stroke-dasharray="10.25 10.25"/>
<path id="Vector_19" d="M206.351 707.504L199.438 704.327" stroke="#FB941A" stroke-width="5" stroke-miterlimit="10"/>
<path id="Vector_20" d="M912.772 796.921L919.669 793.744" stroke="#FB941A" stroke-width="5" stroke-miterlimit="10"/>
<path id="Vector_21" d="M933.812 787.222L1096.46 712.278" stroke="#FB941A" stroke-width="5" stroke-miterlimit="10" stroke-dasharray="10.25 10.25"/>
<path id="Vector_22" d="M1103.52 709.024L1110.43 705.847" stroke="#FB941A" stroke-width="5" stroke-miterlimit="10"/>
<path id="Vector_23" d="M655.118 589.448V400.125" stroke="#FB941A" stroke-width="5" stroke-miterlimit="10" stroke-dasharray="10 10"/>
<path id="Vector_24" d="M484.407 651.957L371.835 510.702" stroke="#FB941A" stroke-width="5" stroke-miterlimit="10" stroke-dasharray="10 10"/>
<path id="Vector_25" d="M825.829 651.957L938.385 510.702" stroke="#FB941A" stroke-width="5" stroke-miterlimit="10" stroke-dasharray="10 10"/>
</g>
<g id="Capa 6">
<g id="Vector_26" filter="url(#filter0_d_21_2)">
<path d="M88.128 536.621C121.127 536.621 147.877 509.853 147.877 476.833C147.877 443.813 121.127 417.044 88.128 417.044C55.1292 417.044 28.3784 443.813 28.3784 476.833C28.3784 509.853 55.1292 536.621 88.128 536.621Z" fill="#F8FAFF"/>
</g>
<g id="Vector_27" filter="url(#filter1_d_21_2)">
<path d="M1238.12 533.611C1271.12 533.611 1297.87 506.843 1297.87 473.823C1297.87 440.803 1271.12 414.035 1238.12 414.035C1205.12 414.035 1178.37 440.803 1178.37 473.823C1178.37 506.843 1205.12 533.611 1238.12 533.611Z" fill="#F8FAFF"/>
</g>
<g id="Vector_28" filter="url(#filter2_d_21_2)">
<path d="M314.714 276.745C347.713 276.745 374.464 249.977 374.464 216.957C374.464 183.937 347.713 157.169 314.714 157.169C281.716 157.169 254.965 183.937 254.965 216.957C254.965 249.977 281.716 276.745 314.714 276.745Z" fill="#F8FAFF"/>
</g>
<g id="Vector_29" filter="url(#filter3_d_21_2)">
<path d="M1046.4 279.131C1079.4 279.131 1106.15 252.363 1106.15 219.343C1106.15 186.323 1079.4 159.554 1046.4 159.554C1013.4 159.554 986.65 186.323 986.65 219.343C986.65 252.363 1013.4 279.131 1046.4 279.131Z" fill="#F8FAFF"/>
</g>
<g id="Vector_30" filter="url(#filter4_d_21_2)">
<path d="M663.762 133.892C696.761 133.892 723.512 107.124 723.512 74.104C723.512 41.0838 696.761 14.3156 663.762 14.3156C630.764 14.3156 604.013 41.0838 604.013 74.104C604.013 107.124 630.764 133.892 663.762 133.892Z" fill="#F8FAFF"/>
</g>
<path id="Vector_31" d="M23.1827 733.545V753.474C23.2631 754.925 23.0336 756.376 22.5097 757.731C21.9858 759.087 21.1795 760.315 20.1444 761.334C17.7246 763.194 14.7619 764.209 11.7105 764.222C8.65907 764.236 5.68737 763.248 3.251 761.41C2.19785 760.429 1.36786 759.233 0.81739 757.903C0.266919 756.574 0.00885463 755.141 0.0607188 753.702V733.545H6.30457V753.52C6.23593 754.3 6.32571 755.086 6.56851 755.831C6.81131 756.575 7.20212 757.263 7.71741 757.852C8.80296 758.799 10.2145 759.284 11.6521 759.205C15.1665 759.205 16.949 757.361 16.9996 753.672V733.545H23.1827Z" fill="white"/>
<path id="Vector_32" d="M35.093 735.795V741.328H38.9366V745.706H35.093V756.925C35.0339 757.56 35.2007 758.195 35.564 758.719C35.8171 758.925 36.1087 759.078 36.4218 759.169C36.7349 759.26 37.063 759.288 37.387 759.251C37.9823 759.257 38.577 759.211 39.1645 759.114V763.675C37.9834 764.039 36.7543 764.223 35.5184 764.222C31.3052 764.222 29.1581 762.094 29.0771 757.837V745.676H25.7349V741.267H29.0163V735.734L35.093 735.795Z" fill="white"/>
<path id="Vector_33" d="M42.2332 735.506C42.2247 735.094 42.2998 734.686 42.4539 734.304C42.6079 733.923 42.8378 733.576 43.1295 733.286C43.8228 732.716 44.6928 732.404 45.5906 732.404C46.4884 732.404 47.3583 732.716 48.0517 733.286C48.6398 733.881 48.9698 734.684 48.9698 735.521C48.9698 736.358 48.6398 737.161 48.0517 737.756C47.381 738.354 46.503 738.665 45.6058 738.622C44.7133 738.664 43.8402 738.353 43.1751 737.756C42.866 737.47 42.6219 737.121 42.4594 736.733C42.2969 736.345 42.2197 735.926 42.2332 735.506V735.506ZM48.6138 763.811H42.537V741.328H48.6138V763.811Z" fill="white"/>
<path id="Vector_34" d="M59.8863 763.811H53.8096V731.888H59.8863V763.811Z" fill="white"/>
<path id="Vector_35" d="M64.7932 735.506C64.7773 735.093 64.849 734.682 65.0035 734.3C65.158 733.917 65.3918 733.572 65.6895 733.286C66.3616 732.679 67.2461 732.362 68.1506 732.405C69.0503 732.363 69.9299 732.68 70.5965 733.286C70.9012 733.568 71.1418 733.912 71.3017 734.295C71.4616 734.678 71.5371 735.091 71.5232 735.506C71.5319 735.924 71.454 736.34 71.2946 736.728C71.1351 737.115 70.8974 737.465 70.5965 737.756C69.9043 738.316 69.0409 738.622 68.1506 738.622C67.2602 738.622 66.3969 738.316 65.7047 737.756C65.4064 737.463 65.1716 737.113 65.0148 736.726C64.8579 736.339 64.7825 735.923 64.7932 735.506V735.506ZM71.1585 763.811H65.0818V741.328H71.1585V763.811Z" fill="white"/>
<path id="Vector_36" d="M83.2969 735.795V741.328H87.1404V745.706H83.2969V756.925C83.2378 757.56 83.4045 758.195 83.7678 758.719C84.0232 758.926 84.3174 759.08 84.6331 759.171C84.9488 759.262 85.2796 759.289 85.606 759.251C86.1963 759.256 86.7859 759.21 87.3683 759.114V763.675C86.1927 764.04 84.9684 764.224 83.7374 764.222C79.5141 764.222 77.367 762.094 77.2961 757.837V745.676H74.0146V741.267H77.2961V735.734L83.2969 735.795Z" fill="white"/>
<path id="Vector_37" d="M98.8684 755.314L103.031 741.328H109.457L100.433 767.308L99.9319 768.493C99.4219 769.832 98.5059 770.977 97.3125 771.767C96.1191 772.558 94.7082 772.955 93.2778 772.902C92.3776 772.894 91.4829 772.761 90.6193 772.507V767.946H91.546C92.4221 767.996 93.2962 767.818 94.083 767.429C94.6999 767.011 95.1638 766.402 95.4047 765.696L96.1035 763.842L88.2341 741.298H94.6907L98.8684 755.314Z" fill="white"/>
<path id="Vector_38" d="M122.826 763.812V733.545H133.46C136.392 733.346 139.311 734.081 141.801 735.643C142.747 736.361 143.502 737.301 144 738.38C144.499 739.458 144.724 740.643 144.657 741.83C144.685 743.223 144.288 744.591 143.517 745.752C142.738 746.891 141.623 747.757 140.327 748.23C141.79 748.562 143.09 749.395 144.004 750.586C144.915 751.837 145.385 753.356 145.34 754.903C145.424 756.146 145.216 757.391 144.733 758.539C144.25 759.687 143.506 760.707 142.56 761.516C140.243 763.147 137.444 763.95 134.615 763.796L122.826 763.812ZM129.055 746.238H133.612C136.757 746.238 138.337 744.931 138.337 742.468C138.398 741.902 138.321 741.329 138.112 740.8C137.903 740.27 137.568 739.799 137.137 739.428C136.005 738.743 134.688 738.429 133.369 738.531H129.04L129.055 746.238ZM129.055 750.647V758.81H134.387C135.621 758.887 136.84 758.514 137.821 757.761C138.236 757.405 138.564 756.957 138.78 756.454C138.996 755.951 139.094 755.405 139.066 754.858C139.066 752.091 137.623 750.677 134.767 750.647H129.055Z" fill="white"/>
<path id="Vector_39" d="M149.533 735.506C149.525 735.094 149.6 734.686 149.754 734.304C149.908 733.923 150.138 733.576 150.43 733.286C151.123 732.716 151.993 732.404 152.891 732.404C153.788 732.404 154.658 732.716 155.352 733.286C155.651 733.571 155.887 733.916 156.045 734.299C156.202 734.681 156.276 735.092 156.263 735.506C156.272 735.924 156.194 736.34 156.035 736.728C155.875 737.115 155.637 737.465 155.337 737.756C154.666 738.354 153.788 738.665 152.891 738.622C151.998 738.664 151.125 738.353 150.46 737.756C150.154 737.469 149.912 737.12 149.752 736.731C149.593 736.343 149.518 735.925 149.533 735.506V735.506ZM155.914 763.811H149.837V741.328H155.914V763.811Z" fill="white"/>
<path id="Vector_40" d="M167.186 763.811H161.109V731.888H167.186V763.811Z" fill="white"/>
<path id="Vector_41" d="M178.459 763.811H172.382V731.888H178.459V763.811Z" fill="white"/>
<path id="Vector_42" d="M195.58 757.609C195.58 757.244 195.477 756.887 195.283 756.578C195.09 756.269 194.814 756.02 194.486 755.861C193.38 755.323 192.204 754.944 190.992 754.736C185.644 753.611 182.971 751.346 182.971 747.91C182.957 746.942 183.174 745.984 183.605 745.117C184.036 744.25 184.667 743.498 185.447 742.924C187.315 741.518 189.614 740.809 191.949 740.917C194.389 740.796 196.798 741.503 198.785 742.924C199.6 743.53 200.258 744.322 200.705 745.235C201.152 746.147 201.374 747.153 201.353 748.169H195.352C195.367 747.776 195.3 747.384 195.156 747.017C195.012 746.651 194.795 746.319 194.516 746.04C194.163 745.731 193.751 745.496 193.304 745.35C192.858 745.204 192.387 745.149 191.919 745.189C191.083 745.137 190.255 745.379 189.579 745.873C189.314 746.08 189.101 746.346 188.956 746.649C188.811 746.952 188.738 747.285 188.744 747.622C188.744 747.949 188.832 748.271 188.997 748.554C189.163 748.838 189.4 749.072 189.685 749.233C190.681 749.766 191.76 750.126 192.876 750.297C194.158 750.544 195.422 750.879 196.658 751.3C199.834 752.471 201.414 754.477 201.414 757.381C201.426 758.367 201.19 759.341 200.728 760.212C200.267 761.083 199.593 761.825 198.77 762.367C196.76 763.707 194.377 764.373 191.964 764.267C190.238 764.303 188.526 763.955 186.951 763.249C185.578 762.654 184.388 761.704 183.502 760.497C182.702 759.391 182.267 758.063 182.257 756.697H187.954C187.956 757.168 188.063 757.632 188.268 758.055C188.473 758.479 188.771 758.851 189.138 759.144C189.993 759.761 191.035 760.061 192.086 759.996C193.004 760.061 193.919 759.832 194.699 759.342C194.978 759.15 195.205 758.89 195.359 758.588C195.513 758.285 195.589 757.949 195.58 757.609V757.609Z" fill="white"/>
<path id="Vector_43" d="M1164.68 753.155V763.796H1158.44V733.545H1170.24C1172.31 733.499 1174.35 733.925 1176.23 734.791C1177.88 735.549 1179.26 736.782 1180.21 738.333C1181.15 739.913 1181.64 741.723 1181.61 743.563C1181.67 744.885 1181.43 746.205 1180.9 747.42C1180.37 748.635 1179.58 749.713 1178.57 750.571C1176.16 752.411 1173.17 753.322 1170.15 753.14L1164.68 753.155ZM1164.68 748.108H1170.24C1171.6 748.199 1172.94 747.782 1174.01 746.937C1174.46 746.511 1174.81 745.992 1175.03 745.417C1175.26 744.842 1175.36 744.225 1175.32 743.608C1175.35 742.952 1175.24 742.298 1175.02 741.682C1174.79 741.066 1174.44 740.501 1174 740.021C1173.52 739.55 1172.96 739.181 1172.33 738.938C1171.71 738.695 1171.05 738.582 1170.38 738.607H1164.68V748.108Z" fill="white"/>
<path id="Vector_44" d="M1198.29 763.811C1197.97 763.183 1197.76 762.504 1197.68 761.805C1196.97 762.6 1196.1 763.23 1195.12 763.65C1194.14 764.07 1193.08 764.27 1192.01 764.237C1190.01 764.307 1188.05 763.623 1186.53 762.322C1185.83 761.729 1185.28 760.989 1184.91 760.155C1184.53 759.322 1184.35 758.416 1184.37 757.503C1184.32 756.44 1184.53 755.38 1184.99 754.421C1185.46 753.462 1186.15 752.635 1187.02 752.015C1189.29 750.601 1191.94 749.927 1194.61 750.084H1197.38V748.747C1197.42 747.845 1197.13 746.958 1196.57 746.253C1196.25 745.92 1195.85 745.663 1195.42 745.5C1194.98 745.337 1194.51 745.272 1194.05 745.311C1193.19 745.261 1192.35 745.52 1191.66 746.041C1191.38 746.286 1191.16 746.593 1191.01 746.938C1190.86 747.283 1190.79 747.657 1190.81 748.032H1184.74C1184.74 746.727 1185.17 745.458 1185.95 744.414C1186.83 743.253 1188 742.354 1189.35 741.814C1190.92 741.163 1192.6 740.842 1194.29 740.872C1196.67 740.737 1199.02 741.478 1200.89 742.955C1201.71 743.685 1202.36 744.593 1202.78 745.609C1203.2 746.625 1203.39 747.723 1203.33 748.822V758.582C1203.25 760.241 1203.56 761.895 1204.23 763.416V763.766L1198.29 763.811ZM1193.32 759.646C1194.17 759.654 1195.01 759.45 1195.77 759.053C1196.46 758.72 1197.04 758.192 1197.44 757.533V753.672H1195.19C1192.15 753.672 1190.63 754.706 1190.39 756.712V757.062C1190.38 757.41 1190.44 757.756 1190.58 758.076C1190.72 758.396 1190.92 758.683 1191.18 758.916C1191.77 759.427 1192.54 759.688 1193.32 759.646V759.646Z" fill="white"/>
<path id="Vector_45" d="M1216.14 755.314L1220.3 741.328H1226.74L1217.7 767.308L1217.2 768.494C1216.69 769.829 1215.78 770.972 1214.59 771.763C1213.4 772.553 1211.99 772.952 1210.56 772.902C1209.66 772.896 1208.77 772.763 1207.9 772.507V767.946H1208.82C1209.69 767.996 1210.57 767.818 1211.35 767.429C1211.97 767.011 1212.43 766.402 1212.67 765.697L1213.39 763.842L1205.5 741.298H1211.98L1216.14 755.314Z" fill="white"/>
<path id="Vector_46" d="M1234.73 741.328L1234.91 743.836C1235.69 742.88 1236.68 742.118 1237.81 741.612C1238.93 741.105 1240.16 740.867 1241.39 740.918C1242.61 740.82 1243.83 741.095 1244.89 741.705C1245.96 742.316 1246.81 743.233 1247.34 744.338C1248.08 743.237 1249.09 742.343 1250.27 741.744C1251.45 741.145 1252.76 740.861 1254.09 740.918C1255.1 740.835 1256.11 740.984 1257.05 741.353C1257.99 741.722 1258.84 742.301 1259.53 743.046C1260.86 744.907 1261.49 747.178 1261.32 749.461V763.811H1255.24V749.476C1255.32 748.484 1255.05 747.494 1254.48 746.679C1254.14 746.347 1253.72 746.096 1253.27 745.944C1252.81 745.791 1252.33 745.741 1251.85 745.797C1251.04 745.754 1250.22 745.982 1249.55 746.447C1248.87 746.911 1248.37 747.586 1248.12 748.366V763.811H1242.12V749.491C1242.2 748.487 1241.93 747.484 1241.34 746.664C1240.99 746.343 1240.58 746.1 1240.13 745.95C1239.68 745.801 1239.2 745.749 1238.73 745.797C1237.97 745.751 1237.22 745.926 1236.57 746.302C1235.91 746.677 1235.38 747.236 1235.04 747.91V763.811H1228.96V741.328H1234.73Z" fill="white"/>
<path id="Vector_47" d="M1276.27 764.237C1274.79 764.296 1273.32 764.057 1271.94 763.535C1270.56 763.012 1269.3 762.217 1268.23 761.197C1267.19 760.132 1266.39 758.864 1265.86 757.472C1265.34 756.08 1265.11 754.594 1265.19 753.109V752.532C1265.16 750.431 1265.6 748.351 1266.5 746.451C1267.31 744.75 1268.6 743.323 1270.21 742.347C1271.86 741.365 1273.76 740.865 1275.69 740.902C1277.04 740.831 1278.38 741.054 1279.63 741.555C1280.88 742.056 1282.01 742.825 1282.94 743.806C1284.84 746.12 1285.79 749.071 1285.59 752.06V754.508H1271.28C1271.42 755.861 1272.04 757.119 1273.03 758.05C1274.05 758.946 1275.38 759.419 1276.74 759.372C1277.78 759.42 1278.81 759.217 1279.76 758.78C1280.7 758.344 1281.52 757.687 1282.16 756.864L1285.11 760.163C1284.19 761.486 1282.93 762.536 1281.46 763.203C1279.83 763.93 1278.05 764.283 1276.27 764.237ZM1275.58 745.706C1275.04 745.687 1274.5 745.786 1274.01 745.996C1273.51 746.206 1273.06 746.522 1272.7 746.922C1271.88 747.905 1271.38 749.114 1271.27 750.388H1279.62V749.902C1279.65 748.787 1279.26 747.702 1278.53 746.862C1278.15 746.471 1277.69 746.167 1277.18 745.968C1276.67 745.768 1276.13 745.679 1275.58 745.706Z" fill="white"/>
<path id="Vector_48" d="M1294.45 741.328L1294.63 743.928C1295.39 742.946 1296.37 742.158 1297.5 741.63C1298.62 741.101 1299.85 740.847 1301.09 740.887C1302.08 740.809 1303.07 740.957 1303.99 741.32C1304.91 741.684 1305.74 742.253 1306.41 742.985C1307.71 744.809 1308.34 747.027 1308.2 749.263V763.781H1302.2V749.4C1302.29 748.405 1301.99 747.413 1301.36 746.633C1300.98 746.311 1300.54 746.069 1300.07 745.92C1299.59 745.771 1299.09 745.719 1298.6 745.767C1297.83 745.736 1297.06 745.922 1296.39 746.303C1295.72 746.685 1295.17 747.247 1294.8 747.926V763.781H1288.72V741.328H1294.45Z" fill="white"/>
<path id="Vector_49" d="M1319.93 735.795V741.328H1323.77V745.706H1319.93V756.925C1319.87 757.562 1320.04 758.198 1320.41 758.719C1320.67 758.925 1320.96 759.078 1321.27 759.169C1321.59 759.26 1321.91 759.288 1322.24 759.251C1322.83 759.257 1323.42 759.211 1324 759.114V763.675C1322.82 764.04 1321.6 764.224 1320.37 764.222C1316.16 764.222 1314.01 762.094 1313.93 757.837V745.676H1310.65V741.267H1314V735.734L1319.93 735.795Z" fill="white"/>
<path id="Vector_50" d="M229.579 441.808L237.342 463.76L245.075 441.808H253.263V472.075H247.004V463.805L247.627 449.531L239.469 472.075H235.185L227.042 449.546L227.665 463.805V472.075H221.436V441.808H229.579Z" fill="white"/>
<path id="Vector_51" d="M271.326 472.075C271.026 471.434 270.821 470.753 270.719 470.053C270.012 470.851 269.137 471.483 268.158 471.904C267.178 472.324 266.118 472.523 265.052 472.485C263.056 472.555 261.106 471.878 259.583 470.585C258.886 469.991 258.329 469.249 257.953 468.413C257.578 467.577 257.392 466.667 257.411 465.751C257.36 464.688 257.575 463.63 258.036 462.671C258.498 461.713 259.191 460.885 260.054 460.263C262.332 458.865 264.981 458.192 267.65 458.333H270.415V457.056C270.46 456.149 270.173 455.258 269.61 454.547C269.285 454.215 268.89 453.959 268.453 453.799C268.017 453.639 267.551 453.577 267.088 453.62C266.236 453.569 265.394 453.828 264.718 454.35C264.43 454.593 264.202 454.899 264.052 455.244C263.902 455.589 263.834 455.965 263.852 456.341H257.851C257.853 455.038 258.274 453.769 259.051 452.723C259.927 451.561 261.104 450.662 262.454 450.124C264.021 449.466 265.708 449.139 267.407 449.166C269.787 449.038 272.131 449.784 274 451.264C274.822 451.994 275.468 452.902 275.889 453.918C276.31 454.935 276.495 456.033 276.431 457.132V466.876C276.353 468.54 276.66 470.199 277.327 471.725V472.075H271.326ZM266.359 467.894C267.215 467.902 268.061 467.698 268.82 467.301C269.507 466.965 270.082 466.437 270.476 465.781V461.905H268.227C265.189 461.905 263.67 462.954 263.427 465.021V465.386C263.416 465.732 263.482 466.076 263.618 466.393C263.755 466.711 263.959 466.995 264.217 467.225C264.819 467.714 265.586 467.953 266.359 467.894V467.894Z" fill="white"/>
<path id="Vector_52" d="M293.734 455.216C293.019 455.115 292.299 455.059 291.577 455.049C290.686 454.934 289.781 455.094 288.984 455.507C288.186 455.92 287.532 456.566 287.111 457.36V472.075H281.11V449.592H286.776L286.944 452.267C287.413 451.343 288.131 450.569 289.017 450.032C289.903 449.495 290.921 449.216 291.957 449.227C292.59 449.224 293.22 449.316 293.825 449.5L293.734 455.216Z" fill="white"/>
<path id="Vector_53" d="M304.794 463.06L302.622 465.219V472.075H296.621V440.151H302.622V457.831L303.791 456.311L309.549 449.561H316.75L308.622 458.925L317.419 472.075H310.521L304.794 463.06Z" fill="white"/>
<path id="Vector_54" d="M329.268 472.485C327.793 472.543 326.322 472.304 324.941 471.782C323.561 471.259 322.299 470.465 321.232 469.445C320.181 468.387 319.361 467.121 318.825 465.729C318.289 464.337 318.048 462.848 318.117 461.358V460.78C318.08 458.68 318.527 456.599 319.424 454.699C320.236 452.997 321.523 451.566 323.13 450.58C324.784 449.578 326.682 449.052 328.615 449.059C329.964 448.992 331.312 449.217 332.566 449.721C333.819 450.225 334.949 450.995 335.876 451.978C337.771 454.295 338.716 457.245 338.52 460.233V462.68H324.209C324.347 464.028 324.967 465.281 325.956 466.207C326.973 467.114 328.301 467.593 329.663 467.545C330.704 467.596 331.741 467.392 332.686 466.953C333.631 466.513 334.455 465.85 335.086 465.021L338.034 468.335C337.113 469.658 335.854 470.708 334.388 471.375C332.784 472.119 331.035 472.498 329.268 472.485V472.485ZM328.584 454.015C328.043 453.993 327.504 454.09 327.005 454.3C326.506 454.51 326.06 454.828 325.698 455.231C324.88 456.214 324.382 457.423 324.27 458.697H332.61V458.211C332.639 457.096 332.248 456.011 331.516 455.17C331.136 454.782 330.679 454.479 330.174 454.28C329.668 454.081 329.127 453.99 328.584 454.015V454.015Z" fill="white"/>
<path id="Vector_55" d="M349.109 444.058V449.591H352.952V454H349.109V465.219C349.049 465.851 349.222 466.483 349.595 466.997C349.844 467.21 350.135 467.368 350.449 467.462C350.763 467.556 351.093 467.585 351.418 467.545C352.009 467.554 352.599 467.503 353.18 467.393V471.953C352.004 472.313 350.779 472.493 349.549 472.485C345.341 472.485 343.184 470.357 343.108 466.116V453.954H339.826V449.546H343.108V444.012L349.109 444.058Z" fill="white"/>
<path id="Vector_56" d="M356.249 443.769C356.236 443.356 356.31 442.944 356.467 442.562C356.624 442.179 356.861 441.834 357.16 441.55C357.851 440.98 358.719 440.669 359.614 440.669C360.509 440.669 361.376 440.98 362.067 441.55C362.367 441.834 362.603 442.179 362.76 442.562C362.917 442.944 362.992 443.356 362.979 443.769C362.989 444.187 362.914 444.602 362.757 444.989C362.6 445.376 362.366 445.727 362.067 446.019C361.375 446.579 360.512 446.885 359.621 446.885C358.731 446.885 357.868 446.579 357.175 446.019C356.875 445.728 356.637 445.378 356.477 444.991C356.318 444.604 356.24 444.188 356.249 443.769V443.769ZM362.629 472.075H356.553V449.591H362.629V472.075Z" fill="white"/>
<path id="Vector_57" d="M373.097 449.592L373.294 452.191C374.051 451.206 375.031 450.417 376.154 449.888C377.277 449.359 378.51 449.106 379.751 449.151C380.738 449.075 381.729 449.225 382.65 449.588C383.571 449.952 384.398 450.519 385.068 451.248C386.353 453.08 386.979 455.293 386.845 457.527V472.075H380.845V457.694C380.933 456.696 380.64 455.702 380.024 454.912C379.25 454.276 378.257 453.97 377.259 454.061C376.485 454.027 375.718 454.211 375.043 454.593C374.369 454.975 373.816 455.538 373.446 456.219V472.075H367.445V449.592H373.097Z" fill="white"/>
<path id="Vector_58" d="M390.522 460.658C390.378 457.683 391.245 454.747 392.983 452.328C393.756 451.308 394.763 450.489 395.918 449.939C397.073 449.389 398.343 449.124 399.621 449.166C400.712 449.111 401.801 449.313 402.801 449.753C403.8 450.194 404.683 450.862 405.379 451.704L405.622 449.591H411.061V471.33C411.108 473.13 410.644 474.906 409.724 476.453C408.83 477.915 407.517 479.075 405.957 479.782C404.17 480.577 402.23 480.966 400.275 480.922C398.614 480.927 396.97 480.59 395.444 479.934C394.045 479.42 392.808 478.544 391.858 477.395L394.517 473.732C395.179 474.531 396.011 475.172 396.952 475.608C397.892 476.045 398.919 476.266 399.956 476.255C400.627 476.297 401.3 476.206 401.937 475.987C402.573 475.768 403.159 475.425 403.663 474.978C404.127 474.5 404.485 473.929 404.716 473.303C404.946 472.678 405.043 472.011 404.999 471.345V470.144C404.318 470.915 403.474 471.526 402.528 471.93C401.582 472.335 400.558 472.525 399.53 472.485C398.266 472.516 397.013 472.246 395.875 471.696C394.736 471.146 393.745 470.333 392.983 469.323C391.21 466.891 390.325 463.923 390.476 460.917L390.522 460.658ZM396.522 461.114C396.427 462.799 396.857 464.473 397.753 465.903C398.119 466.458 398.621 466.911 399.211 467.217C399.802 467.523 400.461 467.673 401.126 467.651C401.907 467.713 402.691 467.551 403.384 467.185C404.078 466.819 404.654 466.264 405.045 465.584V456.113C404.653 455.442 404.081 454.894 403.393 454.531C402.706 454.168 401.931 454.006 401.156 454.061C400.487 454.038 399.824 454.189 399.231 454.498C398.637 454.807 398.134 455.263 397.768 455.824C396.836 457.424 396.402 459.266 396.522 461.114Z" fill="white"/>
<path id="Vector_59" d="M958.165 465.842H947.242L945.161 472.075H938.537L949.794 441.808H955.567L966.885 472.075H960.262L958.165 465.842ZM948.928 460.795H956.524L952.726 449.455L948.928 460.795Z" fill="white"/>
<path id="Vector_60" d="M988.549 461.038C988.693 463.998 987.866 466.924 986.194 469.369C985.458 470.353 984.494 471.144 983.385 471.673C982.277 472.203 981.056 472.455 979.829 472.409C978.793 472.447 977.763 472.255 976.811 471.844C975.86 471.434 975.012 470.817 974.329 470.038V480.679H968.328V449.591H973.889L974.101 451.796C974.78 450.947 975.647 450.268 976.633 449.812C977.619 449.355 978.697 449.134 979.783 449.166C981.026 449.105 982.264 449.35 983.39 449.88C984.516 450.41 985.494 451.209 986.24 452.206C987.914 454.706 988.725 457.685 988.549 460.689V461.038ZM982.548 460.598C982.65 458.913 982.265 457.235 981.439 455.763C981.098 455.219 980.619 454.774 980.051 454.475C979.482 454.176 978.845 454.033 978.203 454.061C977.415 453.985 976.622 454.151 975.93 454.536C975.238 454.922 974.68 455.509 974.329 456.219V465.34C974.68 466.066 975.242 466.668 975.942 467.067C976.642 467.466 977.446 467.643 978.249 467.575C981.125 467.626 982.558 465.3 982.548 460.598V460.598Z" fill="white"/>
<path id="Vector_61" d="M1012.51 461.038C1012.65 464 1011.82 466.928 1010.14 469.369C1009.4 470.353 1008.44 471.144 1007.33 471.673C1006.22 472.203 1005 472.455 1003.77 472.409C1002.74 472.445 1001.71 472.251 1000.76 471.841C999.804 471.431 998.956 470.815 998.272 470.038V480.679H992.271V449.591H997.831L998.044 451.796C998.728 450.949 999.597 450.271 1000.59 449.815C1001.57 449.359 1002.65 449.137 1003.74 449.166C1004.98 449.105 1006.22 449.35 1007.35 449.88C1008.47 450.41 1009.45 451.209 1010.2 452.206C1011.87 454.709 1012.68 457.686 1012.51 460.689V461.038ZM1006.43 460.598C1006.53 458.913 1006.15 457.235 1005.32 455.763C1004.98 455.218 1004.51 454.772 1003.94 454.472C1003.38 454.173 1002.74 454.031 1002.1 454.061C1001.31 453.984 1000.51 454.149 999.82 454.535C999.125 454.92 998.564 455.508 998.211 456.219V465.34C998.561 466.066 999.124 466.668 999.824 467.067C1000.52 467.466 1001.33 467.643 1002.13 467.575C1005.05 467.626 1006.5 465.3 1006.49 460.598H1006.43Z" fill="white"/>
<path id="Vector_62" d="M1022.55 472.075H1016.47V440.151H1022.55V472.075Z" fill="white"/>
<path id="Vector_63" d="M1027.46 443.769C1027.45 443.358 1027.52 442.949 1027.68 442.567C1027.83 442.186 1028.06 441.84 1028.35 441.55C1029.04 440.979 1029.91 440.667 1030.81 440.667C1031.71 440.667 1032.58 440.979 1033.27 441.55C1033.86 442.145 1034.19 442.948 1034.19 443.784C1034.19 444.621 1033.86 445.424 1033.27 446.019C1032.6 446.617 1031.72 446.928 1030.83 446.886C1029.94 446.927 1029.06 446.616 1028.4 446.019C1028.09 445.729 1027.85 445.38 1027.69 444.993C1027.53 444.606 1027.45 444.189 1027.46 443.769ZM1033.84 472.075H1027.76V449.591H1033.84V472.075Z" fill="white"/>
<path id="Vector_64" d="M1048.15 467.651C1049.13 467.693 1050.09 467.368 1050.85 466.739C1051.19 466.434 1051.47 466.059 1051.65 465.64C1051.84 465.22 1051.93 464.766 1051.93 464.307H1057.57C1057.56 465.791 1057.12 467.241 1056.32 468.487C1055.49 469.762 1054.33 470.782 1052.96 471.436C1051.49 472.142 1049.88 472.501 1048.25 472.485C1046.84 472.558 1045.43 472.324 1044.12 471.799C1042.81 471.274 1041.63 470.471 1040.66 469.445C1038.69 467.078 1037.69 464.052 1037.86 460.978V460.582C1037.7 457.587 1038.65 454.637 1040.55 452.313C1041.52 451.281 1042.7 450.474 1044.01 449.948C1045.32 449.423 1046.74 449.192 1048.15 449.272C1050.63 449.152 1053.06 450.015 1054.91 451.674C1055.76 452.501 1056.43 453.498 1056.88 454.6C1057.33 455.702 1057.54 456.885 1057.5 458.074H1051.87C1051.89 457.018 1051.5 455.995 1050.79 455.216C1050.38 454.833 1049.9 454.539 1049.38 454.352C1048.85 454.165 1048.29 454.09 1047.74 454.132C1047.18 454.173 1046.64 454.33 1046.15 454.593C1045.66 454.855 1045.22 455.218 1044.88 455.657C1044.05 457.169 1043.68 458.892 1043.82 460.613V461.236C1043.68 462.969 1044.05 464.704 1044.87 466.237C1045.25 466.732 1045.75 467.121 1046.32 467.368C1046.9 467.615 1047.52 467.713 1048.15 467.651V467.651Z" fill="white"/>
<path id="Vector_65" d="M1073.97 472.075C1073.67 471.436 1073.47 470.754 1073.38 470.053C1072.67 470.85 1071.8 471.482 1070.82 471.902C1069.84 472.323 1068.78 472.522 1067.71 472.485C1065.71 472.556 1063.76 471.879 1062.23 470.585C1061.53 469.991 1060.98 469.249 1060.6 468.413C1060.22 467.577 1060.04 466.667 1060.06 465.751C1060 464.687 1060.22 463.626 1060.69 462.667C1061.15 461.708 1061.85 460.881 1062.72 460.263C1064.99 458.861 1067.64 458.188 1070.31 458.333H1073.08V457.056C1073.13 456.151 1072.85 455.259 1072.29 454.547C1071.96 454.216 1071.57 453.961 1071.13 453.801C1070.69 453.64 1070.23 453.579 1069.76 453.62C1068.91 453.57 1068.06 453.829 1067.38 454.35C1067.09 454.593 1066.86 454.899 1066.71 455.244C1066.56 455.589 1066.49 455.965 1066.51 456.341H1060.44C1060.44 455.038 1060.86 453.769 1061.64 452.723C1062.51 451.557 1063.7 450.658 1065.06 450.124C1066.62 449.465 1068.3 449.139 1069.99 449.166C1072.37 449.038 1074.72 449.784 1076.59 451.264C1077.41 451.994 1078.06 452.901 1078.48 453.917C1078.9 454.933 1079.09 456.032 1079.03 457.132V466.876C1078.95 468.54 1079.25 470.201 1079.93 471.725V472.075H1073.97ZM1069.02 467.894C1069.87 467.902 1070.71 467.698 1071.47 467.301C1072.16 466.97 1072.73 466.441 1073.12 465.781V461.905H1070.93C1067.9 461.905 1066.38 462.954 1066.13 465.021V465.386C1066.13 465.731 1066.19 466.074 1066.33 466.391C1066.47 466.709 1066.67 466.993 1066.92 467.226C1067.51 467.703 1068.26 467.941 1069.02 467.894Z" fill="white"/>
<path id="Vector_66" d="M1090.94 444.058V449.591H1094.79V454H1090.94V465.219C1090.88 465.851 1091.06 466.483 1091.43 466.997C1091.68 467.21 1091.97 467.368 1092.28 467.462C1092.6 467.556 1092.93 467.585 1093.25 467.545C1093.84 467.554 1094.43 467.503 1095.01 467.393V471.953C1093.84 472.313 1092.61 472.493 1091.38 472.485C1087.18 472.485 1085.03 470.362 1084.94 466.116V453.954H1081.66V449.546H1084.94V444.012L1090.94 444.058Z" fill="white"/>
<path id="Vector_67" d="M1098.1 443.769C1098.09 443.358 1098.16 442.949 1098.32 442.567C1098.47 442.186 1098.7 441.84 1098.99 441.55C1099.69 440.979 1100.56 440.667 1101.45 440.667C1102.35 440.667 1103.22 440.979 1103.92 441.55C1104.22 441.834 1104.45 442.179 1104.61 442.562C1104.77 442.944 1104.84 443.356 1104.83 443.769C1104.84 444.188 1104.76 444.604 1104.6 444.991C1104.44 445.378 1104.2 445.728 1103.9 446.019C1103.23 446.617 1102.35 446.928 1101.45 446.886C1100.56 446.927 1099.69 446.616 1099.02 446.019C1098.72 445.728 1098.49 445.378 1098.33 444.991C1098.17 444.604 1098.09 444.188 1098.1 443.769ZM1104.46 472.075H1098.39V449.591H1104.46V472.075Z" fill="white"/>
<path id="Vector_68" d="M1108.47 460.628C1108.44 458.564 1108.88 456.52 1109.76 454.654C1110.57 452.969 1111.86 451.562 1113.47 450.61C1115.17 449.599 1117.12 449.073 1119.09 449.09C1120.45 449.036 1121.81 449.256 1123.09 449.736C1124.37 450.217 1125.53 450.948 1126.52 451.887C1128.52 453.92 1129.66 456.638 1129.73 459.488V461.008C1129.87 464.048 1128.83 467.025 1126.84 469.323C1124.75 471.324 1121.97 472.44 1119.08 472.44C1116.19 472.44 1113.42 471.324 1111.33 469.323C1109.3 466.981 1108.26 463.938 1108.43 460.841L1108.47 460.628ZM1114.47 461.054C1114.37 462.772 1114.79 464.481 1115.69 465.948C1116.07 466.503 1116.59 466.95 1117.19 467.248C1117.8 467.546 1118.47 467.685 1119.14 467.651C1119.81 467.684 1120.47 467.55 1121.07 467.261C1121.67 466.971 1122.2 466.536 1122.59 465.994C1123.54 464.375 1123.97 462.501 1123.82 460.628C1123.92 458.918 1123.49 457.217 1122.59 455.763C1122.2 455.207 1121.69 454.756 1121.09 454.453C1120.48 454.15 1119.81 454.004 1119.14 454.03C1118.47 454.003 1117.81 454.147 1117.21 454.447C1116.62 454.748 1116.11 455.196 1115.73 455.748C1114.8 457.351 1114.36 459.199 1114.47 461.054V461.054Z" fill="white"/>
<path id="Vector_69" d="M1138.99 449.591L1139.18 452.191C1139.93 451.207 1140.91 450.418 1142.04 449.89C1143.16 449.361 1144.39 449.108 1145.63 449.151C1146.62 449.072 1147.61 449.22 1148.53 449.584C1149.46 449.947 1150.28 450.517 1150.95 451.248C1152.25 453.075 1152.88 455.29 1152.74 457.527V472.075H1146.67V457.694C1146.75 456.694 1146.45 455.7 1145.83 454.912C1145.45 454.595 1145.01 454.356 1144.53 454.21C1144.06 454.064 1143.56 454.013 1143.07 454.061C1142.29 454.028 1141.53 454.213 1140.86 454.595C1140.18 454.976 1139.63 455.539 1139.27 456.219V472.075H1133.27V449.591H1138.99Z" fill="white"/>
<path id="Vector_70" d="M580.572 330.06V340.701H574.343V310.45H586.132C588.201 310.406 590.252 310.832 592.133 311.696C593.777 312.457 595.157 313.69 596.098 315.238C597.043 316.817 597.527 318.628 597.495 320.468C597.554 321.79 597.311 323.109 596.785 324.323C596.259 325.537 595.462 326.616 594.457 327.476C592.044 329.313 589.053 330.225 586.026 330.045L580.572 330.06ZM580.572 325.013H586.132C587.49 325.107 588.834 324.69 589.899 323.843C590.346 323.416 590.695 322.898 590.921 322.323C591.146 321.748 591.244 321.13 591.206 320.513C591.262 319.192 590.792 317.902 589.899 316.926C589.428 316.459 588.868 316.092 588.252 315.846C587.636 315.601 586.977 315.482 586.314 315.497H580.602L580.572 325.013Z" fill="white"/>
<path id="Vector_71" d="M614.009 323.858C613.294 323.761 612.573 323.71 611.852 323.706C609.573 323.706 608.084 324.466 607.385 326.001V340.717H601.309V318.233H606.975L607.142 320.909C607.611 319.987 608.327 319.215 609.21 318.678C610.092 318.141 611.107 317.86 612.14 317.868C612.772 317.866 613.402 317.953 614.009 318.127V323.858Z" fill="white"/>
<path id="Vector_72" d="M615.179 329.27C615.137 327.21 615.58 325.168 616.47 323.311C617.274 321.619 618.565 320.205 620.177 319.252C621.885 318.27 623.829 317.776 625.798 317.823C627.159 317.771 628.516 317.991 629.791 318.468C631.066 318.946 632.234 319.672 633.227 320.605C635.223 322.638 636.369 325.356 636.432 328.206V329.726C636.576 332.761 635.542 335.735 633.546 338.026C631.461 340.03 628.681 341.149 625.79 341.149C622.899 341.149 620.12 340.03 618.035 338.026C616.008 335.68 614.968 332.64 615.133 329.543L615.179 329.27ZM621.256 329.695C621.145 331.413 621.57 333.123 622.471 334.59C622.852 335.146 623.369 335.594 623.973 335.892C624.577 336.19 625.247 336.328 625.919 336.293C626.581 336.317 627.237 336.176 627.831 335.885C628.425 335.593 628.937 335.159 629.322 334.621C630.264 332.998 630.688 331.125 630.538 329.254C630.645 327.546 630.22 325.847 629.322 324.39C628.941 323.833 628.424 323.382 627.821 323.079C627.218 322.776 626.548 322.631 625.874 322.657C625.207 322.628 624.544 322.771 623.949 323.072C623.353 323.373 622.844 323.821 622.471 324.375C621.544 325.987 621.121 327.84 621.256 329.695V329.695Z" fill="white"/>
<path id="Vector_73" d="M648.297 333.389L652.475 318.188H658.749L651.153 340.671H645.41L637.814 318.188H644.089L648.297 333.389Z" fill="white"/>
<path id="Vector_74" d="M661.347 312.457C661.331 312.044 661.403 311.633 661.557 311.251C661.712 310.868 661.945 310.523 662.243 310.237C662.915 309.63 663.8 309.313 664.704 309.355C665.604 309.314 666.484 309.631 667.15 310.237C667.455 310.519 667.695 310.863 667.855 311.246C668.015 311.629 668.091 312.042 668.077 312.457C668.085 312.875 668.008 313.291 667.848 313.678C667.689 314.065 667.451 314.415 667.15 314.706C666.479 315.304 665.601 315.615 664.704 315.573C663.812 315.615 662.939 315.303 662.274 314.706C661.967 314.42 661.726 314.07 661.566 313.682C661.406 313.294 661.332 312.876 661.347 312.457ZM667.712 340.762H661.636V318.233H667.712V340.762Z" fill="white"/>
<path id="Vector_75" d="M671.723 329.315C671.567 326.34 672.394 323.397 674.077 320.939C674.814 319.928 675.789 319.115 676.915 318.571C678.041 318.027 679.284 317.77 680.534 317.823C681.563 317.798 682.585 318.005 683.524 318.428C684.463 318.852 685.295 319.481 685.957 320.27V308.793H692.034V340.717H686.58L686.292 338.33C685.62 339.222 684.746 339.941 683.743 340.43C682.739 340.919 681.635 341.163 680.519 341.142C679.283 341.178 678.058 340.911 676.948 340.366C675.839 339.82 674.88 339.012 674.153 338.011C672.407 335.46 671.552 332.403 671.723 329.315V329.315ZM677.723 329.756C677.625 331.445 678.01 333.127 678.832 334.605C679.166 335.145 679.638 335.586 680.199 335.882C680.76 336.179 681.389 336.321 682.023 336.293C682.841 336.352 683.657 336.157 684.361 335.736C685.065 335.314 685.623 334.686 685.957 333.937V325.059C685.631 324.313 685.082 323.686 684.386 323.265C683.689 322.843 682.88 322.647 682.068 322.703C679.182 322.703 677.723 325.059 677.723 329.756V329.756Z" fill="white"/>
<path id="Vector_76" d="M706.968 341.142C705.493 341.201 704.021 340.962 702.641 340.44C701.26 339.917 699.998 339.122 698.931 338.102C697.893 337.038 697.087 335.769 696.564 334.377C696.041 332.985 695.813 331.5 695.893 330.015V329.437C695.856 327.337 696.303 325.256 697.199 323.356C698.008 321.655 699.296 320.228 700.906 319.252C702.557 318.243 704.457 317.717 706.39 317.732C707.737 317.66 709.082 317.883 710.334 318.384C711.585 318.885 712.712 319.654 713.637 320.635C715.539 322.949 716.489 325.9 716.296 328.89V331.337H701.985C702.121 332.69 702.742 333.948 703.732 334.879C704.755 335.775 706.08 336.248 707.439 336.202C708.478 336.252 709.514 336.05 710.458 335.613C711.402 335.176 712.227 334.518 712.862 333.693L715.809 336.992C714.889 338.315 713.63 339.365 712.163 340.033C710.536 340.786 708.761 341.165 706.968 341.142ZM706.33 322.657C705.789 322.638 705.251 322.736 704.752 322.946C704.254 323.156 703.807 323.473 703.443 323.873C702.626 324.856 702.127 326.065 702.015 327.339H710.356V326.853C710.396 325.739 710.01 324.651 709.277 323.812C708.895 323.422 708.435 323.117 707.927 322.918C707.419 322.719 706.875 322.63 706.33 322.657V322.657Z" fill="white"/>
<path id="Vector_77" d="M732.247 323.858C731.532 323.761 730.811 323.71 730.09 323.706C729.2 323.588 728.296 323.744 727.498 324.155C726.7 324.565 726.046 325.209 725.623 326.001V340.717H719.547V318.233H725.213L725.38 320.909C725.851 319.986 726.57 319.213 727.455 318.676C728.341 318.139 729.358 317.859 730.394 317.868C731.025 317.868 731.654 317.955 732.262 318.127L732.247 323.858Z" fill="white"/>
<path id="Vector_78" d="M747.348 334.499C747.348 334.138 747.247 333.784 747.056 333.478C746.866 333.172 746.593 332.925 746.269 332.766C745.162 332.219 743.979 331.84 742.76 331.641C737.412 330.516 734.754 328.236 734.754 324.816C734.74 323.847 734.957 322.889 735.388 322.022C735.819 321.155 736.45 320.403 737.23 319.829C739.092 318.424 741.387 317.714 743.717 317.823C746.162 317.699 748.576 318.406 750.568 319.829C751.382 320.436 752.04 321.229 752.487 322.141C752.933 323.053 753.156 324.058 753.136 325.074H747.059C747.072 324.682 747.006 324.292 746.865 323.926C746.724 323.561 746.511 323.227 746.239 322.946C745.884 322.639 745.471 322.405 745.025 322.259C744.579 322.113 744.109 322.057 743.641 322.094C742.801 322.042 741.968 322.284 741.286 322.778C741.025 322.988 740.815 323.254 740.673 323.557C740.531 323.86 740.46 324.192 740.466 324.527C740.463 324.855 740.549 325.178 740.715 325.462C740.881 325.746 741.12 325.979 741.408 326.138C742.401 326.676 743.481 327.036 744.598 327.202C745.88 327.451 747.144 327.786 748.381 328.205C751.541 329.376 753.136 331.383 753.136 334.286C753.148 335.272 752.913 336.246 752.451 337.117C751.989 337.988 751.315 338.73 750.493 339.272C748.482 340.611 746.099 341.276 743.687 341.173C741.956 341.206 740.239 340.858 738.658 340.154C737.286 339.558 736.099 338.602 735.225 337.387C734.417 336.291 733.98 334.965 733.979 333.602H739.752C739.746 334.074 739.85 334.541 740.056 334.966C740.261 335.391 740.563 335.762 740.937 336.05C741.791 336.666 742.833 336.966 743.884 336.901C744.798 336.966 745.708 336.737 746.482 336.247C746.763 336.054 746.99 335.791 747.141 335.486C747.293 335.18 747.364 334.84 747.348 334.499V334.499Z" fill="white"/>
<path id="Vector_79" d="M109.563 469.49L91.0598 449.151C90.8142 448.797 90.4873 448.507 90.1066 448.306C89.726 448.105 89.3026 447.998 88.8722 447.995H68.743C68.0419 447.995 67.3696 448.274 66.8738 448.77C66.3781 449.266 66.0996 449.939 66.0996 450.64V503.026C66.0996 503.728 66.3776 504.403 66.8729 504.901C67.3682 505.4 68.0405 505.682 68.743 505.686H107.513C108.215 505.682 108.887 505.4 109.383 504.901C109.878 504.403 110.156 503.728 110.156 503.026V471.102C110.141 470.514 109.933 469.948 109.563 469.49ZM91.5915 468.502V457.572L101.481 468.502H91.5915ZM88.933 473.808H104.854V500.38H71.4319V453.255H86.32V471.163C86.3199 471.859 86.5942 472.527 87.0834 473.022C87.5726 473.518 88.2372 473.8 88.933 473.808V473.808Z" fill="#F9A74E"/>
<path id="Vector_80" d="M348.82 203.275C348.358 201.435 347.283 199.808 345.772 198.661C344.261 197.514 342.405 196.916 340.51 196.967C337.289 196.967 334.084 196.967 330.863 196.967C330.149 196.967 329.815 196.845 329.921 196.039C329.967 195.468 329.967 194.893 329.921 194.322C329.886 192.483 329.133 190.73 327.825 189.438C326.517 188.146 324.756 187.416 322.918 187.405C317.509 187.405 312.101 187.405 306.693 187.405C305.252 187.43 303.853 187.893 302.681 188.732C301.509 189.57 300.619 190.746 300.13 192.102C299.717 193.46 299.572 194.885 299.705 196.298C299.705 196.845 299.553 196.967 299.036 196.952H289.313C288.719 196.933 288.124 196.969 287.536 197.058C285.511 197.381 283.676 198.441 282.384 200.035C281.091 201.628 280.432 203.643 280.532 205.693C280.532 216.334 280.532 226.975 280.532 237.616C280.514 238.191 280.55 238.766 280.639 239.334C280.952 241.362 282.003 243.203 283.59 244.502C285.177 245.802 287.189 246.468 289.237 246.372C297.73 246.372 306.222 246.372 314.714 246.372H340.206C340.831 246.39 341.456 246.355 342.075 246.266C344.114 245.956 345.965 244.9 347.27 243.301C348.575 241.703 349.241 239.677 349.139 237.616C349.139 226.975 349.139 216.334 349.139 205.693C349.139 204.876 349.032 204.064 348.82 203.275V203.275ZM304.475 194.671C304.46 194.346 304.512 194.022 304.628 193.718C304.743 193.414 304.919 193.137 305.145 192.903C305.371 192.67 305.643 192.485 305.943 192.36C306.243 192.236 306.565 192.174 306.89 192.178H322.781C323.095 192.161 323.409 192.209 323.703 192.319C323.998 192.429 324.267 192.598 324.493 192.816C324.72 193.034 324.899 193.297 325.02 193.587C325.141 193.877 325.201 194.19 325.196 194.504C325.196 195.082 325.196 195.659 325.196 196.222C325.196 196.784 325.075 196.982 324.467 196.982C321.231 196.982 317.996 196.982 314.76 196.982H305.128C304.612 196.982 304.414 196.876 304.46 196.343C304.505 195.811 304.475 195.219 304.475 194.671ZM285.333 205.601C285.287 205.077 285.356 204.548 285.535 204.053C285.715 203.558 286.001 203.108 286.374 202.736C286.746 202.363 287.195 202.077 287.69 201.897C288.185 201.717 288.713 201.648 289.237 201.694H340.358C341.208 201.614 342.058 201.842 342.755 202.336C343.452 202.829 343.949 203.556 344.156 204.385C344.25 204.773 344.291 205.172 344.277 205.571C344.277 208.804 344.277 212.042 344.277 215.285C344.327 215.816 344.259 216.351 344.077 216.852C343.896 217.353 343.607 217.808 343.229 218.184C342.852 218.56 342.396 218.849 341.894 219.028C341.393 219.207 340.858 219.274 340.328 219.222H324.255C323.708 219.222 323.556 219.116 323.556 218.538C323.577 218.2 323.524 217.861 323.403 217.545C323.281 217.229 323.093 216.943 322.85 216.706C322.608 216.47 322.318 216.288 321.999 216.174C321.68 216.06 321.341 216.016 321.004 216.045H308.607C308.263 216.015 307.917 216.061 307.592 216.178C307.267 216.296 306.972 216.482 306.726 216.725C306.481 216.968 306.291 217.261 306.17 217.585C306.049 217.908 305.999 218.254 306.024 218.599C306.024 219.146 305.857 219.222 305.356 219.222H289.146C288.635 219.256 288.122 219.18 287.642 218.999C287.163 218.818 286.727 218.537 286.365 218.175C286.002 217.812 285.721 217.376 285.541 216.896C285.36 216.416 285.284 215.903 285.318 215.391C285.303 212.184 285.318 208.915 285.333 205.601ZM310.84 221.533C310.84 221.046 310.84 220.818 311.463 220.849C312.602 220.849 313.757 220.849 314.896 220.849C316.036 220.849 317.19 220.849 318.33 220.849C318.725 220.849 318.831 220.955 318.831 221.35C318.831 222.46 318.831 222.46 317.737 222.46C315.641 222.46 313.544 222.46 311.448 222.46C310.597 222.551 310.901 221.989 310.84 221.594V221.533ZM344.262 238.255C344.23 239.098 343.893 239.901 343.315 240.516C342.738 241.131 341.957 241.515 341.118 241.599C340.75 241.647 340.379 241.672 340.009 241.675H289.329C288.487 241.744 287.648 241.519 286.954 241.04C286.259 240.561 285.751 239.856 285.515 239.045C285.437 238.81 285.396 238.564 285.394 238.315C285.394 233.36 285.394 228.404 285.394 223.372C288.432 224.679 291.683 224.041 294.828 224.117C298.337 224.208 301.862 224.117 305.371 224.117C305.872 224.117 306.1 224.117 306.116 224.786C306.095 225.131 306.148 225.476 306.272 225.798C306.396 226.12 306.588 226.412 306.834 226.654C307.08 226.896 307.375 227.083 307.699 227.201C308.024 227.319 308.369 227.366 308.713 227.34H321.034C321.373 227.368 321.715 227.324 322.035 227.21C322.356 227.096 322.649 226.915 322.895 226.68C323.141 226.444 323.333 226.159 323.46 225.843C323.587 225.526 323.646 225.187 323.632 224.847C323.632 224.178 323.89 224.117 324.452 224.117H339.401C341.095 224.245 342.795 223.958 344.353 223.281C344.277 228.404 344.293 233.299 344.262 238.239V238.255Z" fill="#2452C6"/>
<path id="Vector_81" d="M682.433 102.957C681.987 102.958 681.549 102.848 681.156 102.638L665.494 94.3983L649.816 102.638C649.362 102.874 648.852 102.98 648.342 102.942C647.832 102.904 647.343 102.725 646.929 102.425C646.512 102.126 646.187 101.714 645.993 101.238C645.8 100.762 645.745 100.24 645.835 99.7341L648.874 82.2826L636.158 69.8627C635.79 69.5048 635.529 69.0508 635.405 68.5521C635.281 68.0534 635.299 67.5299 635.457 67.041C635.615 66.5521 635.907 66.1173 636.299 65.7858C636.692 65.4543 637.169 65.2394 637.677 65.1654L655.194 62.6115L663.017 46.7409C663.244 46.2789 663.595 45.8898 664.032 45.6176C664.468 45.3454 664.972 45.2012 665.486 45.2012C666 45.2012 666.504 45.3454 666.941 45.6176C667.377 45.8898 667.728 46.2789 667.955 46.7409L675.794 62.6115L693.295 65.3022C693.803 65.3762 694.28 65.5911 694.673 65.9226C695.065 66.2541 695.357 66.6889 695.515 67.1778C695.673 67.6667 695.691 68.1902 695.567 68.6889C695.444 69.1876 695.183 69.6416 694.814 69.9995L682.144 82.3585L685.182 99.8102C685.266 100.317 685.206 100.838 685.01 101.313C684.814 101.788 684.49 102.2 684.073 102.501C683.59 102.827 683.014 102.987 682.433 102.957V102.957ZM665.494 88.5304C665.939 88.5314 666.377 88.6409 666.77 88.8497L678.787 95.1584L676.493 81.7809C676.412 81.3417 676.442 80.8894 676.58 80.4648C676.718 80.0402 676.96 79.6566 677.283 79.3486L686.99 69.8627L673.561 67.9169C673.119 67.8493 672.701 67.6757 672.341 67.411C671.981 67.1462 671.691 66.7982 671.494 66.3967L665.418 54.2353L659.341 66.3967C659.145 66.7982 658.854 67.1462 658.495 67.411C658.135 67.6757 657.716 67.8493 657.275 67.9169L644.043 69.8627L653.766 79.3486C654.082 79.6612 654.319 80.0453 654.456 80.4685C654.594 80.8918 654.628 81.3418 654.555 81.7809L652.261 95.1584L664.263 88.8497C664.643 88.6501 665.064 88.5409 665.494 88.5304V88.5304Z" fill="#F9A74E"/>
<path id="Vector_82" d="M1062.72 193.089C1062.42 192.532 1062.01 192.049 1061.5 191.675C1061 191.301 1060.42 191.046 1059.8 190.93H1032.95C1030.58 191.736 1029.6 192.937 1029.6 195.095V244.425C1029.56 244.987 1029.65 245.549 1029.84 246.076C1030.04 246.602 1030.35 247.08 1030.75 247.477C1031.15 247.874 1031.63 248.182 1032.16 248.379C1032.68 248.576 1033.24 248.659 1033.81 248.621H1058.9C1059.46 248.659 1060.03 248.577 1060.55 248.379C1061.08 248.182 1061.55 247.874 1061.95 247.477C1062.35 247.079 1062.66 246.601 1062.85 246.075C1063.05 245.548 1063.13 244.986 1063.1 244.425C1063.1 227.987 1063.1 211.544 1063.1 195.095C1063.13 194.406 1063 193.718 1062.72 193.089V193.089ZM1046.35 246.675C1045.97 246.672 1045.59 246.553 1045.26 246.334C1044.94 246.114 1044.7 245.804 1044.55 245.443C1044.41 245.082 1044.37 244.686 1044.45 244.305C1044.53 243.924 1044.73 243.577 1045.01 243.306C1045.29 243.035 1045.64 242.853 1046.02 242.784C1046.4 242.715 1046.8 242.761 1047.15 242.917C1047.51 243.073 1047.81 243.331 1048.02 243.659C1048.23 243.988 1048.34 244.37 1048.33 244.759C1048.33 245.015 1048.27 245.267 1048.17 245.502C1048.07 245.736 1047.92 245.949 1047.74 246.127C1047.55 246.304 1047.34 246.444 1047.1 246.538C1046.86 246.633 1046.61 246.679 1046.35 246.675V246.675ZM1060.45 240.777C1060.45 241.233 1060.35 241.354 1059.87 241.354H1032.95C1032.48 241.354 1032.38 241.233 1032.38 240.777V197.695C1032.38 197.224 1032.47 197.102 1032.95 197.102H1059.91C1060.38 197.102 1060.48 197.224 1060.48 197.695C1060.48 204.88 1060.48 212.071 1060.48 219.266C1060.48 226.462 1060.47 233.632 1060.45 240.777Z" fill="#2452C6" stroke="#2452C6" stroke-width="0.75" stroke-miterlimit="10"/>
<path id="Vector_83" d="M55.6476 499.651H55.5413V499.027C55.6115 499.113 55.6583 499.216 55.677 499.325C55.6956 499.434 55.6855 499.547 55.6476 499.651Z" fill="#575757"/>
<path id="Vector_84" d="M1267.99 466.587C1267.39 466.541 1266.78 466.541 1266.18 466.587C1265.21 466.587 1265.21 466.587 1265.21 465.614C1265.21 462.574 1265.21 459.533 1265.21 456.493C1265.23 456.072 1265.16 455.651 1265.01 455.258C1264.85 454.865 1264.62 454.508 1264.33 454.209C1264.03 453.91 1263.67 453.676 1263.28 453.523C1262.89 453.369 1262.47 453.299 1262.05 453.316C1259.01 453.407 1255.97 453.316 1253.01 453.316C1251.61 453.316 1251.7 453.407 1251.7 451.993C1251.7 449.956 1251.7 447.919 1251.7 445.913C1251.74 445.471 1251.68 445.026 1251.53 444.61C1251.37 444.193 1251.13 443.815 1250.82 443.503C1250.5 443.19 1250.12 442.949 1249.71 442.799C1249.29 442.648 1248.85 442.59 1248.41 442.629H1214.42C1213.65 442.616 1212.89 442.672 1212.13 442.796C1210.2 443.114 1208.45 444.08 1207.14 445.533C1206.09 446.668 1205.45 448.133 1205.34 449.683V493.95C1205.39 494.144 1205.39 494.349 1205.34 494.543V494.695C1205.39 495.576 1205.62 496.437 1206.02 497.222C1206.43 498.008 1206.99 498.7 1207.68 499.256C1209.41 500.797 1211.66 501.614 1213.98 501.536H1262.38C1262.76 501.52 1263.14 501.429 1263.48 501.267C1263.83 501.105 1264.13 500.875 1264.39 500.592C1264.64 500.309 1264.84 499.977 1264.96 499.617C1265.09 499.257 1265.14 498.876 1265.12 498.495C1265.12 498.161 1265.12 497.827 1265.12 497.492C1265.12 494.649 1265.12 491.807 1265.12 488.949C1265.12 488.219 1265.12 488.173 1265.89 488.158H1267.41C1267.76 488.214 1268.12 488.198 1268.47 488.111C1268.81 488.023 1269.14 487.867 1269.42 487.651C1269.71 487.436 1269.94 487.164 1270.12 486.854C1270.3 486.544 1270.41 486.202 1270.45 485.848V468.837C1270.38 468.226 1270.1 467.661 1269.64 467.247C1269.19 466.833 1268.6 466.598 1267.99 466.587V466.587ZM1210.81 493.008C1210.81 481.667 1210.81 470.322 1210.81 458.971C1210.81 458.439 1210.9 458.302 1211.44 458.484C1212.26 458.718 1213.11 458.815 1213.97 458.773H1258.89C1259.5 458.773 1259.65 458.91 1259.65 459.518C1259.65 461.738 1259.65 463.957 1259.65 466.192C1259.65 466.648 1259.54 466.785 1259.07 466.769C1257.43 466.657 1255.78 466.774 1254.18 467.119C1252.01 467.727 1250.06 468.959 1248.59 470.661C1247.09 472.385 1246.21 474.557 1246.07 476.838C1245.94 479.118 1246.57 481.378 1247.86 483.263C1248.82 484.707 1250.11 485.896 1251.63 486.73C1253.15 487.564 1254.85 488.018 1256.58 488.052C1257.43 488.052 1258.28 488.052 1259.13 488.052C1259.54 488.052 1259.65 488.158 1259.65 488.569C1259.65 490.864 1259.65 493.129 1259.65 495.486C1259.65 495.972 1259.5 496.048 1259.05 496.048H1213.84C1213.43 496.106 1213.01 496.068 1212.62 495.936C1212.22 495.803 1211.86 495.581 1211.57 495.286C1211.27 494.991 1211.05 494.632 1210.92 494.237C1210.79 493.841 1210.75 493.42 1210.81 493.008ZM1245.44 448.117C1245.93 448.117 1246.07 448.238 1246.05 448.725C1246.05 450.139 1246.05 451.552 1246.05 452.966C1246.05 453.392 1245.91 453.468 1245.52 453.468H1213.62C1213.25 453.496 1212.88 453.447 1212.53 453.326C1212.19 453.204 1211.87 453.012 1211.6 452.762C1211.33 452.511 1211.11 452.208 1210.96 451.87C1210.82 451.533 1210.74 451.168 1210.74 450.8C1210.74 450.432 1210.82 450.067 1210.96 449.73C1211.11 449.392 1211.33 449.089 1211.6 448.838C1211.87 448.588 1212.19 448.396 1212.53 448.274C1212.88 448.153 1213.25 448.104 1213.62 448.132H1229.4C1234.79 448.132 1240.11 448.147 1245.44 448.117ZM1256.59 482.716C1255.45 482.685 1254.35 482.282 1253.46 481.569C1252.57 480.855 1251.94 479.87 1251.66 478.764C1251.36 477.64 1251.45 476.452 1251.9 475.381C1252.34 474.311 1253.13 473.416 1254.13 472.835C1254.93 472.382 1255.83 472.136 1256.75 472.12H1264.6C1264.95 472.12 1265.06 472.212 1265.04 472.561C1265.04 474.203 1265.04 475.845 1265.04 477.487V482.275C1265.04 482.579 1265.04 482.777 1264.63 482.762C1261.96 482.716 1259.31 482.716 1256.59 482.716ZM1256.97 474.766C1256.27 474.769 1255.59 475.033 1255.06 475.507C1254.54 475.981 1254.21 476.632 1254.13 477.335C1254.15 478.052 1254.45 478.734 1254.95 479.245C1255.46 479.755 1256.14 480.056 1256.85 480.086C1257.2 480.094 1257.55 480.033 1257.87 479.907C1258.2 479.781 1258.5 479.591 1258.75 479.35C1259 479.109 1259.2 478.82 1259.35 478.5C1259.49 478.18 1259.56 477.836 1259.57 477.487C1259.58 477.137 1259.52 476.79 1259.39 476.464C1259.27 476.138 1259.08 475.84 1258.84 475.588C1258.59 475.335 1258.31 475.132 1257.99 474.991C1257.67 474.85 1257.32 474.774 1256.97 474.766V474.766Z" fill="#F9A74E"/>
<path id="Vector_85" d="M1259.6 477.426C1259.6 477.78 1259.52 478.129 1259.38 478.453C1259.24 478.778 1259.03 479.071 1258.78 479.315C1258.52 479.56 1258.22 479.751 1257.89 479.879C1257.56 480.006 1257.21 480.066 1256.85 480.056C1256.14 480.025 1255.46 479.725 1254.95 479.214C1254.45 478.704 1254.16 478.022 1254.13 477.304C1254.21 476.601 1254.54 475.951 1255.06 475.477C1255.59 475.003 1256.27 474.739 1256.97 474.735C1257.68 474.747 1258.35 475.036 1258.84 475.54C1259.33 476.044 1259.61 476.721 1259.6 477.426V477.426Z" fill="#F9A74E"/>
</g>
</g>
<defs>
<filter id="filter0_d_21_2" x="10.3784" y="399.044" width="155.499" height="155.577" filterUnits="userSpaceOnUse" color-interpolation-filters="sRGB">
<feFlood flood-opacity="0" result="BackgroundImageFix"/>
<feColorMatrix in="SourceAlpha" type="matrix" values="0 0 0 0 0 0 0 0 0 0 0 0 0 0 0 0 0 0 127 0" result="hardAlpha"/>
<feOffset/>
<feGaussianBlur stdDeviation="9"/>
<feComposite in2="hardAlpha" operator="out"/>
<feColorMatrix type="matrix" values="0 0 0 0 0.984314 0 0 0 0 0.580392 0 0 0 0 0.101961 0 0 0 1 0"/>
<feBlend mode="normal" in2="BackgroundImageFix" result="effect1_dropShadow_21_2"/>
<feBlend mode="normal" in="SourceGraphic" in2="effect1_dropShadow_21_2" result="shape"/>
</filter>
<filter id="filter1_d_21_2" x="1160.37" y="396.035" width="155.499" height="155.577" filterUnits="userSpaceOnUse" color-interpolation-filters="sRGB">
<feFlood flood-opacity="0" result="BackgroundImageFix"/>
<feColorMatrix in="SourceAlpha" type="matrix" values="0 0 0 0 0 0 0 0 0 0 0 0 0 0 0 0 0 0 127 0" result="hardAlpha"/>
<feOffset/>
<feGaussianBlur stdDeviation="9"/>
<feComposite in2="hardAlpha" operator="out"/>
<feColorMatrix type="matrix" values="0 0 0 0 0.984314 0 0 0 0 0.580392 0 0 0 0 0.101961 0 0 0 1 0"/>
<feBlend mode="normal" in2="BackgroundImageFix" result="effect1_dropShadow_21_2"/>
<feBlend mode="normal" in="SourceGraphic" in2="effect1_dropShadow_21_2" result="shape"/>
</filter>
<filter id="filter2_d_21_2" x="230.965" y="133.169" width="167.499" height="167.577" filterUnits="userSpaceOnUse" color-interpolation-filters="sRGB">
<feFlood flood-opacity="0" result="BackgroundImageFix"/>
<feColorMatrix in="SourceAlpha" type="matrix" values="0 0 0 0 0 0 0 0 0 0 0 0 0 0 0 0 0 0 127 0" result="hardAlpha"/>
<feOffset/>
<feGaussianBlur stdDeviation="12"/>
<feComposite in2="hardAlpha" operator="out"/>
<feColorMatrix type="matrix" values="0 0 0 0 0.0552083 0 0 0 0 0.252829 0 0 0 0 0.883333 0 0 0 1 0"/>
<feBlend mode="normal" in2="BackgroundImageFix" result="effect1_dropShadow_21_2"/>
<feBlend mode="normal" in="SourceGraphic" in2="effect1_dropShadow_21_2" result="shape"/>
</filter>
<filter id="filter3_d_21_2" x="962.65" y="135.554" width="167.499" height="167.577" filterUnits="userSpaceOnUse" color-interpolation-filters="sRGB">
<feFlood flood-opacity="0" result="BackgroundImageFix"/>
<feColorMatrix in="SourceAlpha" type="matrix" values="0 0 0 0 0 0 0 0 0 0 0 0 0 0 0 0 0 0 127 0" result="hardAlpha"/>
<feOffset/>
<feGaussianBlur stdDeviation="12"/>
<feComposite in2="hardAlpha" operator="out"/>
<feColorMatrix type="matrix" values="0 0 0 0 0.0552083 0 0 0 0 0.252829 0 0 0 0 0.883333 0 0 0 1 0"/>
<feBlend mode="normal" in2="BackgroundImageFix" result="effect1_dropShadow_21_2"/>
<feBlend mode="normal" in="SourceGraphic" in2="effect1_dropShadow_21_2" result="shape"/>
</filter>
<filter id="filter4_d_21_2" x="586.013" y="-3.68445" width="155.499" height="155.577" filterUnits="userSpaceOnUse" color-interpolation-filters="sRGB">
<feFlood flood-opacity="0" result="BackgroundImageFix"/>
<feColorMatrix in="SourceAlpha" type="matrix" values="0 0 0 0 0 0 0 0 0 0 0 0 0 0 0 0 0 0 127 0" result="hardAlpha"/>
<feOffset/>
<feGaussianBlur stdDeviation="9"/>
<feComposite in2="hardAlpha" operator="out"/>
<feColorMatrix type="matrix" values="0 0 0 0 0.984314 0 0 0 0 0.580392 0 0 0 0 0.101961 0 0 0 1 0"/>
<feBlend mode="normal" in2="BackgroundImageFix" result="effect1_dropShadow_21_2"/>
<feBlend mode="normal" in="SourceGraphic" in2="effect1_dropShadow_21_2" result="shape"/>
</filter>
<radialGradient id="paint0_radial_21_2" cx="0" cy="0" r="1" gradientUnits="userSpaceOnUse" gradientTransform="translate(541.787 995.41) scale(407.613 407.878)">
<stop stop-color="#E0790A"/>
<stop offset="1" stop-color="#F9A74E"/>
</radialGradient>
<clipPath id="clip0_21_2">
<rect width="1324" height="1119" fill="white"/>
</clipPath>
</defs>
</svg>
