<svg width="28" height="28" viewBox="0 0 28 28" fill="none" xmlns="http://www.w3.org/2000/svg">
<g id="linkedin 1" clip-path="url(#clip0_139_12)">
<path id="Vector" d="M15.4648 11.8172C16.0154 10.9689 16.7538 10.2587 17.6228 9.74143C19.0272 8.91405 20.5545 8.75732 22.1375 8.90676C23.2484 9.01155 24.31 9.28036 25.2514 9.9091C26.5719 10.7884 27.2262 12.096 27.5889 13.5859C27.9225 14.9527 27.9863 16.3542 27.9899 17.7556C27.9981 21.046 27.9899 24.3365 27.9999 27.6269C27.9999 27.9139 27.9033 27.9531 27.6545 27.9522C25.9352 27.9419 24.2159 27.9419 22.4965 27.9522C22.2432 27.9522 22.1785 27.8957 22.1794 27.6378C22.1873 24.5178 22.1873 21.3981 22.1794 18.2787C22.1839 17.6179 22.1228 16.9583 21.9971 16.3095C21.6071 14.375 20.3568 13.7581 18.6153 13.9622C16.9822 14.1545 16.0991 15.1204 15.8348 16.8781C15.7421 17.5202 15.6979 18.1684 15.7027 18.8172C15.7027 21.7668 15.7027 24.7155 15.71 27.6642C15.71 27.9376 15.6416 28.0005 15.3746 27.9977C13.6668 27.985 11.959 27.985 10.2512 27.9977C9.97785 27.9977 9.88672 27.9513 9.88672 27.6542C9.89644 21.6541 9.89644 15.6534 9.88672 9.65213C9.88672 9.37148 9.95233 9.29402 10.2394 9.29676C11.8798 9.31134 13.5201 9.3086 15.1605 9.29676C15.3983 9.29676 15.4712 9.35781 15.4658 9.59928C15.4539 10.3401 15.4648 11.08 15.4648 11.8172Z" fill="#FB941A"/>
<path id="Vector_2" d="M0.462791 18.6424C0.462791 15.6499 0.468259 12.6575 0.45459 9.66503C0.45459 9.35794 0.533873 9.29325 0.829137 9.29598C2.53602 9.31147 4.24291 9.30874 5.94979 9.29598C6.19402 9.29598 6.27695 9.34154 6.27604 9.60853C6.26754 15.6396 6.26754 21.6704 6.27604 27.7008C6.27604 27.9487 6.20131 27.9979 5.96984 27.9961C4.23835 27.987 2.50686 27.9833 0.78175 27.9961C0.491953 27.9961 0.458234 27.8967 0.459145 27.6498C0.465828 24.6488 0.467044 21.6464 0.462791 18.6424Z" fill="#FB941A"/>
<path id="Vector_3" d="M6.71636 3.349C6.7282 5.20152 5.21999 6.74239 3.38461 6.75241C1.54923 6.76244 0.000916541 5.22156 5.2316e-06 3.36085C-0.00156576 2.47029 0.350732 1.61559 0.979402 0.984756C1.60807 0.353926 2.46161 -0.00135359 3.35226 -0.00292446C4.2429 -0.00449532 5.09769 0.347769 5.72858 0.976377C6.35947 1.60499 6.71479 2.45845 6.71636 3.349Z" fill="#FB941A"/>
</g>
<defs>
<clipPath id="clip0_139_12">
<rect width="28" height="28" fill="white"/>
</clipPath>
</defs>
</svg>
