<svg width="48" height="46" viewBox="0 0 48 46" fill="none" xmlns="http://www.w3.org/2000/svg">
<path id="Vector" d="M9.2924 19.0939C12.2881 17.086 15.6865 15.7492 19.2527 15.176C20.2076 14.9996 21.1727 14.8833 22.1422 14.8279C22.7601 14.8021 23.0361 14.6509 23.1701 14.0046C24.0499 9.78841 24.9838 5.58417 25.8916 1.37594C26.1756 0.0613646 26.4595 -0.125579 27.8113 0.182679C30.6268 0.813118 33.4444 1.43162 36.2559 2.08195C36.7558 2.1973 37.0558 2.12769 37.3717 1.68419C37.8843 0.97189 38.6171 0.44584 39.4583 0.186242C40.2995 -0.0733559 41.2029 -0.0522556 42.0309 0.246321C42.864 0.53335 43.5819 1.07973 44.0782 1.80447C44.5745 2.5292 44.8228 3.3937 44.7862 4.2698C44.7496 5.1459 44.4301 5.98695 43.8751 6.66826C43.3201 7.34958 42.5591 7.83488 41.705 8.05222C41.1705 8.2056 40.6096 8.24637 40.0584 8.17194C39.5071 8.09751 38.9775 7.9095 38.5034 7.61995C38.0294 7.3304 37.6213 6.94567 37.3052 6.49034C36.9891 6.03501 36.772 5.51911 36.6678 4.9756C36.5458 4.34914 36.2819 4.10055 35.668 3.9673C33.0684 3.40846 30.4829 2.78796 27.7933 2.16747C26.8675 6.36177 25.9556 10.5064 25.0318 14.6967C26.1696 14.8319 27.2474 14.9373 28.3172 15.0944C31.7843 15.5569 35.1098 16.7597 38.0656 18.6205C38.5735 18.9427 38.8855 18.9845 39.4074 18.5788C39.9574 18.1507 40.5872 17.8354 41.2605 17.6511C41.9339 17.4668 42.6372 17.4172 43.33 17.505C44.0227 17.5929 44.6911 17.8165 45.2963 18.163C45.9016 18.5094 46.4318 18.9718 46.8561 19.5234C48.6938 21.9616 48.2799 25.4122 45.8743 27.1464C45.2924 27.566 45.1224 27.9021 45.2304 28.634C45.7803 32.3828 44.5485 35.6264 42.1109 38.4386C39.2094 41.7976 35.452 43.7864 31.2027 44.8225C24.0519 46.5826 17.1511 45.9601 10.6842 42.2729C7.30273 40.3458 4.68516 37.6848 3.37938 33.934C2.75772 32.1715 2.59402 30.2813 2.90346 28.4391C2.99545 27.8882 2.84747 27.6595 2.42554 27.379C0.625842 26.1858 -0.192023 24.4595 0.0379391 22.3415C0.267901 20.2235 1.34572 18.6663 3.35739 17.8469C5.36905 17.0275 7.29873 17.4551 9.2924 19.0939ZM28.7752 28.2422C28.7831 29.0216 29.0235 29.7811 29.4659 30.4246C29.9083 31.068 30.5327 31.5664 31.2601 31.8566C31.9875 32.1468 32.7851 32.2158 33.5519 32.0549C34.3188 31.8939 35.0203 31.5102 35.5678 30.9524C36.1152 30.3946 36.4838 29.6877 36.627 28.9214C36.7702 28.155 36.6814 27.3637 36.372 26.6475C36.0626 25.9313 35.5465 25.3226 34.889 24.8984C34.2315 24.4742 33.4622 24.2537 32.6785 24.2646C32.1588 24.2698 31.6452 24.3771 31.1673 24.5804C30.6894 24.7837 30.2567 25.0789 29.8939 25.4491C29.5312 25.8193 29.2456 26.2572 29.0536 26.7375C28.8616 27.2179 28.767 27.7313 28.7752 28.2481V28.2422ZM11.2801 28.2561C11.2745 29.0303 11.5006 29.7887 11.9295 30.4348C12.3584 31.0809 12.9708 31.5856 13.6889 31.8847C14.4069 32.1838 15.1982 32.2638 15.962 32.1146C16.7259 31.9653 17.4279 31.5935 17.9788 31.0465C18.5297 30.4994 18.9046 29.8018 19.0559 29.0424C19.2071 28.2829 19.1279 27.4958 18.8282 26.7812C18.5286 26.0666 18.0221 25.4568 17.3731 25.0292C16.7241 24.6017 15.9619 24.3757 15.1834 24.38C14.149 24.3826 13.1577 24.7925 12.4262 25.5199C11.6948 26.2474 11.2827 27.2333 11.2801 28.2621V28.2561ZM24.3259 40.5347C25.0578 40.4592 26.1576 40.4074 27.2334 40.2225C29.2191 39.8844 31.1068 39.2798 32.6325 37.8936C33.0744 37.4959 33.2524 37.0126 32.8045 36.5294C32.3565 36.0461 31.9006 36.1773 31.4047 36.5294C30.8408 36.9271 30.2749 37.4163 29.633 37.6013C28.1832 38.0189 26.7015 38.4545 25.2097 38.5579C22.0683 38.7747 18.9708 38.5579 16.3752 36.418C15.9433 36.062 15.4834 36.0898 15.1094 36.5015C15.0205 36.5829 14.9509 36.6829 14.9057 36.7944C14.8605 36.9059 14.8408 37.026 14.8481 37.1459C14.8553 37.2659 14.8894 37.3828 14.9477 37.488C15.0061 37.5933 15.0873 37.6843 15.1854 37.7544C15.7446 38.2449 16.3546 38.6748 17.0051 39.0372C19.1847 40.1748 21.5604 40.4532 24.3259 40.5407V40.5347Z" fill="url(#paint0_linear_48_25)"/>
<defs>
<linearGradient id="paint0_linear_48_25" x1="-6.69222" y1="45.7658" x2="57.6915" y2="45.7658" gradientUnits="userSpaceOnUse">
<stop stop-color="#FFAF10"/>
<stop offset="1" stop-color="#F97919"/>
</linearGradient>
</defs>
</svg>
