<svg width="32" height="21" viewBox="0 0 32 21" fill="none" xmlns="http://www.w3.org/2000/svg">
<g id="subir 1" clip-path="url(#clip0_134_9)">
<g id="Capa 2">
<g id="Capa 1">
<path id="Vector" d="M0 19.369C0.221317 19.2287 0.380833 19.0224 0.562898 18.8412C5.02432 14.3915 9.48241 9.93896 13.9372 5.48366C14.1351 5.28573 14.2336 5.27821 14.4383 5.48366C16.1604 7.2233 17.8966 8.94791 19.6213 10.6842C19.7749 10.8387 19.8526 10.8395 20.0071 10.6842C22.8645 7.81348 25.7266 4.94805 28.5934 2.0879C28.6435 2.03863 28.6886 1.98351 28.7395 1.92755C28.6502 1.84403 28.5525 1.88496 28.4664 1.88496C27.2271 1.88496 25.9877 1.87744 24.7491 1.88496C24.547 1.88496 24.4844 1.83735 24.4919 1.63441C24.5078 1.16672 24.5053 0.697359 24.4919 0.228834C24.4877 0.0425932 24.5445 0 24.7207 0C27.0742 0.00501096 29.428 0.00501096 31.782 0C31.9699 0 32 0.0651425 32 0.232175C31.995 2.58677 31.995 4.94053 32 7.29345C32 7.48554 31.9307 7.5106 31.7662 7.50642C31.3185 7.4964 30.87 7.49055 30.4232 7.50642C30.1877 7.51561 30.1109 7.46049 30.1142 7.20743C30.1292 5.99979 30.1209 4.79131 30.1209 3.58367V3.28134L30.0482 3.22455C29.9873 3.31425 29.9206 3.39989 29.8486 3.48095C26.5809 6.75255 23.3127 10.0244 20.0438 13.2966C19.8459 13.4954 19.7566 13.482 19.5686 13.2916C17.8532 11.5611 16.1236 9.84403 14.409 8.11358C14.2228 7.92567 14.1368 7.93653 13.9555 8.11358C9.83596 12.2415 5.71305 16.3658 1.5868 20.4865C1.36632 20.707 1.26109 20.6911 1.06483 20.4773C0.730765 20.1123 0.357449 19.7783 0.00167032 19.4317L0 19.369Z" fill="#FB941A" stroke="#FB941A"/>
</g>
</g>
</g>
<defs>
<clipPath id="clip0_134_9">
<rect width="32" height="20.6452" fill="white"/>
</clipPath>
</defs>
</svg>
