<svg width="54" height="32" viewBox="0 0 54 32" fill="none" xmlns="http://www.w3.org/2000/svg">
<path id="Vector" d="M20.3028 30.1733C19.2919 30.163 18.5615 29.698 18.1651 28.8008C16.8914 25.9323 15.5464 23.081 14.3795 20.1851C13.9342 19.0391 13.2149 18.4696 11.6606 18.1934C8.26028 17.5946 4.91561 16.8089 1.54869 16.1003C0.537722 15.8876 0.0277948 15.481 0.00107323 14.8668C-0.0256484 14.2527 0.446425 13.8375 1.43958 13.5579C17.4725 9.10764 33.5055 4.65686 49.5385 0.205496C50.5383 -0.0724278 51.4981 -0.12218 52.3799 0.39764C53.2127 0.888296 53.4532 1.53335 53.2172 2.33281C50.9993 9.8482 48.7925 17.3664 46.5969 24.8876C46.0758 26.658 45.5503 28.4274 45.0203 30.1956C44.5059 31.9111 42.5441 32.5133 40.6335 31.5217C36.7455 29.5025 32.8598 27.4832 29.0029 25.4297C28.3928 25.1054 28.0699 25.1603 27.5711 25.5378C25.7652 26.8982 23.9058 28.2158 22.0754 29.5556C21.5721 29.9296 21.0109 30.1784 20.3028 30.1733ZM15.798 18.3889C15.8211 18.5049 15.8546 18.6196 15.8982 18.732C17.0235 21.3214 18.151 23.9102 19.2807 26.4985C19.3497 26.6546 19.3498 26.8948 19.6214 26.8913C19.9822 26.8913 19.8931 26.6031 19.9198 26.4402C20.1803 24.8515 20.4431 23.2612 20.6502 21.6674C20.6714 21.4248 20.7599 21.1886 20.9098 20.9746C21.0596 20.7607 21.2672 20.5739 21.5187 20.427C28.2525 16.2033 34.9782 11.9715 41.6957 7.73175C42.3637 7.31315 43.0318 6.89455 43.6865 6.46908C43.9091 6.32669 44.0873 6.15341 43.9091 5.91494C43.731 5.67648 43.4215 5.65074 43.1097 5.74338C42.9338 5.80505 42.7641 5.87673 42.602 5.95783L30.6953 11.2127C26.0294 13.2714 21.3635 15.33 16.6976 17.3887C16.2278 17.5946 15.7713 17.7988 15.798 18.3889Z" fill="url(#paint0_linear_48_21)"/>
<defs>
<linearGradient id="paint0_linear_48_21" x1="-7.43169" y1="32" x2="64.0663" y2="32" gradientUnits="userSpaceOnUse">
<stop stop-color="#FFAF10"/>
<stop offset="1" stop-color="#F97919"/>
</linearGradient>
</defs>
</svg>
