<svg width="48" height="39" viewBox="0 0 48 39" fill="none" xmlns="http://www.w3.org/2000/svg">
<path id="Vector" d="M48 4.50689C46.228 5.26158 44.3804 5.82372 42.489 6.18369C42.3986 6.20119 42.3097 6.22028 42.2193 6.23619L42.1908 6.163C42.2812 6.1121 42.3716 6.0596 42.4604 6.00392C44.3547 4.85332 45.796 3.08368 46.5421 0.99259L46.6262 0.881226L46.5707 0.911453C45.0397 1.72425 43.435 2.38907 41.7783 2.8969C41.331 3.03372 40.8788 3.1594 40.422 3.27394C38.9286 1.60419 36.9118 0.495441 34.7049 0.130963C32.498 -0.233515 30.2332 0.16809 28.2848 1.2694L28.1642 1.33623C27.061 1.98507 26.0944 2.84315 25.3183 3.86256C24.4484 5.0123 23.8505 6.34534 23.5699 7.76088C23.2893 9.17643 23.3333 10.6374 23.6986 12.0334C22.9636 12.0101 22.236 11.9571 21.5158 11.8743C21.0927 11.8266 20.6697 11.7693 20.2467 11.7025C18.9451 11.4948 17.6604 11.1917 16.4029 10.7957C15.8826 10.6324 15.3681 10.4531 14.8594 10.258C11.9459 9.14158 9.24246 7.53745 6.86417 5.51392C6.53421 5.23392 6.21059 4.94597 5.89332 4.65006C5.02121 3.83543 4.20153 2.96612 3.43922 2.04736C3.28033 2.33264 3.13579 2.62574 3.00615 2.92553C2.59897 3.88012 2.35136 4.89543 2.27325 5.93073C2.25421 6.17573 2.24152 6.42073 2.24152 6.66891C2.24139 7.87319 2.47021 9.06646 2.91572 10.1848C3.6842 12.1034 5.04585 13.7243 6.80072 14.8095C6.73092 14.8095 6.6627 14.8095 6.5929 14.8095C5.08494 14.8112 3.59693 14.4638 2.24469 13.7945C2.25949 15.1184 2.54926 16.4246 3.09554 17.6298C3.64181 18.835 4.43259 19.9128 5.41741 20.7945C6.86191 22.0977 8.66159 22.9387 10.5858 23.2095C9.52866 23.5847 8.41544 23.7762 7.29407 23.7758C6.79652 23.776 6.29966 23.7387 5.80765 23.6645C6.40474 25.6125 7.59672 27.3234 9.2154 28.5557C10.8341 29.7879 12.7977 30.4794 14.8293 30.5324C10.6041 33.065 5.77267 34.4 0.850288 34.3951C0.564743 34.3951 0.282372 34.3951 0 34.3807C4.47972 37.3781 9.74541 38.9754 15.1307 38.9705C30.4311 38.9705 42.8364 26.3022 42.8364 10.6748C42.8364 10.4346 42.8364 10.1975 42.8269 9.95888C42.8269 9.88888 42.8269 9.81888 42.8269 9.74888C44.7726 8.23612 46.5118 6.47373 48 4.50689Z" fill="#FD9615"/>
</svg>
